<svg width="75" height="75" viewBox="0 0 75 75" fill="none" xmlns="http://www.w3.org/2000/svg">
<g filter="url(#filter0_dd_361_27896)">
<path fill-rule="evenodd" clip-rule="evenodd" d="M45.2193 8C50.3392 8 52.8986 8 55.6547 8.87125C58.6637 9.96648 61.0335 12.3363 62.1287 15.3453C63 18.101 63 20.6612 63 25.7807V41.2193C63 46.3393 63 48.8986 62.1287 51.6547C61.0335 54.6637 58.6637 57.0335 55.6547 58.1283C52.8986 59 50.3392 59 45.2193 59H29.7807C24.6608 59 22.101 59 19.3453 58.1283C16.3363 57.0335 13.9665 54.6637 12.8712 51.6547C12 48.8986 12 46.3393 12 41.2193V25.7807C12 20.6612 12 18.101 12.8712 15.3453C13.9665 12.3363 16.3363 9.96648 19.3453 8.87125C22.101 8 24.6608 8 29.7807 8H45.2193Z" fill="#1A1A1C"/>
</g>
<path fill-rule="evenodd" clip-rule="evenodd" d="M51.3596 39.9237V29.7718L53.5936 28.8442C53.8391 28.7422 53.9995 28.5027 53.9995 28.237C53.9995 27.9712 53.8391 27.7317 53.5936 27.6297L37.7539 21.0508C37.5915 20.9831 37.4086 20.9831 37.2457 21.0508L21.4059 27.6297C21.1604 27.7317 21 27.9712 21 28.237C21 28.5027 21.1604 28.7422 21.4059 28.8442L37.2457 35.4231C37.3268 35.4573 37.4133 35.4737 37.4998 35.4737C37.5862 35.4737 37.6726 35.4573 37.7539 35.4231L50.0395 30.3205V39.9237L47.4689 45.048C47.3666 45.252 47.3772 45.4941 47.4979 45.6881C47.6187 45.8823 47.8306 46 48.0595 46H53.3395C53.5685 46 53.7803 45.8816 53.9012 45.6875C54.0219 45.4934 54.0325 45.2513 53.9302 45.0473L51.3596 39.9237ZM37.4998 39.3665L46.4855 35.6343C46.8214 35.4941 47.2082 35.6527 47.3488 35.9882C47.4893 36.3237 47.3303 36.7093 46.9937 36.8487L37.7539 40.6862C37.6726 40.7204 37.5862 40.7369 37.4998 40.7369C37.4133 40.7369 37.3268 40.7204 37.2457 40.6862L24.0459 35.204C23.7093 35.0645 23.5509 34.679 23.6908 34.3435C23.8307 34.0086 24.2168 33.8487 24.554 33.9895L37.4998 39.3665Z" fill="white"/>
<defs>
<filter id="filter0_dd_361_27896" x="0" y="0" width="75" height="75" filterUnits="userSpaceOnUse" color-interpolation-filters="sRGB">
<feFlood flood-opacity="0" result="BackgroundImageFix"/>
<feColorMatrix in="SourceAlpha" type="matrix" values="0 0 0 0 0 0 0 0 0 0 0 0 0 0 0 0 0 0 127 0" result="hardAlpha"/>
<feOffset/>
<feGaussianBlur stdDeviation="0.5"/>
<feColorMatrix type="matrix" values="0 0 0 0 0 0 0 0 0 0 0 0 0 0 0 0 0 0 0.24 0"/>
<feBlend mode="normal" in2="BackgroundImageFix" result="effect1_dropShadow_361_27896"/>
<feColorMatrix in="SourceAlpha" type="matrix" values="0 0 0 0 0 0 0 0 0 0 0 0 0 0 0 0 0 0 127 0" result="hardAlpha"/>
<feOffset dy="4"/>
<feGaussianBlur stdDeviation="6"/>
<feColorMatrix type="matrix" values="0 0 0 0 0.690196 0 0 0 0 0.745098 0 0 0 0 0.772549 0 0 0 0.24 0"/>
<feBlend mode="normal" in2="effect1_dropShadow_361_27896" result="effect2_dropShadow_361_27896"/>
<feBlend mode="normal" in="SourceGraphic" in2="effect2_dropShadow_361_27896" result="shape"/>
</filter>
</defs>
</svg>
