<svg width="1140" height="619" viewBox="0 0 1140 619" fill="none" xmlns="http://www.w3.org/2000/svg">
<rect width="1140" height="619" fill="#1A1A1C"/>
<path fill-rule="evenodd" clip-rule="evenodd" d="M476.891 294.684V333.667L486.45 353.342C486.83 354.125 486.791 355.055 486.342 355.8C485.893 356.545 485.105 357 484.254 357H464.62C463.769 357 462.981 356.548 462.532 355.803C462.083 355.057 462.044 354.128 462.424 353.344L471.983 333.667V296.791L426.299 316.385C425.997 316.516 425.675 316.579 425.354 316.579C425.032 316.579 424.711 316.516 424.409 316.385L365.509 291.122C364.596 290.73 364 289.811 364 288.79C364 287.769 364.596 286.85 365.509 286.458L424.409 261.195C425.015 260.935 425.695 260.935 426.299 261.195L485.198 286.458C486.111 286.85 486.708 287.769 486.708 288.79C486.708 289.811 486.111 290.73 485.198 291.122L476.891 294.684ZM538.326 312.666L525.657 273.972H508.892V330.24H520.044V290.758H520.195L533.471 330.24H542.65L555.926 290.364H556.078V330.24H567.229V273.972H550.464L538.478 312.666H538.326ZM587.636 283.192V273.972H576.864V283.192H587.636ZM587.636 289.497V330.24H576.864V289.497H587.636ZM624.125 291.073C621.243 289.287 617.955 288.393 614.263 288.393C610.723 288.393 607.423 289.234 604.364 290.915C601.304 292.597 598.851 295.145 597.005 298.56C595.159 301.975 594.236 305.757 594.236 309.908C594.236 314.321 595.146 318.196 596.967 321.532C598.788 324.868 601.228 327.325 604.288 328.901C607.347 330.477 610.673 331.291 614.263 331.344C623.721 331.344 629.84 326.773 632.622 317.631H623.139C622.684 319.102 621.635 320.35 619.991 321.375C618.347 322.399 616.539 322.911 614.567 322.911C611.381 322.911 609.016 322.005 607.474 320.192C605.931 318.38 605.11 315.845 605.008 312.587H633.305C633.355 311.642 633.381 310.959 633.381 310.538C633.381 306.125 632.559 302.224 630.915 298.835C629.271 295.447 627.008 292.859 624.125 291.073ZM622.532 305.495C622.027 302.447 621.091 300.241 619.726 298.875C618.36 297.509 616.413 296.826 613.884 296.826C611.254 296.826 609.181 297.601 607.664 299.151C606.146 300.701 605.261 302.815 605.008 305.495H622.532ZM668.087 291.703C665.129 289.497 661.019 288.393 655.76 288.393C651.967 288.393 648.793 288.906 646.239 289.93C643.685 290.955 641.789 292.465 640.549 294.462C639.31 296.458 638.691 298.796 638.691 301.476C638.691 303.577 639.209 305.35 640.246 306.795C641.283 308.24 642.787 309.409 644.76 310.302C646.732 311.195 648.983 311.904 651.511 312.43C654.698 313.113 657.049 313.717 658.567 314.242C660.084 314.768 661.26 315.372 662.094 316.055C662.929 316.738 663.346 317.605 663.346 318.656C663.346 320.284 662.676 321.558 661.335 322.478C659.995 323.397 658.314 323.857 656.291 323.857C653.914 323.857 651.941 323.24 650.374 322.005C648.806 320.77 648.022 319.102 648.022 317.001H637.781C637.882 321.414 639.538 324.908 642.749 327.482C645.961 330.057 650.449 331.344 656.215 331.344C661.727 331.344 666.089 330.122 669.301 327.679C672.512 325.236 674.118 321.729 674.118 317.158C674.118 315.004 673.65 313.192 672.715 311.721C671.779 310.249 670.3 308.989 668.277 307.938C666.254 306.887 662.789 305.862 657.884 304.864C656.265 304.549 654.786 304.155 653.446 303.682C652.106 303.209 651.107 302.658 650.449 302.027C649.792 301.397 649.463 300.609 649.463 299.663C649.463 298.402 649.956 297.456 650.942 296.826C651.929 296.195 653.433 295.88 655.456 295.88C657.783 295.88 659.553 296.314 660.767 297.18C661.98 298.047 662.663 299.453 662.815 301.397H673.056C672.702 297.141 671.046 293.91 668.087 291.703ZM694.07 277.281V289.497H701.959V296.983H694.07V317.158C694.07 319.05 694.373 320.311 694.98 320.941C695.587 321.572 696.801 321.887 698.621 321.887C699.936 321.887 701.049 321.782 701.959 321.572V330.319C700.442 330.582 698.318 330.713 695.587 330.713C691.44 330.713 688.355 329.978 686.332 328.507C684.309 327.036 683.297 324.487 683.297 320.862V296.983H676.773V289.497H683.297V277.281H694.07ZM732.38 288.787C731.722 288.525 730.938 288.393 730.028 288.393C727.348 288.393 724.857 289.181 722.556 290.758C720.255 292.334 718.573 294.435 717.511 297.062H717.359V289.497H707.118V330.24H717.89V311.878C717.89 303.157 721.43 298.796 728.511 298.796C729.927 298.796 731.216 298.927 732.38 299.19V288.787ZM755.669 288.393C761.94 288.393 766.897 290.377 770.538 294.343C774.179 298.31 776 303.498 776 309.908C776 316.37 774.141 321.558 770.424 325.473C766.707 329.387 761.789 331.344 755.669 331.344C749.449 331.344 744.518 329.36 740.876 325.394C737.235 321.427 735.414 316.265 735.414 309.908C735.414 303.341 737.273 298.113 740.99 294.225C744.707 290.337 749.6 288.393 755.669 288.393ZM748.614 319.523C746.996 317.263 746.186 314.059 746.186 309.908C746.186 305.705 746.996 302.474 748.614 300.215C750.232 297.955 752.559 296.826 755.593 296.826C758.729 296.826 761.119 297.955 762.762 300.215C764.406 302.474 765.228 305.705 765.228 309.908C765.228 313.953 764.431 317.132 762.838 319.444C761.245 321.755 758.855 322.911 755.669 322.911C752.584 322.911 750.232 321.782 748.614 319.523ZM458.767 317.196L425.354 331.527L377.216 310.88C375.962 310.339 374.526 310.953 374.006 312.239C373.485 313.527 374.074 315.008 375.326 315.543L424.409 336.595C424.711 336.726 425.032 336.79 425.354 336.79C425.675 336.79 425.997 336.726 426.299 336.595L460.657 321.859C461.909 321.324 462.5 319.843 461.977 318.555C461.455 317.266 460.016 316.658 458.767 317.196Z" fill="white"/>
</svg>
