<svg width="376" height="288" viewBox="0 0 376 288" fill="none" xmlns="http://www.w3.org/2000/svg">
<rect width="376" height="288" fill="#1A1A1C"/>
<path fill-rule="evenodd" clip-rule="evenodd" d="M226.61 162.537V133.28L232.91 130.607C233.602 130.313 234.054 129.623 234.054 128.857C234.054 128.091 233.602 127.4 232.91 127.107L188.244 108.146C187.786 107.951 187.27 107.951 186.811 108.146L142.145 127.107C141.452 127.4 141 128.091 141 128.857C141 129.623 141.452 130.313 142.145 130.607L186.811 149.567C187.04 149.665 187.283 149.713 187.527 149.713C187.771 149.713 188.015 149.665 188.244 149.567L222.888 134.861V162.537L215.639 177.305C215.35 177.893 215.38 178.591 215.721 179.15C216.061 179.709 216.659 180.049 217.305 180.049H232.193C232.839 180.049 233.436 179.707 233.777 179.148C234.118 178.589 234.148 177.891 233.859 177.303L226.61 162.537ZM187.527 160.931L212.866 150.175C213.813 149.771 214.904 150.228 215.3 151.195C215.697 152.162 215.248 153.273 214.299 153.675L188.244 164.735C188.015 164.833 187.771 164.881 187.527 164.881C187.283 164.881 187.04 164.833 186.811 164.735L149.589 148.935C148.64 148.533 148.193 147.422 148.588 146.455C148.982 145.49 150.071 145.029 151.022 145.435L187.527 160.931Z" fill="white"/>
</svg>
