<svg width="1140" height="619" viewBox="0 0 1140 619" fill="none" xmlns="http://www.w3.org/2000/svg">
<rect width="1140" height="619" fill="#1A1A1C"/>
<path fill-rule="evenodd" clip-rule="evenodd" d="M478.572 354.097C479.794 354.259 481.016 354.259 482.239 354.097C482.937 354.908 483.286 355.719 482.937 356.693C482.588 357.667 481.89 358.64 481.016 359.451C480.143 360.263 479.096 361.074 478.048 361.723C479.096 361.236 480.318 360.587 481.366 359.938C482.413 359.127 483.461 358.316 483.985 357.18C484.334 356.531 484.334 355.882 484.16 355.233C484.16 354.908 483.985 354.421 483.81 354.097C484.509 353.934 485.207 353.772 485.906 353.448C485.207 353.61 484.334 353.61 483.636 353.61C483.636 353.448 483.461 353.448 483.461 353.285C482.763 352.474 482.064 351.663 481.191 351.014C482.064 350.689 482.937 350.202 483.636 349.553C484.683 349.553 485.556 349.391 486.43 349.391C485.731 349.391 484.858 349.391 484.16 349.229C484.334 348.904 484.683 348.742 484.858 348.418C485.033 348.093 485.207 347.769 485.382 347.444C486.43 347.606 487.652 347.931 488.874 348.58C496.033 352.636 499.176 357.991 505.462 362.534C508.605 364.644 511.923 366.591 516.463 366.753C517.161 366.753 517.86 366.915 518.558 366.915C521.527 366.591 524.495 365.293 526.591 363.67C528.511 362.21 530.083 360.263 531.131 357.667C531.305 357.342 531.305 356.855 531.654 356.531C532.004 356.206 533.226 356.206 534.099 356.044C536.544 355.557 539.163 355.233 541.433 354.584C544.052 353.934 546.671 352.799 549.116 351.663C550.163 351.176 551.386 350.852 552.783 350.365C554.005 350.04 555.402 349.391 556.799 348.904C558.894 348.093 561.164 347.282 563.259 346.47C567.45 344.848 571.466 342.738 575.482 340.629C578.975 338.682 582.467 336.41 585.435 333.814H410.996C411.171 334.625 411.52 335.437 411.87 336.086C411.87 337.222 411.87 338.357 412.044 339.493C412.044 339.98 412.219 340.467 412.219 340.954C407.155 343.712 402.091 348.58 403.139 353.772C403.313 354.584 403.313 355.07 403.663 355.557C404.187 356.531 404.885 357.18 406.107 358.153C406.98 358.802 407.679 359.451 408.726 359.938C409.25 360.1 409.774 360.263 410.647 360.263C412.219 360.263 413.79 359.776 415.187 359.289C416.584 358.965 418.156 358.478 419.552 357.991C422.87 356.693 426.013 354.746 429.505 353.448C429.855 353.285 430.204 353.285 430.553 353.123C430.902 352.961 431.252 352.799 431.601 352.636C432.998 352.15 434.395 351.825 435.966 351.338C436.665 351.176 437.188 350.689 438.062 350.527C441.205 349.391 444.173 348.255 447.141 346.795C448.189 351.014 452.031 352.799 456.221 353.61C457.967 355.07 459.888 356.206 462.158 356.693C463.555 357.017 465.301 357.342 466.873 357.18C468.444 357.017 470.19 356.368 471.413 355.395C472.46 354.584 473.159 353.61 473.683 352.636C474.381 352.961 475.254 353.285 476.127 353.61C476.651 353.772 477.699 353.934 478.572 354.097ZM601.674 333.652C603.595 336.086 605.516 338.52 607.262 340.791C607.437 341.116 607.611 341.278 607.961 341.603C608.484 342.089 609.183 343.063 609.707 343.712C610.754 345.01 611.802 346.308 613.024 347.444C614.247 348.742 615.12 350.04 616.342 351.338C616.866 351.987 617.564 352.474 618.263 353.123C620.882 356.044 623.85 359.127 626.993 362.048C629.438 364.481 631.883 366.753 634.502 369.025C636.946 371.296 639.566 373.73 642.534 375.515C644.106 376.489 645.677 377.462 647.249 378.436C647.598 378.598 647.947 378.923 648.296 379.247C648.82 379.572 649.169 379.572 649.693 379.734C650.566 380.059 651.265 380.708 652.138 381.032C652.836 381.194 653.36 381.357 654.059 381.519C655.63 382.006 657.551 382.817 659.821 382.979C662.789 383.142 665.758 382.33 668.028 381.194C668.202 381.194 668.377 381.032 668.377 380.87C669.25 380.383 670.996 379.572 671.695 378.761C672.218 378.436 672.742 377.787 673.091 377.138C674.488 375.678 675.711 373.73 676.584 371.621C678.854 366.104 679.378 358.802 680.251 352.474C680.425 351.176 680.6 349.716 680.774 348.418C680.949 347.119 681.647 345.821 682.171 344.361C683.394 340.629 684.616 336.897 686.013 333.165H601.674V333.652ZM716.745 263.392L716.221 264.042C716.57 263.879 716.745 263.717 716.745 263.392ZM715.348 265.502C715.523 265.177 715.872 264.691 716.221 264.042C716.221 264.042 716.046 264.042 715.872 264.204C715.872 263.879 716.046 262.906 716.745 263.23C716.745 263.392 716.745 263.392 716.745 263.555C717.094 263.068 717.618 262.581 717.793 262.419C718.84 261.77 720.062 261.932 721.459 261.932C721.983 261.932 722.507 261.932 723.031 261.77C724.079 261.608 724.602 260.634 725.65 260.472C726.349 260.309 727.571 260.796 728.444 260.959C729.666 261.121 730.889 261.121 731.063 259.498C731.063 259.174 730.714 258.849 730.889 258.687C731.238 258.362 732.635 259.174 732.984 259.336C733.682 259.66 734.905 259.985 735.254 259.985C735.778 259.823 735.952 258.849 736.127 258.2C736.476 257.551 737 256.902 737 256.415C737 255.442 735.079 254.144 734.032 253.494C731.063 251.547 728.968 250.736 725.825 249.276C724.428 248.627 722.682 247.978 721.285 247.491C718.316 246.842 714.824 246.842 712.205 247.166C711.506 247.329 709.76 248.302 709.062 248.789C708.538 249.113 708.189 249.6 707.84 249.925C706.617 250.898 705.395 252.196 704.347 253.332C701.553 256.415 698.236 259.498 694.918 262.094C694.569 262.419 692.648 263.879 692.124 263.717C691.6 263.555 691.775 262.094 692.124 260.959C692.648 259.174 693.347 257.551 694.045 255.928C695.267 252.845 696.839 249.276 698.236 246.193C699.109 244.246 699.982 242.461 700.855 240.676C701.379 239.702 701.204 239.702 700.157 239.215C699.633 239.053 699.109 238.891 698.76 238.891C698.41 239.053 698.236 240.514 698.061 240.838C697.887 241.487 697.363 242.298 697.013 243.11C694.918 247.815 692.124 253.17 689.68 257.713C687.061 262.419 685.314 265.34 682.171 268.747C681.647 269.234 681.124 269.883 680.774 270.37C680.076 271.181 679.203 271.992 679.552 273.29C679.552 273.453 679.901 273.615 679.727 273.939C679.727 274.426 679.203 274.913 679.028 275.4C677.981 278.97 680.076 281.079 681.822 283.026C682.695 284 683.743 285.136 685.14 286.109C685.314 286.271 686.537 286.758 686.537 286.92C686.711 287.245 685.838 289.03 685.489 289.841C684.616 291.788 683.743 293.573 682.87 295.358H702.252C702.95 294.06 703.823 292.924 704.522 291.464C705.046 290.49 705.57 288.381 706.443 287.569C707.316 286.92 708.363 287.569 709.062 286.596C709.586 285.947 709.586 283.513 709.411 282.702C712.729 282.377 710.459 278.321 711.856 276.698C712.03 276.536 712.205 276.373 712.205 276.211C712.379 275.562 711.681 274.913 711.856 274.264C712.03 273.615 712.729 273.29 712.729 272.317C712.729 272.155 712.554 271.83 712.554 271.83C712.729 271.181 713.951 271.019 714.126 270.37C714.475 269.721 713.951 269.072 714.126 268.423C714.3 268.098 714.824 267.774 715.173 267.287C715.348 266.475 715.173 265.826 715.348 265.502ZM660.519 294.709C660.345 291.301 660.345 287.732 660.519 283.675C660.519 282.702 660.694 281.89 660.694 280.592C660.694 279.619 659.995 278.158 660.694 277.347C661.392 276.536 662.615 277.185 662.964 275.724C662.964 275.238 662.615 274.426 662.615 273.939C662.615 273.453 662.964 272.641 662.964 272.155C663.138 271.181 663.313 269.558 662.789 268.423C662.44 267.449 661.392 266.8 660.694 265.826C659.995 264.691 658.773 262.094 658.773 260.796C658.773 260.309 659.297 259.823 659.297 259.498C659.297 258.849 658.598 258.2 658.598 257.713C658.598 257.389 658.773 257.389 658.948 257.064C658.948 256.902 658.948 256.415 658.948 256.253C658.948 255.928 658.773 255.766 658.773 255.604C658.773 255.442 658.598 255.279 658.598 254.955C658.598 254.63 658.773 253.819 658.773 253.17C658.773 252.683 658.773 251.872 658.773 251.71C659.297 250.249 662.44 248.627 663.837 247.653C665.234 246.517 666.631 246.193 668.377 245.706C669.425 245.381 670.472 245.057 670.647 244.246C670.821 243.272 670.123 243.11 669.774 242.298C670.647 242.136 671.171 242.136 672.044 242.136C672.742 242.136 673.965 241.974 674.139 241.649C674.488 241.163 674.139 240.189 674.139 239.54C674.139 238.566 674.139 238.08 673.79 237.755C673.266 237.268 671.345 236.782 670.472 236.619C666.805 235.808 664.012 235.97 660.345 236.132C657.9 236.132 655.455 235.97 653.36 236.457C653.011 236.457 652.662 236.782 652.487 236.782C651.614 236.944 650.915 237.106 650.217 237.593C650.042 237.593 649.868 237.917 649.693 237.917C648.82 238.404 647.772 239.54 647.249 240.514C645.502 242.947 644.28 246.03 643.233 249.276C642.534 251.385 641.836 253.494 640.963 255.766C640.264 257.713 639.566 260.309 638.343 261.608C637.994 262.094 637.121 262.743 636.423 262.581C635.026 262.257 634.676 259.174 634.502 257.551C633.978 253.494 633.803 249.6 633.454 245.706L633.105 241.163C633.105 240.676 632.93 240.189 632.93 239.702C632.93 238.891 633.28 238.08 632.93 237.755C632.581 237.431 630.66 237.755 630.486 237.917C630.136 238.404 630.66 239.215 630.66 239.54C630.835 240.189 630.66 240.838 630.66 241.325C630.835 244.408 631.01 248.789 631.184 251.547C631.359 256.415 631.359 262.094 631.01 265.826C630.835 267.124 630.66 268.098 630.486 269.072C630.136 270.694 629.089 272.804 629.089 274.426C629.089 274.751 629.263 275.724 629.613 275.887C629.787 276.049 630.137 275.887 630.137 276.049C630.311 276.373 630.137 277.022 630.137 277.347C630.311 278.645 631.01 280.105 632.232 281.079C633.978 282.539 637.47 284.162 640.439 284.811C640.613 284.811 642.01 284.811 642.01 284.973C642.709 285.298 642.534 287.569 642.534 288.868C642.534 290.49 642.883 291.788 642.883 292.924C642.883 293.735 642.883 294.384 642.883 295.196H660.519V294.709ZM622.279 294.709C617.215 285.947 611.627 277.509 601.151 273.453C598.706 272.479 596.087 271.506 593.293 271.019C587.88 270.207 583.34 270.856 579.673 272.317C577.752 273.128 575.657 274.102 573.911 275.4C572.863 276.211 571.641 277.022 570.593 277.996C569.546 278.97 568.323 279.943 567.625 280.917C564.307 284.973 561.688 289.679 559.593 294.871H622.279V294.709ZM411.346 294.709H503.018C502.145 293.898 501.097 293.086 499.875 292.275C497.954 291.139 495.509 290.166 493.065 289.679C490.62 289.192 487.826 289.354 485.382 290.003C483.461 290.49 481.715 291.139 479.969 291.951C477.35 290.977 474.556 290.49 471.587 290.328C472.81 289.03 473.857 287.407 474.556 285.785C473.683 287.407 472.46 289.03 471.064 290.166C469.841 290.166 468.619 290.166 467.397 290.166C465.65 290.166 463.73 290.166 461.809 290.166C462.507 289.192 462.857 288.218 463.206 287.083C463.381 287.083 463.555 287.083 463.904 287.083C466.174 287.245 468.444 287.894 470.365 289.192C468.619 287.732 466.524 286.758 464.079 286.109C463.904 286.109 463.555 285.947 463.381 285.947C463.381 284.973 463.381 284.162 463.206 283.188C462.857 280.754 461.634 278.483 460.412 276.373C461.285 278.645 461.984 280.917 462.158 283.188C462.158 284 462.158 284.811 461.984 285.622C460.412 285.785 458.841 285.785 457.094 285.785C454.824 285.622 452.38 285.785 450.11 285.947C449.761 285.785 449.237 285.785 448.888 285.622C447.316 285.298 445.57 285.136 443.998 285.136C442.776 284.649 441.554 284.162 440.332 283.837C438.411 283.351 436.315 283.026 434.395 283.026C430.379 282.864 426.188 283.513 422.346 284.973C418.505 286.434 414.838 289.03 412.393 292.762C412.044 293.411 411.695 294.06 411.346 294.709Z" fill="white"/>
<path fill-rule="evenodd" clip-rule="evenodd" d="M419.378 314.801C419.378 314.964 418.505 315.126 416.584 315.126C416.584 314.801 416.584 314.152 416.933 313.179C417.108 312.205 417.632 310.907 417.981 309.447C418.156 309.447 418.505 311.231 419.378 314.801ZM416.933 302.145C416.06 303.605 415.362 305.066 414.663 306.364C413.965 307.662 413.267 309.284 412.568 310.745C411.695 313.503 411.171 314.964 410.822 315.126C409.25 315.288 408.552 315.613 408.552 316.099V316.262C409.425 317.397 409.949 318.209 409.949 318.533L409.076 323.077C409.076 323.401 409.076 323.726 409.25 324.05C409.25 324.212 409.425 324.537 409.774 324.537C409.949 324.699 410.473 324.861 410.822 324.861C411.346 325.024 412.044 325.024 412.917 325.186L413.441 325.024C413.616 324.861 413.79 324.375 414.14 323.401C414.489 322.59 414.838 321.292 415.187 319.669L420.076 319.345C420.251 319.345 420.251 319.345 420.251 319.345C420.251 319.345 420.251 319.345 420.426 319.345L421.299 322.59C421.648 324.537 422.172 325.511 423.045 325.511H423.569C424.442 325.186 425.14 324.861 425.664 324.699C426.188 324.537 426.537 324.375 426.886 324.375C427.236 324.212 427.41 324.212 427.41 324.05C427.585 323.888 427.585 323.726 427.585 323.563V323.401C426.886 320.967 426.188 318.209 425.14 315.126C424.267 312.043 423.045 308.798 421.823 305.066C421.124 302.632 420.6 301.334 420.076 301.334C417.981 301.658 416.759 301.983 416.933 302.145Z" fill="white"/>
<path fill-rule="evenodd" clip-rule="evenodd" d="M435.616 306.201H436.489C437.363 306.201 438.236 306.364 438.934 306.688C439.632 307.013 440.331 307.499 440.855 307.986C441.379 308.473 441.728 309.122 442.077 309.771C442.426 310.42 442.426 311.069 442.601 311.881V312.043C442.601 312.53 442.601 313.179 442.601 313.828C441.379 317.073 438.585 318.696 434.219 318.696V318.209C434.045 314.639 434.045 310.745 434.219 306.201C434.394 306.201 434.918 306.201 435.616 306.201ZM434.219 301.334C432.997 301.334 431.775 301.496 430.727 301.658C429.68 301.82 428.981 301.983 428.283 302.307C427.584 302.469 427.06 302.794 426.711 303.118C426.362 303.443 426.187 303.767 426.187 303.93C426.187 304.254 426.187 304.417 426.187 304.579C426.187 304.741 426.187 304.903 426.362 305.066V307.013C426.536 307.662 426.711 307.986 427.06 307.986C428.283 307.662 429.156 307.499 429.33 307.499H429.505C428.981 311.556 428.981 314.964 428.981 317.722V319.182C428.981 319.669 428.981 320.156 429.156 320.805C429.156 321.292 429.33 321.941 429.33 322.59C429.68 322.914 430.029 323.401 430.203 323.563C430.378 323.888 430.727 324.05 430.902 324.212C431.076 324.375 431.426 324.537 431.775 324.537C432.124 324.699 432.648 324.699 433.521 324.699H434.219C437.712 324.699 440.855 323.563 443.823 321.292C446.617 318.858 447.839 316.099 447.839 313.179V312.367C447.839 310.745 447.49 309.284 446.792 307.986C446.268 306.688 445.395 305.39 444.172 304.417C443.125 303.443 441.728 302.632 440.331 302.145C438.759 301.658 437.188 301.334 435.442 301.334H434.219Z" fill="white"/>
<path fill-rule="evenodd" clip-rule="evenodd" d="M464.08 301.563C462.159 301.563 460.937 301.725 460.937 302.212C460.238 302.374 459.889 306.918 459.889 315.68C458.667 317.302 457.445 318.114 456.397 318.114H455.524C454.301 317.789 453.778 316.491 453.603 314.382V313.733C453.603 312.759 453.603 311.299 453.778 309.352C453.952 307.567 454.127 305.133 454.476 302.374C454.476 301.888 453.952 301.563 452.905 301.563H452.555C451.857 301.563 451.333 301.725 450.809 301.888C449.587 301.888 448.888 302.212 448.539 302.699C447.666 306.593 447.142 310.325 447.317 313.733V314.706C447.492 318.114 448.015 320.548 449.238 322.17C450.285 323.793 451.857 324.766 453.603 324.766H453.778C455.873 324.766 458.143 323.955 460.413 322.17H460.588C460.588 323.793 461.111 324.766 461.81 324.766L465.128 323.955C465.651 323.955 465.826 323.468 466.001 322.332V318.6C466.001 316.978 466.001 314.868 466.001 312.272C466.001 309.514 466.001 306.269 466.001 302.212C466.001 301.725 465.651 301.401 465.128 301.401C464.778 301.238 464.254 301.401 464.08 301.563Z" fill="white"/>
<path fill-rule="evenodd" clip-rule="evenodd" d="M471.936 301.496H469.491C468.967 301.658 468.793 301.82 468.444 302.145C467.745 305.552 467.396 308.798 467.571 311.881V313.665C467.571 315.288 467.745 316.748 467.92 318.209C468.094 319.669 468.269 320.967 468.444 322.265C469.142 323.239 469.841 323.726 470.714 323.726C472.285 323.726 475.603 323.563 480.317 322.914C483.111 322.752 484.333 322.103 484.333 320.967L483.81 319.182V319.02L484.159 317.884C484.159 317.397 483.81 317.073 483.286 317.073C481.016 317.397 479.27 317.56 477.873 317.722C476.476 317.884 475.428 317.884 474.73 317.884H473.857C473.682 317.884 473.682 317.397 473.682 316.586C473.682 314.964 473.507 313.016 473.682 310.582V301.983C473.507 301.658 472.984 301.334 472.11 301.334H471.936V301.496Z" fill="white"/>
<path fill-rule="evenodd" clip-rule="evenodd" d="M493.763 301.658C490.969 301.82 487.826 302.145 483.984 302.469C482.937 302.469 482.413 302.956 482.238 304.092C482.413 304.741 482.413 305.066 482.413 305.066L482.238 306.85C482.238 307.337 482.587 307.662 483.111 307.824C483.286 307.824 483.81 307.824 484.857 307.662L489.572 307.337C489.397 309.771 489.223 312.043 489.048 313.828C489.048 315.775 489.048 317.235 489.048 318.696C489.223 322.265 489.572 324.05 490.096 324.05C491.144 324.05 492.017 324.212 492.715 324.375C494.81 324.375 495.858 323.888 495.858 322.914C495.509 320.48 495.509 318.533 495.509 317.235L495.334 314.314C495.334 313.179 495.334 312.043 495.334 310.907C495.334 309.609 495.334 308.311 495.334 306.85C496.382 306.85 497.43 306.85 498.303 306.688C499.176 306.688 499.874 306.526 500.573 306.364C501.097 306.201 501.62 306.039 501.97 305.552C502.319 305.228 502.493 304.741 502.319 304.254C502.319 303.93 502.319 303.605 502.144 303.281L502.493 302.469C502.493 301.983 501.795 301.496 500.573 301.334C498.827 301.334 496.557 301.496 493.763 301.658Z" fill="white"/>
<path fill-rule="evenodd" clip-rule="evenodd" d="M517.161 302.307C516.812 302.956 516.288 303.767 515.938 304.741C515.589 305.715 515.065 307.013 514.542 308.473C514.018 309.933 513.494 311.394 512.97 313.016C512.272 310.582 511.573 308.473 511.049 306.688C510.351 304.903 510.002 303.605 509.478 302.632C509.478 301.983 508.954 301.496 507.906 301.496H507.208L504.938 301.658L503.192 301.496C502.493 301.496 501.969 301.82 501.62 302.145C501.096 305.39 500.572 308.473 500.398 311.394C500.223 314.314 500.049 317.397 500.223 320.318V320.805C500.223 322.103 500.572 322.914 501.096 323.401C503.366 324.05 505.112 324.375 506.16 324.375C506.16 324.375 506.335 324.212 506.509 324.05L506.684 310.745C507.033 311.718 507.557 313.179 508.081 314.964L510.525 322.265C510.525 322.59 510.525 322.752 510.7 322.914C510.875 323.077 511.049 323.239 511.224 323.401C511.573 323.563 511.748 323.726 512.272 323.726C512.621 323.888 513.145 324.05 513.843 324.212C514.192 324.212 514.542 324.05 514.891 323.726C515.065 323.401 515.938 321.129 517.335 317.235C518.907 312.367 519.78 309.771 519.955 309.609V323.077C519.955 323.239 519.955 323.563 519.955 323.726C519.955 324.05 520.129 324.212 520.304 324.375C520.478 324.537 520.653 324.699 521.002 324.699H524.669C525.542 324.699 526.066 324.375 526.241 323.888C526.066 320.156 525.891 317.073 525.717 314.314C525.542 311.718 525.368 309.447 525.193 307.824C525.193 306.85 525.193 305.877 525.193 305.228C525.193 304.417 525.193 303.767 525.018 303.118C525.018 302.632 524.844 302.145 524.669 301.82C524.495 301.496 524.145 301.334 523.796 301.334H518.208C517.859 301.334 517.51 301.658 517.161 302.307Z" fill="white"/>
<path fill-rule="evenodd" clip-rule="evenodd" d="M534.099 301.334C533.051 301.334 532.178 301.334 531.305 301.496C530.432 301.496 529.559 301.658 528.86 301.658C528.162 301.82 527.464 301.983 527.114 302.145C526.591 302.307 526.416 302.632 526.416 302.794C526.591 303.281 526.765 303.767 526.765 304.254L526.94 305.39C526.94 305.715 527.114 305.877 527.114 306.039C527.114 306.201 527.289 306.201 527.464 306.201C528.162 306.364 528.511 306.364 528.511 306.364C528.337 309.609 527.987 312.367 527.987 314.477C527.813 316.586 527.813 318.371 527.813 319.669C527.813 321.454 528.162 322.428 528.511 322.914C528.861 323.077 529.21 323.239 529.559 323.239C529.908 323.401 530.083 323.563 530.257 323.563C531.829 323.563 533.75 323.563 535.67 323.401C537.591 323.239 539.861 323.077 542.131 322.914C543.877 322.752 544.75 322.265 544.75 321.616C544.75 321.292 544.576 320.967 544.576 320.805C544.576 320.643 544.576 320.48 544.576 320.318C544.576 320.156 544.576 319.831 544.925 319.182C544.576 318.533 544.052 318.209 543.179 318.209H542.655C541.782 318.209 540.56 318.209 538.988 318.371C537.417 318.533 535.496 318.696 533.051 319.02V314.152C533.051 314.152 533.226 313.99 533.575 313.99C533.924 313.99 534.448 313.99 534.972 313.828L536.893 313.665C537.591 313.665 538.115 313.665 538.813 313.503C539.337 313.503 539.861 313.341 540.21 313.341C540.56 313.341 540.734 313.179 540.734 313.016C540.909 313.016 541.083 312.205 541.433 310.258C541.433 309.933 541.258 309.771 541.258 309.609C541.083 309.771 541.083 309.609 540.909 309.609C540.734 309.447 540.385 309.447 540.036 309.284C539.687 309.284 539.163 309.122 538.464 309.122H537.242C536.544 309.122 536.02 309.122 535.321 309.122L533.226 309.284C533.4 307.824 533.4 306.85 533.575 306.201C535.67 306.039 537.242 305.877 538.464 305.877C539.861 305.877 540.734 305.715 541.607 305.552C542.48 305.39 542.83 305.39 543.179 305.228C543.528 305.066 543.528 304.741 543.528 304.416L543.179 302.794C543.004 302.307 543.004 301.983 542.83 301.82C542.83 301.658 542.306 301.496 541.258 301.496C540.21 301.334 538.464 301.334 536.369 301.334H534.099Z" fill="white"/>
<path fill-rule="evenodd" clip-rule="evenodd" d="M560.989 302.307C560.64 302.956 560.291 303.767 559.767 304.741C559.418 305.715 558.894 307.013 558.37 308.473C557.846 309.933 557.322 311.394 556.798 313.016H556.624C555.925 310.582 555.227 308.473 554.703 306.688C554.005 304.903 553.655 303.605 553.132 302.632C553.132 301.983 552.608 301.496 551.735 301.496H551.036L548.766 301.658L547.02 301.496C546.322 301.496 545.798 301.82 545.449 302.145C544.925 305.39 544.401 308.473 544.226 311.394C544.052 314.314 543.877 317.397 544.052 320.318V320.805C544.052 322.103 544.401 322.914 544.925 323.401C547.195 324.05 548.941 324.375 549.988 324.375C549.988 324.375 550.163 324.212 550.338 324.05L550.512 310.745C550.862 311.718 551.385 313.179 551.909 314.964L554.354 322.265C554.354 322.59 554.354 322.752 554.528 322.914C554.703 323.077 554.878 323.239 555.052 323.401C555.402 323.563 555.576 323.726 556.1 323.726C556.449 323.888 556.973 324.05 557.671 324.212C558.021 324.212 558.37 324.05 558.719 323.726C558.894 323.401 559.767 321.129 561.164 317.235C562.735 312.367 563.608 309.771 563.783 309.609V323.077C563.783 323.239 563.783 323.563 563.783 323.726C563.783 324.05 563.958 324.212 564.132 324.375C564.307 324.537 564.481 324.699 564.831 324.699H568.498C569.371 324.699 569.894 324.375 570.069 323.888C569.894 320.156 569.72 317.073 569.545 314.314C569.371 311.718 569.196 309.447 569.021 307.824C569.021 306.85 569.021 305.877 569.021 305.228C569.021 304.417 569.021 303.767 568.847 303.118C568.672 302.632 568.672 302.145 568.498 301.82C568.323 301.496 567.974 301.334 567.624 301.334H562.037C561.688 301.334 561.513 301.658 560.989 302.307Z" fill="white"/>
<path fill-rule="evenodd" clip-rule="evenodd" d="M578.102 314.639C578.102 314.477 578.626 314.477 579.499 314.477H580.372C582.293 314.639 583.34 315.288 583.34 316.262V316.748C583.34 317.397 582.991 317.884 582.293 318.371C581.594 318.858 580.372 319.02 578.626 319.02H578.102V314.639ZM579.324 306.039H580.023C581.419 306.201 582.293 306.85 582.293 307.824V308.311C582.293 308.635 582.118 308.96 581.943 309.122C581.769 309.447 581.419 309.609 581.07 309.771C580.721 309.933 580.197 310.096 579.848 310.258C579.324 310.42 578.8 310.42 578.276 310.42H578.102V306.201C578.451 306.201 578.8 306.039 579.324 306.039ZM578.8 301.496C572.514 302.307 569.546 303.443 569.546 304.903C569.546 305.066 569.72 305.715 570.07 306.688C570.07 306.85 570.07 307.175 569.895 307.499C569.895 307.824 570.07 308.149 570.593 308.473C570.943 308.473 571.641 308.311 572.689 307.824C572.689 309.933 572.514 311.881 572.514 313.665C572.514 315.45 572.514 317.235 572.514 318.858L572.689 321.779C572.863 323.077 573.213 323.726 573.736 323.726H574.26L574.435 323.888C574.435 324.537 575.832 324.861 578.451 324.861H580.197C581.594 324.861 582.991 324.699 584.039 324.05C585.261 323.563 586.134 322.914 587.007 322.103C587.706 321.292 588.404 320.48 588.753 319.669C589.102 318.858 589.277 317.884 589.277 317.073V316.748C589.277 314.801 588.055 313.179 585.959 311.556V311.394C587.531 310.42 588.229 308.96 588.229 307.175C588.229 306.201 587.88 305.39 587.356 304.579C586.832 303.93 586.309 303.281 585.436 302.794C584.563 302.307 583.864 301.983 582.816 301.658C581.943 301.334 580.896 301.334 579.848 301.334H578.8V301.496Z" fill="white"/>
<path fill-rule="evenodd" clip-rule="evenodd" d="M596.261 301.82C595.213 301.82 594.34 301.82 593.467 301.983C592.594 301.983 591.721 302.145 591.023 302.145C590.324 302.307 589.626 302.469 589.277 302.632C588.753 302.794 588.578 303.118 588.578 303.281C588.753 303.767 588.927 304.254 588.927 304.741L589.102 305.877C589.102 306.201 589.277 306.364 589.277 306.526C589.277 306.688 589.451 306.688 589.626 306.688C590.324 306.85 590.674 306.85 590.674 306.85C590.324 310.096 590.15 312.854 590.15 314.964C589.975 317.073 589.975 318.858 589.975 320.156C589.975 321.941 590.324 322.914 590.674 323.401C591.023 323.563 591.372 323.726 591.721 323.726C592.07 323.888 592.245 324.05 592.42 324.05C594.166 324.05 595.912 324.05 597.833 323.888C599.753 323.726 602.023 323.563 604.293 323.401C606.04 323.239 606.913 322.752 606.913 322.103C606.913 321.779 606.913 321.454 606.738 321.292C606.738 321.129 606.738 320.967 606.738 320.805C606.738 320.643 606.738 320.318 607.087 319.669C606.738 319.02 606.214 318.696 605.341 318.696H604.817C603.944 318.696 602.722 318.696 601.15 318.858C599.579 319.02 597.658 319.182 595.213 319.507V314.639C595.213 314.639 595.388 314.477 595.737 314.477C596.087 314.477 596.61 314.477 597.134 314.314L599.055 314.152C599.753 314.152 600.277 314.152 600.976 313.99C601.5 313.99 602.023 313.828 602.373 313.828C602.722 313.828 602.896 313.665 602.896 313.503C603.071 313.503 603.246 312.692 603.595 310.745C603.595 310.42 603.42 310.258 603.42 310.096C603.42 309.933 603.246 309.771 603.071 309.609C602.896 309.447 602.547 309.447 602.198 309.284C601.849 309.122 601.325 309.122 600.626 309.122H599.404C598.706 309.122 598.182 309.122 597.483 309.122L595.388 309.284C595.388 307.824 595.563 306.85 595.737 306.201C597.833 306.039 599.404 305.877 600.801 305.877C602.023 305.877 603.071 305.715 603.944 305.552C604.817 305.39 605.166 305.39 605.516 305.228C605.865 305.066 605.865 304.741 605.865 304.417L605.516 302.794C605.341 302.307 605.341 301.983 605.166 301.82C605.166 301.658 604.643 301.496 603.595 301.496C602.547 301.334 600.801 301.334 598.706 301.334H596.261V301.82Z" fill="white"/>
<path fill-rule="evenodd" clip-rule="evenodd" d="M616.343 306.85H617.041C618.089 307.013 618.613 307.662 618.787 308.798V309.122C618.787 310.258 617.39 311.069 614.596 311.718C614.596 311.394 614.596 310.745 614.596 309.933C614.596 309.122 614.596 308.149 614.596 307.013C615.12 306.85 615.644 306.85 616.343 306.85ZM615.644 301.334C614.946 301.334 614.422 301.334 613.723 301.334C613.199 301.334 612.501 301.496 611.977 301.496C607.786 302.145 605.691 302.956 605.691 303.93V304.092C606.04 305.39 606.215 306.364 606.215 306.688V307.499C606.215 307.824 606.564 307.986 607.088 308.149C607.786 307.986 608.31 307.824 608.66 307.824C608.31 312.53 608.136 316.099 608.31 318.533C608.31 319.02 608.31 319.669 608.31 320.318C608.31 321.129 608.485 321.779 608.485 322.428C608.66 323.077 608.834 323.726 609.009 324.212C609.358 324.699 609.533 324.861 610.056 324.861L611.977 324.699C612.501 324.699 613.025 324.537 613.374 324.375C613.723 324.212 613.898 324.05 614.247 323.888C614.422 323.726 614.422 323.401 614.422 322.914V316.424C614.771 316.586 615.469 317.073 616.168 318.046C621.057 322.914 624.026 325.673 625.248 326.322C626.121 326.322 626.645 325.673 626.819 324.212C627.692 323.239 628.216 322.265 628.216 321.779C628.216 321.454 627.692 320.805 626.47 319.669C624.549 318.046 622.978 316.748 621.93 315.937C620.882 315.126 620.184 314.477 620.009 314.314C623.502 312.53 625.073 310.258 625.073 307.662C625.073 306.688 624.724 305.715 624.2 304.903C623.676 304.092 622.978 303.443 622.105 302.956C621.232 302.469 620.359 301.983 619.311 301.658C618.263 301.334 617.216 301.334 616.168 301.334H615.644Z" fill="white"/>
<path fill-rule="evenodd" clip-rule="evenodd" d="M632.756 301.496C631.534 301.496 630.486 301.658 629.613 302.145C628.74 302.632 628.041 303.118 627.343 303.767C626.819 304.417 626.295 305.228 625.946 306.039C625.597 306.85 625.597 307.824 625.597 308.635V308.96C625.597 309.609 625.771 310.258 625.946 310.745C626.121 311.232 626.47 311.881 626.994 312.367C627.517 312.854 628.216 313.341 629.089 313.828C629.962 314.314 631.184 314.639 632.581 315.126C635.375 315.937 636.772 316.911 636.772 318.209V318.371C636.597 319.507 635.899 319.994 634.677 319.994H634.502C633.454 319.994 632.407 319.669 631.184 318.858C629.962 317.884 629.264 317.235 629.089 317.235C628.74 317.235 628.216 317.884 627.517 319.02C626.295 319.669 625.597 320.318 625.771 320.967C625.771 321.616 626.121 322.428 626.644 322.914C627.168 323.563 627.867 324.05 628.74 324.375C629.613 324.861 630.311 325.186 631.184 325.348C632.057 325.511 632.756 325.673 633.28 325.673H633.978C634.851 325.673 635.899 325.511 637.296 325.024C640.788 323.401 642.36 321.129 642.36 318.209V317.722C642.185 314.639 640.439 312.367 636.772 311.232C633.454 310.42 631.883 309.447 631.883 308.311C631.883 307.662 632.407 307.337 633.629 307.175H634.327C635.375 307.175 636.772 307.662 638.169 308.473C639.74 306.526 640.613 305.228 640.613 304.579V304.417C638.518 302.307 635.899 301.334 633.105 301.334H632.756V301.496Z" fill="white"/>
<path fill-rule="evenodd" clip-rule="evenodd" d="M647.249 301.82C644.63 302.145 643.408 302.469 643.408 302.632C642.884 307.013 642.709 312.043 643.058 317.722L643.233 322.428C643.233 323.888 643.582 324.699 644.106 324.699H646.027C646.201 324.699 646.376 324.699 646.551 324.699C646.725 324.699 646.9 324.699 647.249 324.699C648.122 324.699 648.646 324.537 648.995 324.375C649.344 324.05 649.519 323.726 649.519 322.914V315.45C649.519 313.99 649.519 312.205 649.519 309.933C649.519 307.824 649.519 305.228 649.519 302.145C649.344 301.658 649.17 301.334 648.821 301.334C648.122 301.334 647.773 301.496 647.249 301.82Z" fill="white"/>
<path fill-rule="evenodd" clip-rule="evenodd" d="M659.821 301.658C657.027 301.82 653.884 302.145 650.043 302.469C648.995 302.469 648.471 302.956 648.297 304.092C648.471 304.741 648.471 305.066 648.471 305.066L648.297 306.85C648.297 307.337 648.471 307.662 648.995 307.824C649.17 307.824 649.693 307.824 650.741 307.662L655.456 307.337C655.281 309.771 655.106 312.043 654.932 313.828C654.932 315.775 654.757 317.235 654.932 318.696C655.106 322.265 655.456 324.05 655.98 324.05C657.027 324.05 657.9 324.212 658.599 324.375C660.694 324.375 661.742 323.888 661.742 322.914C661.393 320.48 661.393 318.533 661.393 317.235L661.218 314.314C661.218 313.179 661.218 312.043 661.218 310.907C661.218 309.609 661.218 308.311 661.218 306.85C662.266 306.85 663.313 306.85 664.186 306.688C665.059 306.688 665.758 306.526 666.456 306.364C666.98 306.201 667.504 306.039 667.853 305.552C668.202 305.228 668.377 304.741 668.202 304.254C668.202 303.93 668.202 303.605 668.028 303.281L668.377 302.469C668.377 301.983 667.679 301.496 666.456 301.334C664.71 301.334 662.44 301.496 659.821 301.658Z" fill="white"/>
<path fill-rule="evenodd" clip-rule="evenodd" d="M673.266 301.82C672.218 301.82 671.345 301.82 670.472 301.983C669.599 301.983 668.726 302.145 668.028 302.145C667.329 302.307 666.631 302.469 666.282 302.632C665.758 302.794 665.583 303.118 665.583 303.281C665.758 303.767 665.932 304.254 665.932 304.741L666.107 305.877C666.107 306.201 666.282 306.364 666.282 306.526C666.282 306.688 666.456 306.688 666.631 306.688C667.329 306.85 667.678 306.85 667.678 306.85C667.504 310.096 667.155 312.854 667.155 314.964C666.98 317.073 666.98 318.858 667.155 320.156C667.155 321.941 667.329 322.914 667.853 323.401C668.202 323.563 668.552 323.726 668.901 323.726C669.25 323.888 669.425 324.05 669.599 324.05C671.171 324.05 673.091 324.05 675.012 323.888C676.933 323.726 679.203 323.563 681.473 323.401C683.219 323.239 684.092 322.752 684.092 322.103C684.092 321.779 683.918 321.454 683.918 321.292C683.918 321.129 683.918 320.967 683.918 320.805C683.918 320.643 683.918 320.318 684.267 319.669C683.918 319.02 683.394 318.696 682.521 318.696H681.997C681.124 318.696 679.901 318.696 678.33 318.858C676.758 319.02 674.838 319.182 672.393 319.507V314.639C672.393 314.639 672.568 314.477 672.917 314.477C673.266 314.477 673.79 314.477 674.314 314.314L676.235 314.152C676.933 314.152 677.457 314.152 678.155 313.99C678.679 313.99 679.203 313.828 679.552 313.828C679.901 313.828 680.076 313.665 680.076 313.503C680.251 313.503 680.425 312.692 680.774 310.745C680.774 310.42 680.6 310.258 680.6 310.096C680.425 309.933 680.425 309.771 680.251 309.609C680.076 309.447 679.727 309.447 679.378 309.284C679.028 309.284 678.504 309.122 677.806 309.122H676.584C675.885 309.122 675.361 309.122 674.663 309.122L672.568 309.284C672.742 307.824 672.742 306.85 672.917 306.201C675.012 306.039 676.584 305.877 677.981 305.877C679.378 305.877 680.251 305.715 681.124 305.552C681.822 305.39 682.346 305.39 682.695 305.228C683.044 305.066 683.044 304.741 683.044 304.417L682.695 302.794C682.521 302.307 682.521 301.983 682.346 301.82C682.346 301.658 681.822 301.496 680.774 301.496C679.727 301.334 677.981 301.334 675.885 301.334H673.266V301.82Z" fill="white"/>
<path fill-rule="evenodd" clip-rule="evenodd" d="M690.378 301.496C689.156 301.496 688.108 301.658 687.235 302.145C686.362 302.632 685.663 303.118 684.965 303.767C684.441 304.417 683.917 305.228 683.568 306.039C683.219 306.85 683.219 307.824 683.219 308.635V308.96C683.219 309.609 683.393 310.258 683.568 310.745C683.743 311.232 684.092 311.881 684.616 312.367C685.14 312.854 685.838 313.341 686.711 313.828C687.584 314.314 688.807 314.639 690.203 315.126C692.997 315.937 694.394 316.911 694.394 318.209V318.371C694.22 319.507 693.521 319.994 692.299 319.994H692.124C691.077 319.994 690.029 319.669 688.807 318.858C687.584 317.884 686.886 317.235 686.711 317.235C686.362 317.235 685.838 317.884 685.14 319.02C683.917 319.669 683.219 320.318 683.393 320.967C683.393 321.616 683.743 322.428 684.267 322.914C684.79 323.563 685.489 324.05 686.362 324.375C687.235 324.861 687.933 325.186 688.807 325.348C689.68 325.511 690.378 325.673 690.902 325.673H691.6C692.473 325.673 693.521 325.511 694.918 325.024C698.41 323.401 699.982 321.129 699.982 318.209V317.722C699.807 314.639 698.061 312.367 694.394 311.232C691.076 310.42 689.505 309.447 689.505 308.311C689.505 307.662 690.029 307.337 691.426 307.175H692.124C693.346 307.175 694.569 307.662 695.966 308.473C697.537 306.526 698.41 305.228 698.41 304.579V304.417C696.315 302.307 693.696 301.334 690.902 301.334H690.378V301.496Z" fill="white"/>
</svg>
