<svg width="75" height="75" viewBox="0 0 75 75" fill="none" xmlns="http://www.w3.org/2000/svg">
<g filter="url(#filter0_dd_442_42170)">
<path fill-rule="evenodd" clip-rule="evenodd" d="M45.2193 8C50.3392 8 52.8986 8 55.6547 8.87125C58.6637 9.96648 61.0335 12.3363 62.1287 15.3453C63 18.101 63 20.6612 63 25.7807V41.2193C63 46.3393 63 48.8986 62.1287 51.6547C61.0335 54.6637 58.6637 57.0335 55.6547 58.1283C52.8986 59 50.3392 59 45.2193 59H29.7807C24.6608 59 22.101 59 19.3453 58.1283C16.3363 57.0335 13.9665 54.6637 12.8712 51.6547C12 48.8986 12 46.3393 12 41.2193V25.7807C12 20.6612 12 18.101 12.8712 15.3453C13.9665 12.3363 16.3363 9.96648 19.3453 8.87125C22.101 8 24.6608 8 29.7807 8H45.2193Z" fill="#1A1A1C"/>
</g>
<path fill-rule="evenodd" clip-rule="evenodd" d="M25.6327 39.3021C25.7914 39.3232 25.95 39.3232 26.1087 39.3021C26.1993 39.4077 26.2446 39.5132 26.1993 39.6399C26.154 39.7666 26.0633 39.8932 25.95 39.9988C25.8367 40.1043 25.7007 40.2099 25.5647 40.2943C25.7007 40.231 25.8594 40.1465 25.9953 40.0621C26.1313 39.9566 26.2673 39.851 26.3353 39.7032C26.3806 39.6188 26.3806 39.5343 26.3579 39.4499C26.3579 39.4077 26.3353 39.3443 26.3126 39.3021C26.4033 39.281 26.4939 39.2599 26.5846 39.2177C26.4939 39.2388 26.3806 39.2388 26.29 39.2388C26.29 39.2177 26.2673 39.2177 26.2673 39.1966C26.1766 39.091 26.086 38.9855 25.9727 38.901C26.086 38.8588 26.1993 38.7955 26.29 38.711C26.4259 38.711 26.5393 38.6899 26.6526 38.6899C26.5619 38.6899 26.4486 38.6899 26.3579 38.6688C26.3806 38.6266 26.4259 38.6055 26.4486 38.5633C26.4713 38.521 26.4939 38.4788 26.5166 38.4366C26.6526 38.4577 26.8112 38.4999 26.9699 38.5844C27.899 39.1121 28.307 39.8088 29.1229 40.3999C29.5308 40.6743 29.9614 40.9276 30.5506 40.9488C30.6413 40.9488 30.7319 40.9699 30.8226 40.9699C31.2079 40.9276 31.5931 40.7588 31.8651 40.5477C32.1144 40.3577 32.3184 40.1043 32.4543 39.7666C32.477 39.7243 32.477 39.661 32.5223 39.6188C32.5677 39.5766 32.7263 39.5766 32.8396 39.5555C33.1569 39.4921 33.4968 39.4499 33.7915 39.3655C34.1314 39.281 34.4714 39.1332 34.7886 38.9855C34.9246 38.9221 35.0833 38.8799 35.2646 38.8166C35.4232 38.7744 35.6045 38.6899 35.7858 38.6266C36.0578 38.521 36.3524 38.4155 36.6244 38.3099C37.1683 38.0988 37.6895 37.8244 38.2108 37.5499C38.664 37.2966 39.1173 37.0011 39.5026 36.6633H16.8621C16.8847 36.7689 16.9301 36.8744 16.9754 36.9589C16.9754 37.1066 16.9754 37.2544 16.9981 37.4022C16.9981 37.4655 17.0207 37.5288 17.0207 37.5922C16.3635 37.9511 15.7063 38.5844 15.8422 39.2599C15.8649 39.3655 15.8649 39.4288 15.9102 39.4921C15.9782 39.6188 16.0689 39.7032 16.2275 39.8299C16.3408 39.9143 16.4315 39.9988 16.5675 40.0621C16.6354 40.0832 16.7034 40.1043 16.8168 40.1043C17.0207 40.1043 17.2247 40.041 17.406 39.9777C17.5873 39.9354 17.7913 39.8721 17.9726 39.8088C18.4032 39.6399 18.8111 39.3866 19.2644 39.2177C19.3097 39.1966 19.355 39.1966 19.4004 39.1755C19.4457 39.1544 19.491 39.1332 19.5363 39.1121C19.7176 39.0488 19.8989 39.0066 20.1029 38.9432C20.1936 38.9221 20.2616 38.8588 20.3749 38.8377C20.7828 38.6899 21.1681 38.5421 21.5534 38.3522C21.6893 38.901 22.1879 39.1332 22.7318 39.2388C22.9585 39.4288 23.2078 39.5766 23.5024 39.6399C23.6837 39.6821 23.9103 39.7243 24.1143 39.7032C24.3183 39.6821 24.5449 39.5977 24.7035 39.471C24.8395 39.3655 24.9302 39.2388 24.9982 39.1121C25.0888 39.1544 25.2021 39.1966 25.3154 39.2388C25.3834 39.2599 25.5194 39.281 25.6327 39.3021ZM41.6103 36.6422C41.8596 36.9589 42.1089 37.2755 42.3355 37.5711C42.3581 37.6133 42.3808 37.6344 42.4261 37.6766C42.4941 37.7399 42.5848 37.8666 42.6528 37.951C42.7887 38.1199 42.9247 38.2888 43.0834 38.4366C43.242 38.6055 43.3553 38.7744 43.514 38.9432C43.582 39.0277 43.6726 39.091 43.7633 39.1755C44.1032 39.5555 44.4885 39.9566 44.8964 40.3365C45.2137 40.6532 45.531 40.9488 45.8709 41.2443C46.1882 41.5398 46.5282 41.8565 46.9134 42.0887C47.1174 42.2154 47.3214 42.3421 47.5253 42.4687C47.5707 42.4898 47.616 42.532 47.6613 42.5743C47.7293 42.6165 47.7746 42.6165 47.8426 42.6376C47.9559 42.6798 48.0466 42.7643 48.1599 42.8065C48.2506 42.8276 48.3186 42.8487 48.4092 42.8698C48.6132 42.9331 48.8625 43.0387 49.1571 43.0598C49.5424 43.0809 49.9276 42.9754 50.2223 42.8276C50.2449 42.8276 50.2676 42.8065 50.2676 42.7854C50.3809 42.722 50.6075 42.6165 50.6982 42.5109C50.7662 42.4687 50.8342 42.3843 50.8795 42.2998C51.0608 42.1098 51.2194 41.8565 51.3328 41.5821C51.6274 40.8643 51.6954 39.9143 51.8087 39.091C51.8314 38.9221 51.854 38.7321 51.8767 38.5633C51.8993 38.3944 51.99 38.2255 52.058 38.0355C52.2166 37.5499 52.3753 37.0644 52.5566 36.5789H41.6103V36.6422ZM56.5453 27.5013L56.4773 27.5858C56.5226 27.5646 56.5453 27.5435 56.5453 27.5013ZM56.364 27.7758C56.3866 27.7335 56.432 27.6702 56.4773 27.5858C56.4773 27.5858 56.4546 27.5858 56.432 27.6069C56.432 27.5646 56.4546 27.438 56.5453 27.4802C56.5453 27.5013 56.5453 27.5013 56.5453 27.5224C56.5906 27.4591 56.6586 27.3958 56.6813 27.3747C56.8172 27.2902 56.9759 27.3113 57.1572 27.3113C57.2252 27.3113 57.2932 27.3113 57.3612 27.2902C57.4971 27.2691 57.5651 27.1424 57.7011 27.1213C57.7918 27.1002 57.9504 27.1635 58.0637 27.1847C58.2224 27.2058 58.381 27.2058 58.4037 26.9947C58.4037 26.9524 58.3583 26.9102 58.381 26.8891C58.4263 26.8469 58.6076 26.9524 58.653 26.9735C58.7436 27.0158 58.9023 27.058 58.9476 27.058C59.0156 27.0369 59.0382 26.9102 59.0609 26.8258C59.1062 26.7413 59.1742 26.6569 59.1742 26.5936C59.1742 26.4669 58.9249 26.298 58.7889 26.2136C58.4037 25.9602 58.1317 25.8547 57.7238 25.6647C57.5425 25.5803 57.3158 25.4958 57.1345 25.4325C56.7493 25.348 56.296 25.348 55.9561 25.3903C55.8654 25.4114 55.6388 25.538 55.5481 25.6014C55.4801 25.6436 55.4348 25.7069 55.3895 25.7491C55.2308 25.8758 55.0722 26.0447 54.9362 26.1925C54.5736 26.5936 54.143 26.9947 53.7124 27.3324C53.6671 27.3747 53.4178 27.5646 53.3498 27.5435C53.2818 27.5224 53.3045 27.3324 53.3498 27.1847C53.4178 26.9524 53.5084 26.7413 53.5991 26.5302C53.7577 26.1291 53.9617 25.6647 54.143 25.2636C54.2563 25.0103 54.3696 24.778 54.4829 24.5458C54.5509 24.4192 54.5283 24.4192 54.3923 24.3558C54.3243 24.3347 54.2563 24.3136 54.211 24.3136C54.1657 24.3347 54.143 24.5247 54.1203 24.5669C54.0977 24.6514 54.0297 24.7569 53.9843 24.8625C53.7124 25.4747 53.3498 26.1713 53.0325 26.7624C52.6926 27.3747 52.4659 27.7546 52.058 28.198C51.99 28.2613 51.922 28.3457 51.8767 28.4091C51.786 28.5146 51.6727 28.6202 51.718 28.7891C51.718 28.8102 51.7634 28.8313 51.7407 28.8735C51.7407 28.9368 51.6727 29.0002 51.65 29.0635C51.5141 29.5279 51.786 29.8024 52.0127 30.0557C52.126 30.1824 52.262 30.3301 52.4433 30.4568C52.4659 30.4779 52.6246 30.5412 52.6246 30.5623C52.6472 30.6046 52.5339 30.8368 52.4886 30.9423C52.3753 31.1957 52.262 31.4279 52.1486 31.6601H54.6642C54.7549 31.4912 54.8682 31.3434 54.9589 31.1534C55.0269 31.0268 55.0948 30.7523 55.2082 30.6468C55.3215 30.5623 55.4575 30.6468 55.5481 30.5201C55.6161 30.4357 55.6161 30.119 55.5934 30.0135C56.024 29.9713 55.7294 29.4435 55.9107 29.2324C55.9334 29.2113 55.9561 29.1902 55.9561 29.169C55.9787 29.0846 55.8881 29.0002 55.9107 28.9157C55.9334 28.8313 56.024 28.7891 56.024 28.6624C56.024 28.6413 56.0014 28.5991 56.0014 28.5991C56.024 28.5146 56.1827 28.4935 56.2053 28.4091C56.2507 28.3246 56.1827 28.2402 56.2053 28.1557C56.228 28.1135 56.296 28.0713 56.3413 28.008C56.364 27.9024 56.3413 27.818 56.364 27.7758ZM49.2477 31.5757C49.2251 31.1323 49.2251 30.6679 49.2477 30.1401C49.2477 30.0135 49.2704 29.9079 49.2704 29.739C49.2704 29.6124 49.1798 29.4224 49.2704 29.3168C49.3611 29.2113 49.5197 29.2957 49.565 29.1057C49.565 29.0424 49.5197 28.9368 49.5197 28.8735C49.5197 28.8102 49.565 28.7046 49.565 28.6413C49.5877 28.5146 49.6104 28.3035 49.5424 28.1557C49.497 28.0291 49.3611 27.9446 49.2704 27.818C49.1798 27.6702 49.0211 27.3324 49.0211 27.1635C49.0211 27.1002 49.0891 27.0369 49.0891 26.9947C49.0891 26.9102 48.9985 26.8258 48.9985 26.7624C48.9985 26.7202 49.0211 26.7202 49.0438 26.678C49.0438 26.6569 49.0438 26.5936 49.0438 26.5724C49.0438 26.5302 49.0211 26.5091 49.0211 26.488C49.0211 26.4669 48.9985 26.4458 48.9985 26.4036C48.9985 26.3613 49.0211 26.2558 49.0211 26.1713C49.0211 26.108 49.0211 26.0025 49.0211 25.9814C49.0891 25.7914 49.497 25.5803 49.6783 25.4536C49.8597 25.3058 50.041 25.2636 50.2676 25.2003C50.4036 25.158 50.5396 25.1158 50.5622 25.0103C50.5849 24.8836 50.4942 24.8625 50.4489 24.7569C50.5622 24.7358 50.6302 24.7358 50.7435 24.7358C50.8342 24.7358 50.9928 24.7147 51.0155 24.6725C51.0608 24.6092 51.0155 24.4825 51.0155 24.3981C51.0155 24.2714 51.0155 24.2081 50.9702 24.1658C50.9022 24.1025 50.6529 24.0392 50.5396 24.0181C50.0636 23.9125 49.701 23.9336 49.2251 23.9547C48.9078 23.9547 48.5905 23.9336 48.3186 23.997C48.2732 23.997 48.2279 24.0392 48.2052 24.0392C48.0919 24.0603 48.0013 24.0814 47.9106 24.1447C47.888 24.1447 47.8653 24.187 47.8426 24.187C47.7293 24.2503 47.5933 24.3981 47.5253 24.5247C47.2987 24.8414 47.1401 25.2425 47.0041 25.6647C46.9134 25.9391 46.8228 26.2136 46.7095 26.5091C46.6188 26.7624 46.5282 27.1002 46.3695 27.2691C46.3242 27.3324 46.2109 27.4169 46.1202 27.3958C45.9389 27.3535 45.8936 26.9524 45.8709 26.7413C45.8029 26.2136 45.7803 25.7069 45.735 25.2003L45.6896 24.6092C45.6896 24.5458 45.667 24.4825 45.667 24.4192C45.667 24.3136 45.7123 24.2081 45.667 24.1658C45.6216 24.1236 45.3723 24.1658 45.3497 24.187C45.3044 24.2503 45.3723 24.3558 45.3723 24.3981C45.395 24.4825 45.3723 24.5669 45.3723 24.6303C45.395 25.0314 45.4177 25.6014 45.4403 25.9602C45.463 26.5936 45.463 27.3324 45.4177 27.818C45.395 27.9869 45.3723 28.1135 45.3497 28.2402C45.3044 28.4513 45.1684 28.7257 45.1684 28.9368C45.1684 28.9791 45.191 29.1057 45.2364 29.1268C45.259 29.1479 45.3044 29.1268 45.3044 29.1479C45.327 29.1902 45.3044 29.2746 45.3044 29.3168C45.327 29.4857 45.4177 29.6757 45.5763 29.8024C45.8029 29.9924 46.2562 30.2035 46.6415 30.2879C46.6641 30.2879 46.8455 30.2879 46.8455 30.309C46.9361 30.3512 46.9134 30.6468 46.9134 30.8157C46.9134 31.0268 46.9588 31.1957 46.9588 31.3434C46.9588 31.449 46.9588 31.5334 46.9588 31.639H49.2477V31.5757ZM44.2845 31.5757C43.6273 30.4357 42.9021 29.3379 41.5423 28.8102C41.225 28.6835 40.885 28.5568 40.5224 28.4935C39.8199 28.388 39.2306 28.4724 38.7547 28.6624C38.5054 28.7679 38.2334 28.8946 38.0068 29.0635C37.8708 29.1691 37.7122 29.2746 37.5762 29.4013C37.4402 29.5279 37.2816 29.6546 37.1909 29.7813C36.7603 30.309 36.4204 30.9212 36.1484 31.5968H44.2845V31.5757ZM16.9074 31.5757H28.8056C28.6923 31.4701 28.5563 31.3645 28.3976 31.259C28.1483 31.1112 27.8311 30.9846 27.5138 30.9212C27.1965 30.8579 26.8339 30.879 26.5166 30.9634C26.2673 31.0268 26.0407 31.1112 25.814 31.2168C25.4741 31.0901 25.1115 31.0268 24.7262 31.0057C24.8848 30.8368 25.0208 30.6257 25.1115 30.4146C24.9982 30.6257 24.8395 30.8368 24.6582 30.9846C24.4996 30.9846 24.3409 30.9846 24.1823 30.9846C23.9557 30.9846 23.7064 30.9846 23.4571 30.9846C23.5477 30.8579 23.593 30.7312 23.6384 30.5835C23.661 30.5835 23.6837 30.5835 23.729 30.5835C24.0236 30.6046 24.3183 30.689 24.5676 30.8579C24.3409 30.6679 24.069 30.5412 23.7517 30.4568C23.729 30.4568 23.6837 30.4357 23.661 30.4357C23.661 30.309 23.661 30.2035 23.6384 30.0768C23.593 29.7601 23.4344 29.4646 23.2758 29.1902C23.3891 29.4857 23.4797 29.7813 23.5024 30.0768C23.5024 30.1824 23.5024 30.2879 23.4797 30.3935C23.2758 30.4146 23.0718 30.4146 22.8452 30.4146C22.5505 30.3935 22.2333 30.4146 21.9386 30.4357C21.8933 30.4146 21.8253 30.4146 21.78 30.3935C21.576 30.3512 21.3494 30.3301 21.1454 30.3301C20.9868 30.2668 20.8281 30.2035 20.6695 30.1612C20.4202 30.0979 20.1482 30.0557 19.8989 30.0557C19.3777 30.0346 18.8338 30.119 18.3352 30.309C17.8366 30.499 17.3607 30.8368 17.0434 31.3223C16.9981 31.4068 16.9527 31.4912 16.9074 31.5757Z" fill="white"/>
<path fill-rule="evenodd" clip-rule="evenodd" d="M17.9499 34.1897C17.9499 34.2108 17.8366 34.2319 17.5873 34.2319C17.5873 34.1897 17.5873 34.1053 17.6326 33.9786C17.6553 33.8519 17.7233 33.6831 17.7686 33.4931C17.7913 33.4931 17.8366 33.7253 17.9499 34.1897ZM17.6326 32.5431C17.5193 32.7331 17.4287 32.9231 17.338 33.092C17.2474 33.2608 17.1567 33.4719 17.0661 33.6619C16.9527 34.0208 16.8848 34.2108 16.8394 34.2319C16.6355 34.253 16.5448 34.2953 16.5448 34.3586V34.3797C16.6581 34.5275 16.7261 34.633 16.7261 34.6752L16.6128 35.2663C16.6128 35.3086 16.6128 35.3508 16.6355 35.393C16.6355 35.4141 16.6581 35.4563 16.7034 35.4563C16.7261 35.4774 16.7941 35.4986 16.8394 35.4986C16.9074 35.5197 16.9981 35.5197 17.1114 35.5408L17.1794 35.5197C17.202 35.4986 17.2247 35.4352 17.27 35.3086C17.3154 35.203 17.3607 35.0341 17.406 34.823L18.0406 34.7808C18.0632 34.7808 18.0632 34.7808 18.0632 34.7808C18.0632 34.7808 18.0632 34.7808 18.0859 34.7808L18.1992 35.203C18.2445 35.4563 18.3125 35.583 18.4258 35.583H18.4938C18.6072 35.5408 18.6978 35.4986 18.7658 35.4774C18.8338 35.4563 18.8791 35.4352 18.9244 35.4352C18.9698 35.4141 18.9924 35.4141 18.9924 35.393C19.0151 35.3719 19.0151 35.3508 19.0151 35.3297V35.3086C18.9244 34.9919 18.8338 34.633 18.6978 34.2319C18.5845 33.8308 18.4258 33.4086 18.2672 32.9231C18.1766 32.6064 18.1086 32.4375 18.0406 32.4375C17.7686 32.4797 17.61 32.522 17.6326 32.5431Z" fill="white"/>
<path fill-rule="evenodd" clip-rule="evenodd" d="M20.0575 33.0708H20.1708C20.2841 33.0708 20.3975 33.092 20.4881 33.1342C20.5788 33.1764 20.6694 33.2397 20.7374 33.3031C20.8054 33.3664 20.8507 33.4508 20.896 33.5353C20.9414 33.6197 20.9414 33.7042 20.964 33.8097V33.8308C20.964 33.8942 20.964 33.9786 20.964 34.063C20.8054 34.4853 20.4428 34.6964 19.8762 34.6964V34.633C19.8535 34.1686 19.8535 33.6619 19.8762 33.0708C19.8989 33.0708 19.9669 33.0708 20.0575 33.0708ZM19.8762 32.4375C19.7176 32.4375 19.5589 32.4586 19.4229 32.4797C19.287 32.5009 19.1963 32.522 19.1057 32.5642C19.015 32.5853 18.947 32.6275 18.9017 32.6697C18.8564 32.712 18.8337 32.7542 18.8337 32.7753C18.8337 32.8175 18.8337 32.8386 18.8337 32.8597C18.8337 32.8808 18.8337 32.902 18.8564 32.9231V33.1764C18.879 33.2608 18.9017 33.3031 18.947 33.3031C19.1057 33.2608 19.219 33.2397 19.2416 33.2397H19.2643C19.1963 33.7675 19.1963 34.2108 19.1963 34.5697V34.7597C19.1963 34.823 19.1963 34.8864 19.219 34.9708C19.219 35.0341 19.2416 35.1186 19.2416 35.203C19.287 35.2452 19.3323 35.3086 19.355 35.3297C19.3776 35.3719 19.4229 35.393 19.4456 35.4141C19.4683 35.4352 19.5136 35.4563 19.5589 35.4563C19.6042 35.4774 19.6722 35.4775 19.7856 35.4775H19.8762C20.3295 35.4775 20.7374 35.3297 21.1227 35.0341C21.4853 34.7175 21.6439 34.3586 21.6439 33.9786V33.873C21.6439 33.6619 21.5986 33.4719 21.508 33.3031C21.44 33.1342 21.3267 32.9653 21.168 32.8386C21.032 32.712 20.8507 32.6064 20.6694 32.5431C20.4655 32.4797 20.2615 32.4375 20.0349 32.4375H19.8762Z" fill="white"/>
<path fill-rule="evenodd" clip-rule="evenodd" d="M23.7518 32.4674C23.5025 32.4674 23.3439 32.4885 23.3439 32.5518C23.2532 32.5729 23.2079 33.164 23.2079 34.304C23.0492 34.5151 22.8906 34.6207 22.7546 34.6207H22.6413C22.4827 34.5784 22.4147 34.4096 22.392 34.1351V34.0507C22.392 33.924 22.392 33.734 22.4147 33.4807C22.4373 33.2485 22.46 32.9318 22.5053 32.5729C22.5053 32.5096 22.4373 32.4674 22.3014 32.4674H22.256C22.1654 32.4674 22.0974 32.4885 22.0294 32.5096C21.8708 32.5096 21.7801 32.5518 21.7348 32.6152C21.6215 33.1218 21.5535 33.6074 21.5761 34.0507V34.1773C21.5988 34.6207 21.6668 34.9373 21.8254 35.1484C21.9614 35.3595 22.1654 35.4862 22.392 35.4862H22.4147C22.6866 35.4862 22.9813 35.3806 23.2759 35.1484H23.2985C23.2985 35.3595 23.3665 35.4862 23.4572 35.4862L23.8878 35.3806C23.9558 35.3806 23.9784 35.3173 24.0011 35.1695V34.684C24.0011 34.4729 24.0011 34.1984 24.0011 33.8607C24.0011 33.5018 24.0011 33.0796 24.0011 32.5518C24.0011 32.4885 23.9558 32.4463 23.8878 32.4463C23.8425 32.4252 23.7745 32.4463 23.7518 32.4674Z" fill="white"/>
<path fill-rule="evenodd" clip-rule="evenodd" d="M24.7714 32.4586H24.4542C24.3862 32.4797 24.3635 32.5009 24.3182 32.5431C24.2275 32.9864 24.1822 33.4086 24.2049 33.8097V34.0419C24.2049 34.253 24.2275 34.443 24.2502 34.633C24.2728 34.823 24.2955 34.9919 24.3182 35.1608C24.4088 35.2875 24.4995 35.3508 24.6128 35.3508C24.8168 35.3508 25.2474 35.3297 25.8593 35.2452C26.2219 35.2241 26.3805 35.1397 26.3805 34.9919L26.3125 34.7597V34.7386L26.3579 34.5908C26.3579 34.5275 26.3125 34.4853 26.2445 34.4853C25.9499 34.5275 25.7233 34.5486 25.542 34.5697C25.3607 34.5908 25.2247 34.5908 25.134 34.5908H25.0207C24.9981 34.5908 24.9981 34.5275 24.9981 34.4219C24.9981 34.2108 24.9754 33.9575 24.9981 33.6408V32.522C24.9754 32.4797 24.9074 32.4375 24.7941 32.4375H24.7714V32.4586Z" fill="white"/>
<path fill-rule="evenodd" clip-rule="evenodd" d="M27.6044 32.4797C27.2417 32.5009 26.8338 32.5431 26.3352 32.5853C26.1992 32.5853 26.1312 32.6486 26.1086 32.7964C26.1312 32.8808 26.1312 32.9231 26.1312 32.9231L26.1086 33.1553C26.1086 33.2186 26.1539 33.2608 26.2219 33.2819C26.2446 33.2819 26.3126 33.2819 26.4485 33.2608L27.0604 33.2186C27.0378 33.5353 27.0151 33.8308 26.9924 34.063C26.9924 34.3164 26.9924 34.5064 26.9924 34.6964C27.0151 35.1608 27.0604 35.393 27.1284 35.393C27.2644 35.393 27.3777 35.4141 27.4684 35.4352C27.7403 35.4352 27.8763 35.3719 27.8763 35.2452C27.831 34.9286 27.831 34.6752 27.831 34.5064L27.8083 34.1264C27.8083 33.9786 27.8083 33.8308 27.8083 33.6831C27.8083 33.5142 27.8083 33.3453 27.8083 33.1553C27.9443 33.1553 28.0803 33.1553 28.1936 33.1342C28.3069 33.1342 28.3976 33.1131 28.4882 33.092C28.5562 33.0708 28.6242 33.0497 28.6695 32.9864C28.7148 32.9442 28.7375 32.8808 28.7148 32.8175C28.7148 32.7753 28.7148 32.7331 28.6922 32.6909L28.7375 32.5853C28.7375 32.522 28.6469 32.4586 28.4882 32.4375C28.2616 32.4375 27.967 32.4586 27.6044 32.4797Z" fill="white"/>
<path fill-rule="evenodd" clip-rule="evenodd" d="M30.6412 32.5642C30.5959 32.6486 30.5279 32.7542 30.4825 32.8808C30.4372 33.0075 30.3692 33.1764 30.3012 33.3664C30.2333 33.5564 30.1653 33.7464 30.0973 33.9575C30.0066 33.6408 29.916 33.3664 29.848 33.1342C29.7573 32.902 29.712 32.7331 29.644 32.6064C29.644 32.522 29.576 32.4586 29.44 32.4586H29.3494L29.0548 32.4797L28.8281 32.4586C28.7375 32.4586 28.6695 32.5009 28.6242 32.5431C28.5562 32.9653 28.4882 33.3664 28.4655 33.7464C28.4429 34.1264 28.4202 34.5275 28.4429 34.9075V34.9708C28.4429 35.1397 28.4882 35.2452 28.5562 35.3086C28.8508 35.393 29.0774 35.4352 29.2134 35.4352C29.2134 35.4352 29.2361 35.4141 29.2587 35.393L29.2814 33.6619C29.3267 33.7886 29.3947 33.9786 29.4627 34.2108L29.78 35.1608C29.78 35.203 29.78 35.2241 29.8027 35.2452C29.8253 35.2663 29.848 35.2875 29.8706 35.3086C29.916 35.3297 29.9386 35.3508 30.0066 35.3508C30.0519 35.3719 30.1199 35.393 30.2106 35.4141C30.2559 35.4141 30.3012 35.393 30.3466 35.3508C30.3692 35.3086 30.4825 35.013 30.6639 34.5064C30.8678 33.873 30.9811 33.5353 31.0038 33.5142V35.2663C31.0038 35.2875 31.0038 35.3297 31.0038 35.3508C31.0038 35.393 31.0265 35.4141 31.0491 35.4352C31.0718 35.4563 31.0945 35.4775 31.1398 35.4775H31.6157C31.729 35.4775 31.797 35.4352 31.8197 35.3719C31.797 34.8864 31.7743 34.4853 31.7517 34.1264C31.729 33.7886 31.7064 33.4931 31.6837 33.2819C31.6837 33.1553 31.6837 33.0286 31.6837 32.9442C31.6837 32.8386 31.6837 32.7542 31.661 32.6697C31.661 32.6064 31.6384 32.5431 31.6157 32.5009C31.593 32.4586 31.5477 32.4375 31.5024 32.4375H30.7772C30.7318 32.4375 30.6865 32.4797 30.6412 32.5642Z" fill="white"/>
<path fill-rule="evenodd" clip-rule="evenodd" d="M32.8396 32.4375C32.7036 32.4375 32.5903 32.4375 32.477 32.4586C32.3637 32.4586 32.2504 32.4797 32.1597 32.4797C32.0691 32.5009 31.9784 32.522 31.9331 32.5431C31.8651 32.5642 31.8424 32.6064 31.8424 32.6275C31.8651 32.6909 31.8877 32.7542 31.8877 32.8175L31.9104 32.9653C31.9104 33.0075 31.9331 33.0286 31.9331 33.0497C31.9331 33.0708 31.9557 33.0708 31.9784 33.0708C32.0691 33.092 32.1144 33.092 32.1144 33.092C32.0917 33.5142 32.0464 33.873 32.0464 34.1475C32.0237 34.4219 32.0237 34.6541 32.0237 34.823C32.0237 35.0552 32.0691 35.1819 32.1144 35.2452C32.1597 35.2663 32.205 35.2875 32.2504 35.2875C32.2957 35.3086 32.3183 35.3297 32.341 35.3297C32.545 35.3297 32.7943 35.3297 33.0436 35.3086C33.2929 35.2875 33.5875 35.2663 33.8821 35.2452C34.1087 35.2241 34.2221 35.1608 34.2221 35.0763C34.2221 35.0341 34.1994 34.9919 34.1994 34.9708C34.1994 34.9497 34.1994 34.9286 34.1994 34.9075C34.1994 34.8864 34.1994 34.8441 34.2447 34.7597C34.1994 34.6752 34.1314 34.633 34.0181 34.633H33.9501C33.8368 34.633 33.6781 34.633 33.4742 34.6541C33.2702 34.6752 33.0209 34.6964 32.7036 34.7386V34.1053C32.7036 34.1053 32.7263 34.0842 32.7716 34.0842C32.8169 34.0842 32.8849 34.0842 32.9529 34.063L33.2022 34.0419C33.2929 34.0419 33.3609 34.0419 33.4515 34.0208C33.5195 34.0208 33.5875 33.9997 33.6328 33.9997C33.6781 33.9997 33.7008 33.9786 33.7008 33.9575C33.7235 33.9575 33.7461 33.8519 33.7915 33.5986C33.7915 33.5564 33.7688 33.5353 33.7688 33.5142C33.7461 33.5353 33.7461 33.5142 33.7235 33.5142C33.7008 33.4931 33.6555 33.4931 33.6101 33.4719C33.5648 33.4719 33.4968 33.4508 33.4062 33.4508H33.2475C33.1569 33.4508 33.0889 33.4508 32.9982 33.4508L32.7263 33.4719C32.7489 33.2819 32.7489 33.1553 32.7716 33.0708C33.0436 33.0497 33.2475 33.0286 33.4062 33.0286C33.5875 33.0286 33.7008 33.0075 33.8141 32.9864C33.9274 32.9653 33.9728 32.9653 34.0181 32.9442C34.0634 32.9231 34.0634 32.8808 34.0634 32.8386L34.0181 32.6275C33.9954 32.5642 33.9954 32.522 33.9728 32.5009C33.9728 32.4797 33.9048 32.4586 33.7688 32.4586C33.6328 32.4375 33.4062 32.4375 33.1342 32.4375H32.8396Z" fill="white"/>
<path fill-rule="evenodd" clip-rule="evenodd" d="M36.3297 32.5642C36.2844 32.6486 36.239 32.7542 36.1711 32.8808C36.1257 33.0075 36.0577 33.1764 35.9897 33.3664C35.9218 33.5564 35.8538 33.7464 35.7858 33.9575H35.7631C35.6725 33.6408 35.5818 33.3664 35.5138 33.1342C35.4232 32.902 35.3778 32.7331 35.3099 32.6064C35.3099 32.522 35.2419 32.4586 35.1285 32.4586H35.0379L34.7433 32.4797L34.5166 32.4586C34.426 32.4586 34.358 32.5009 34.3127 32.5431C34.2447 32.9653 34.1767 33.3664 34.154 33.7464C34.1314 34.1264 34.1087 34.5275 34.1314 34.9075V34.9708C34.1314 35.1397 34.1767 35.2452 34.2447 35.3086C34.5393 35.393 34.7659 35.4352 34.9019 35.4352C34.9019 35.4352 34.9246 35.4141 34.9472 35.393L34.9699 33.6619C35.0152 33.7886 35.0832 33.9786 35.1512 34.2108L35.4685 35.1608C35.4685 35.203 35.4685 35.2241 35.4912 35.2452C35.5138 35.2663 35.5365 35.2875 35.5591 35.3086C35.6045 35.3297 35.6271 35.3508 35.6951 35.3508C35.7405 35.3719 35.8084 35.393 35.8991 35.4141C35.9444 35.4141 35.9897 35.393 36.0351 35.3508C36.0577 35.3086 36.1711 35.013 36.3524 34.5064C36.5563 33.873 36.6696 33.5353 36.6923 33.5142V35.2663C36.6923 35.2875 36.6923 35.3297 36.6923 35.3508C36.6923 35.393 36.715 35.4141 36.7376 35.4352C36.7603 35.4563 36.783 35.4775 36.8283 35.4775H37.3042C37.4175 35.4775 37.4855 35.4352 37.5082 35.3719C37.4855 34.8864 37.4629 34.4853 37.4402 34.1264C37.4175 33.7886 37.3949 33.4931 37.3722 33.2819C37.3722 33.1553 37.3722 33.0286 37.3722 32.9442C37.3722 32.8386 37.3722 32.7542 37.3495 32.6697C37.3269 32.6064 37.3269 32.5431 37.3042 32.5009C37.2815 32.4586 37.2362 32.4375 37.1909 32.4375H36.4657C36.4203 32.4375 36.3977 32.4797 36.3297 32.5642Z" fill="white"/>
<path fill-rule="evenodd" clip-rule="evenodd" d="M38.5508 34.1686C38.5508 34.1475 38.6187 34.1475 38.7321 34.1475H38.8454C39.0947 34.1686 39.2307 34.253 39.2307 34.3797V34.443C39.2307 34.5275 39.1853 34.5908 39.0947 34.6541C39.004 34.7175 38.8454 34.7386 38.6187 34.7386H38.5508V34.1686ZM38.7094 33.0497H38.8001C38.9814 33.0708 39.0947 33.1553 39.0947 33.2819V33.3453C39.0947 33.3875 39.072 33.4297 39.0493 33.4508C39.0267 33.4931 38.9814 33.5142 38.936 33.5353C38.8907 33.5564 38.8227 33.5775 38.7774 33.5986C38.7094 33.6197 38.6414 33.6197 38.5734 33.6197H38.5508V33.0708C38.5961 33.0708 38.6414 33.0497 38.7094 33.0497ZM38.6414 32.4586C37.8255 32.5642 37.4403 32.712 37.4403 32.902C37.4403 32.9231 37.4629 33.0075 37.5082 33.1342C37.5082 33.1553 37.5082 33.1975 37.4856 33.2397C37.4856 33.2819 37.5082 33.3242 37.5762 33.3664C37.6216 33.3664 37.7122 33.3453 37.8482 33.2819C37.8482 33.5564 37.8255 33.8097 37.8255 34.0419C37.8255 34.2741 37.8255 34.5064 37.8255 34.7175L37.8482 35.0975C37.8709 35.2663 37.9162 35.3508 37.9842 35.3508H38.0522L38.0748 35.3719C38.0748 35.4563 38.2561 35.4986 38.5961 35.4986H38.8227C39.004 35.4986 39.1853 35.4774 39.3213 35.393C39.4799 35.3297 39.5933 35.2452 39.7066 35.1397C39.7972 35.0341 39.8879 34.9286 39.9332 34.823C39.9785 34.7175 40.0012 34.5908 40.0012 34.4853V34.443C40.0012 34.1897 39.8426 33.9786 39.5706 33.7675V33.7464C39.7746 33.6197 39.8652 33.4297 39.8652 33.1975C39.8652 33.0708 39.8199 32.9653 39.7519 32.8597C39.6839 32.7753 39.6159 32.6909 39.5026 32.6275C39.3893 32.5642 39.2986 32.522 39.1627 32.4797C39.0493 32.4375 38.9134 32.4375 38.7774 32.4375H38.6414V32.4586Z" fill="white"/>
<path fill-rule="evenodd" clip-rule="evenodd" d="M40.9077 32.5009C40.7717 32.5009 40.6584 32.5009 40.5451 32.522C40.4317 32.522 40.3184 32.5431 40.2278 32.5431C40.1371 32.5642 40.0465 32.5853 40.0011 32.6064C39.9331 32.6275 39.9105 32.6697 39.9105 32.6909C39.9331 32.7542 39.9558 32.8175 39.9558 32.8808L39.9785 33.0286C39.9785 33.0708 40.0011 33.092 40.0011 33.1131C40.0011 33.1342 40.0238 33.1342 40.0465 33.1342C40.1371 33.1553 40.1824 33.1553 40.1824 33.1553C40.1371 33.5775 40.1145 33.9364 40.1145 34.2108C40.0918 34.4853 40.0918 34.7175 40.0918 34.8864C40.0918 35.1186 40.1371 35.2452 40.1824 35.3086C40.2278 35.3297 40.2731 35.3508 40.3184 35.3508C40.3637 35.3719 40.3864 35.393 40.4091 35.393C40.6357 35.393 40.8623 35.393 41.1116 35.3719C41.3609 35.3508 41.6555 35.3297 41.9502 35.3086C42.1768 35.2875 42.2901 35.2241 42.2901 35.1397C42.2901 35.0975 42.2901 35.0552 42.2675 35.0341C42.2675 35.013 42.2675 34.9919 42.2675 34.9708C42.2675 34.9497 42.2675 34.9075 42.3128 34.823C42.2675 34.7386 42.1995 34.6964 42.0861 34.6964H42.0182C41.9048 34.6964 41.7462 34.6964 41.5422 34.7175C41.3383 34.7386 41.089 34.7597 40.7717 34.8019V34.1686C40.7717 34.1686 40.7943 34.1475 40.8397 34.1475C40.885 34.1475 40.953 34.1475 41.021 34.1264L41.2703 34.1053C41.3609 34.1053 41.4289 34.1053 41.5196 34.0842C41.5876 34.0842 41.6555 34.063 41.7009 34.063C41.7462 34.063 41.7689 34.0419 41.7689 34.0208C41.7915 34.0208 41.8142 33.9153 41.8595 33.6619C41.8595 33.6197 41.8369 33.5986 41.8369 33.5775C41.8369 33.5564 41.8142 33.5353 41.7915 33.5142C41.7689 33.4931 41.7235 33.4931 41.6782 33.4719C41.6329 33.4508 41.5649 33.4508 41.4742 33.4508H41.3156C41.2249 33.4508 41.157 33.4508 41.0663 33.4508L40.7943 33.4719C40.7943 33.2819 40.817 33.1553 40.8397 33.0708C41.1116 33.0497 41.3156 33.0286 41.4969 33.0286C41.6555 33.0286 41.7915 33.0075 41.9048 32.9864C42.0182 32.9653 42.0635 32.9653 42.1088 32.9442C42.1541 32.9231 42.1541 32.8808 42.1541 32.8386L42.1088 32.6275C42.0861 32.5642 42.0861 32.522 42.0635 32.5009C42.0635 32.4797 41.9955 32.4586 41.8595 32.4586C41.7235 32.4375 41.4969 32.4375 41.2249 32.4375H40.9077V32.5009Z" fill="white"/>
<path fill-rule="evenodd" clip-rule="evenodd" d="M43.514 33.1553H43.6047C43.7407 33.1764 43.8087 33.2608 43.8313 33.4086V33.4508C43.8313 33.5986 43.65 33.7042 43.2874 33.7886C43.2874 33.7464 43.2874 33.6619 43.2874 33.5564C43.2874 33.4508 43.2874 33.3242 43.2874 33.1764C43.3554 33.1553 43.4234 33.1553 43.514 33.1553ZM43.4234 32.4375C43.3327 32.4375 43.2647 32.4375 43.1741 32.4375C43.1061 32.4375 43.0154 32.4586 42.9475 32.4586C42.4035 32.5431 42.1316 32.6486 42.1316 32.7753V32.7964C42.1769 32.9653 42.1996 33.092 42.1996 33.1342V33.2397C42.1996 33.2819 42.2449 33.3031 42.3129 33.3242C42.4035 33.3031 42.4715 33.2819 42.5169 33.2819C42.4715 33.8942 42.4489 34.3586 42.4715 34.6752C42.4715 34.7386 42.4715 34.823 42.4715 34.9075C42.4715 35.013 42.4942 35.0975 42.4942 35.1819C42.5169 35.2663 42.5395 35.3508 42.5622 35.4141C42.6075 35.4774 42.6302 35.4986 42.6982 35.4986L42.9475 35.4774C43.0154 35.4774 43.0834 35.4563 43.1288 35.4352C43.1741 35.4141 43.1968 35.393 43.2421 35.3719C43.2647 35.3508 43.2647 35.3086 43.2647 35.2452V34.4008C43.3101 34.4219 43.4007 34.4853 43.4914 34.6119C44.1259 35.2452 44.5112 35.6041 44.6699 35.6886C44.7832 35.6886 44.8512 35.6041 44.8738 35.4141C44.9871 35.2875 45.0551 35.1608 45.0551 35.0975C45.0551 35.0552 44.9871 34.9708 44.8285 34.823C44.5792 34.6119 44.3752 34.443 44.2393 34.3375C44.1033 34.2319 44.0126 34.1475 43.99 34.1264C44.4432 33.8942 44.6472 33.5986 44.6472 33.2608C44.6472 33.1342 44.6019 33.0075 44.5339 32.902C44.4659 32.7964 44.3752 32.712 44.2619 32.6486C44.1486 32.5853 44.0353 32.522 43.8993 32.4797C43.7633 32.4375 43.6274 32.4375 43.4914 32.4375H43.4234Z" fill="white"/>
<path fill-rule="evenodd" clip-rule="evenodd" d="M45.6443 32.4586C45.4857 32.4586 45.3497 32.4797 45.2364 32.5431C45.1231 32.6064 45.0324 32.6697 44.9418 32.7542C44.8738 32.8386 44.8058 32.9442 44.7605 33.0497C44.7151 33.1553 44.7151 33.2819 44.7151 33.3875V33.4297C44.7151 33.5142 44.7378 33.5986 44.7605 33.6619C44.7831 33.7253 44.8285 33.8097 44.8964 33.873C44.9644 33.9364 45.0551 33.9997 45.1684 34.063C45.2817 34.1264 45.4404 34.1686 45.6217 34.2319C45.9843 34.3375 46.1656 34.4641 46.1656 34.633V34.6541C46.1429 34.8019 46.0523 34.8652 45.8936 34.8652H45.871C45.735 34.8652 45.599 34.823 45.4404 34.7175C45.2817 34.5908 45.1911 34.5064 45.1684 34.5064C45.1231 34.5064 45.0551 34.5908 44.9644 34.7386C44.8058 34.823 44.7151 34.9075 44.7378 34.9919C44.7378 35.0763 44.7831 35.1819 44.8511 35.2452C44.9191 35.3297 45.0098 35.393 45.1231 35.4352C45.2364 35.4986 45.327 35.5408 45.4404 35.5619C45.5537 35.583 45.6443 35.6041 45.7123 35.6041H45.803C45.9163 35.6041 46.0523 35.583 46.2336 35.5197C46.6868 35.3086 46.8908 35.013 46.8908 34.633V34.5697C46.8681 34.1686 46.6415 33.873 46.1656 33.7253C45.735 33.6197 45.531 33.4931 45.531 33.3453C45.531 33.2608 45.599 33.2186 45.7576 33.1975H45.8483C45.9843 33.1975 46.1656 33.2608 46.3469 33.3664C46.5509 33.1131 46.6642 32.9442 46.6642 32.8597V32.8386C46.3922 32.5642 46.0523 32.4375 45.6897 32.4375H45.6443V32.4586Z" fill="white"/>
<path fill-rule="evenodd" clip-rule="evenodd" d="M47.5254 32.5009C47.1855 32.5431 47.0268 32.5853 47.0268 32.6064C46.9588 33.1764 46.9362 33.8308 46.9815 34.5697L47.0041 35.1819C47.0041 35.3719 47.0495 35.4775 47.1175 35.4775H47.3668C47.3894 35.4775 47.4121 35.4775 47.4347 35.4775C47.4574 35.4775 47.4801 35.4775 47.5254 35.4775C47.6387 35.4775 47.7067 35.4563 47.752 35.4352C47.7974 35.393 47.82 35.3508 47.82 35.2452V34.2741C47.82 34.0842 47.82 33.8519 47.82 33.5564C47.82 33.2819 47.82 32.9442 47.82 32.5431C47.7974 32.4797 47.7747 32.4375 47.7294 32.4375C47.6387 32.4375 47.5934 32.4586 47.5254 32.5009Z" fill="white"/>
<path fill-rule="evenodd" clip-rule="evenodd" d="M49.1571 32.4797C48.7945 32.5009 48.3866 32.5431 47.888 32.5853C47.752 32.5853 47.684 32.6486 47.6614 32.7964C47.684 32.8808 47.684 32.9231 47.684 32.9231L47.6614 33.1553C47.6614 33.2186 47.684 33.2608 47.752 33.2819C47.7747 33.2819 47.8427 33.2819 47.9786 33.2608L48.5905 33.2186C48.5679 33.5353 48.5452 33.8308 48.5226 34.063C48.5226 34.3164 48.4999 34.5064 48.5226 34.6964C48.5452 35.1608 48.5905 35.393 48.6585 35.393C48.7945 35.393 48.9078 35.4141 48.9985 35.4352C49.2704 35.4352 49.4064 35.3719 49.4064 35.2452C49.3611 34.9286 49.3611 34.6752 49.3611 34.5064L49.3384 34.1264C49.3384 33.9786 49.3384 33.8308 49.3384 33.6831C49.3384 33.5142 49.3384 33.3453 49.3384 33.1553C49.4744 33.1553 49.6104 33.1553 49.7237 33.1342C49.837 33.1342 49.9277 33.1131 50.0183 33.092C50.0863 33.0708 50.1543 33.0497 50.1996 32.9864C50.245 32.9442 50.2676 32.8808 50.245 32.8175C50.245 32.7753 50.245 32.7331 50.2223 32.6909L50.2676 32.5853C50.2676 32.522 50.177 32.4586 50.0183 32.4375C49.7917 32.4375 49.4971 32.4586 49.1571 32.4797Z" fill="white"/>
<path fill-rule="evenodd" clip-rule="evenodd" d="M50.9022 32.5009C50.7662 32.5009 50.6529 32.5009 50.5396 32.522C50.4262 32.522 50.3129 32.5431 50.2223 32.5431C50.1316 32.5642 50.041 32.5853 49.9956 32.6064C49.9277 32.6275 49.905 32.6697 49.905 32.6909C49.9277 32.7542 49.9503 32.8175 49.9503 32.8808L49.973 33.0286C49.973 33.0708 49.9956 33.092 49.9956 33.1131C49.9956 33.1342 50.0183 33.1342 50.041 33.1342C50.1316 33.1553 50.1769 33.1553 50.1769 33.1553C50.1543 33.5775 50.109 33.9364 50.109 34.2108C50.0863 34.4853 50.0863 34.7175 50.109 34.8864C50.109 35.1186 50.1316 35.2452 50.1996 35.3086C50.2449 35.3297 50.2903 35.3508 50.3356 35.3508C50.3809 35.3719 50.4036 35.393 50.4262 35.393C50.6302 35.393 50.8795 35.393 51.1288 35.3719C51.3781 35.3508 51.6727 35.3297 51.9673 35.3086C52.194 35.2875 52.3073 35.2241 52.3073 35.1397C52.3073 35.0975 52.2846 35.0552 52.2846 35.0341C52.2846 35.013 52.2846 34.9919 52.2846 34.9708C52.2846 34.9497 52.2846 34.9075 52.3299 34.823C52.2846 34.7386 52.2166 34.6964 52.1033 34.6964H52.0353C51.922 34.6964 51.7634 34.6964 51.5594 34.7175C51.3554 34.7386 51.1061 34.7597 50.7888 34.8019V34.1686C50.7888 34.1686 50.8115 34.1475 50.8568 34.1475C50.9022 34.1475 50.9702 34.1475 51.0381 34.1264L51.2874 34.1053C51.3781 34.1053 51.4461 34.1053 51.5367 34.0842C51.6047 34.0842 51.6727 34.063 51.718 34.063C51.7634 34.063 51.786 34.0419 51.786 34.0208C51.8087 34.0208 51.8314 33.9153 51.8767 33.6619C51.8767 33.6197 51.854 33.5986 51.854 33.5775C51.8314 33.5564 51.8314 33.5353 51.8087 33.5142C51.786 33.4931 51.7407 33.4931 51.6954 33.4719C51.6501 33.4719 51.5821 33.4508 51.4914 33.4508H51.3328C51.2421 33.4508 51.1741 33.4508 51.0835 33.4508L50.8115 33.4719C50.8342 33.2819 50.8342 33.1553 50.8568 33.0708C51.1288 33.0497 51.3328 33.0286 51.5141 33.0286C51.6954 33.0286 51.8087 33.0075 51.922 32.9864C52.0127 32.9653 52.0807 32.9653 52.126 32.9442C52.1713 32.9231 52.1713 32.8808 52.1713 32.8386L52.126 32.6275C52.1033 32.5642 52.1033 32.522 52.0807 32.5009C52.0807 32.4797 52.0127 32.4586 51.8767 32.4586C51.7407 32.4375 51.5141 32.4375 51.2421 32.4375H50.9022V32.5009Z" fill="white"/>
<path fill-rule="evenodd" clip-rule="evenodd" d="M53.1231 32.4586C52.9645 32.4586 52.8285 32.4797 52.7152 32.5431C52.6019 32.6064 52.5112 32.6697 52.4206 32.7542C52.3526 32.8386 52.2846 32.9442 52.2393 33.0497C52.1939 33.1553 52.1939 33.2819 52.1939 33.3875V33.4297C52.1939 33.5142 52.2166 33.5986 52.2393 33.6619C52.2619 33.7253 52.3073 33.8097 52.3752 33.873C52.4432 33.9364 52.5339 33.9997 52.6472 34.063C52.7605 34.1264 52.9192 34.1686 53.1005 34.2319C53.4631 34.3375 53.6444 34.4641 53.6444 34.633V34.6541C53.6217 34.8019 53.5311 34.8652 53.3724 34.8652H53.3498C53.2138 34.8652 53.0778 34.823 52.9192 34.7175C52.7605 34.5908 52.6699 34.5064 52.6472 34.5064C52.6019 34.5064 52.5339 34.5908 52.4432 34.7386C52.2846 34.823 52.1939 34.9075 52.2166 34.9919C52.2166 35.0763 52.2619 35.1819 52.3299 35.2452C52.3979 35.3297 52.4886 35.393 52.6019 35.4352C52.7152 35.4986 52.8058 35.5408 52.9192 35.5619C53.0325 35.583 53.1231 35.6041 53.1911 35.6041H53.2818C53.3951 35.6041 53.5311 35.583 53.7124 35.5197C54.1656 35.3086 54.3696 35.013 54.3696 34.633V34.5697C54.3469 34.1686 54.1203 33.873 53.6444 33.7253C53.2138 33.6197 53.0098 33.4931 53.0098 33.3453C53.0098 33.2608 53.0778 33.2186 53.2591 33.1975H53.3498C53.5084 33.1975 53.667 33.2608 53.8484 33.3664C54.0523 33.1131 54.1656 32.9442 54.1656 32.8597V32.8386C53.8937 32.5642 53.5537 32.4375 53.1911 32.4375H53.1231V32.4586Z" fill="white"/>
<defs>
<filter id="filter0_dd_442_42170" x="0" y="0" width="75" height="75" filterUnits="userSpaceOnUse" color-interpolation-filters="sRGB">
<feFlood flood-opacity="0" result="BackgroundImageFix"/>
<feColorMatrix in="SourceAlpha" type="matrix" values="0 0 0 0 0 0 0 0 0 0 0 0 0 0 0 0 0 0 127 0" result="hardAlpha"/>
<feOffset/>
<feGaussianBlur stdDeviation="0.5"/>
<feColorMatrix type="matrix" values="0 0 0 0 0 0 0 0 0 0 0 0 0 0 0 0 0 0 0.24 0"/>
<feBlend mode="normal" in2="BackgroundImageFix" result="effect1_dropShadow_442_42170"/>
<feColorMatrix in="SourceAlpha" type="matrix" values="0 0 0 0 0 0 0 0 0 0 0 0 0 0 0 0 0 0 127 0" result="hardAlpha"/>
<feOffset dy="4"/>
<feGaussianBlur stdDeviation="6"/>
<feColorMatrix type="matrix" values="0 0 0 0 0.690196 0 0 0 0 0.745098 0 0 0 0 0.772549 0 0 0 0.24 0"/>
<feBlend mode="normal" in2="effect1_dropShadow_442_42170" result="effect2_dropShadow_442_42170"/>
<feBlend mode="normal" in="SourceGraphic" in2="effect2_dropShadow_442_42170" result="shape"/>
</filter>
</defs>
</svg>
