<svg width="376" height="288" viewBox="0 0 376 288" fill="none" xmlns="http://www.w3.org/2000/svg">
<rect width="376" height="288" fill="#3CAEED"/>
<path fill-rule="evenodd" clip-rule="evenodd" d="M141.465 167.253C142.087 167.336 142.709 167.336 143.331 167.253C143.687 167.667 143.864 168.081 143.687 168.578C143.509 169.075 143.153 169.571 142.709 169.985C142.265 170.399 141.731 170.813 141.198 171.144C141.731 170.896 142.353 170.565 142.887 170.234C143.42 169.82 143.953 169.406 144.22 168.826C144.398 168.495 144.398 168.164 144.309 167.833C144.309 167.667 144.22 167.419 144.131 167.253C144.486 167.171 144.842 167.088 145.197 166.922C144.842 167.005 144.398 167.005 144.042 167.005C144.042 166.922 143.953 166.922 143.953 166.84C143.598 166.426 143.242 166.012 142.798 165.68C143.242 165.515 143.687 165.267 144.042 164.935C144.575 164.935 145.02 164.853 145.464 164.853C145.109 164.853 144.664 164.853 144.309 164.77C144.398 164.604 144.575 164.521 144.664 164.356C144.753 164.19 144.842 164.025 144.931 163.859C145.464 163.942 146.086 164.108 146.708 164.439C150.352 166.508 151.952 169.24 155.152 171.558C156.751 172.635 158.44 173.628 160.751 173.711C161.106 173.711 161.462 173.794 161.817 173.794C163.328 173.628 164.839 172.966 165.905 172.138C166.883 171.393 167.683 170.399 168.216 169.075C168.305 168.909 168.305 168.661 168.483 168.495C168.661 168.33 169.283 168.33 169.727 168.247C170.971 167.999 172.304 167.833 173.46 167.502C174.793 167.171 176.126 166.591 177.37 166.012C177.904 165.763 178.526 165.598 179.237 165.349C179.859 165.184 180.57 164.853 181.281 164.604C182.347 164.19 183.503 163.776 184.569 163.362C186.702 162.535 188.746 161.458 190.79 160.382C192.568 159.389 194.345 158.23 195.856 156.905H107.07C107.159 157.319 107.337 157.733 107.514 158.064C107.514 158.644 107.514 159.223 107.603 159.803C107.603 160.051 107.692 160.299 107.692 160.548C105.115 161.955 102.537 164.439 103.071 167.088C103.16 167.502 103.16 167.75 103.337 167.999C103.604 168.495 103.959 168.826 104.582 169.323C105.026 169.654 105.381 169.985 105.915 170.234C106.181 170.317 106.448 170.399 106.892 170.399C107.692 170.399 108.492 170.151 109.203 169.903C109.914 169.737 110.714 169.489 111.425 169.24C113.114 168.578 114.713 167.585 116.491 166.922C116.669 166.84 116.846 166.84 117.024 166.757C117.202 166.674 117.38 166.591 117.557 166.508C118.268 166.26 118.979 166.094 119.779 165.846C120.135 165.763 120.401 165.515 120.846 165.432C122.445 164.853 123.956 164.273 125.467 163.528C126 165.68 127.956 166.591 130.089 167.005C130.977 167.75 131.955 168.33 133.11 168.578C133.821 168.744 134.71 168.909 135.51 168.826C136.31 168.744 137.199 168.412 137.821 167.916C138.354 167.502 138.71 167.005 138.976 166.508C139.332 166.674 139.776 166.84 140.22 167.005C140.487 167.088 141.02 167.171 141.465 167.253ZM204.122 156.822C205.099 158.064 206.077 159.306 206.966 160.465C207.055 160.631 207.143 160.713 207.321 160.879C207.588 161.127 207.943 161.624 208.21 161.955C208.743 162.617 209.276 163.28 209.899 163.859C210.521 164.521 210.965 165.184 211.587 165.846C211.854 166.177 212.209 166.426 212.565 166.757C213.898 168.247 215.409 169.82 217.009 171.31C218.253 172.552 219.497 173.711 220.83 174.87C222.075 176.029 223.408 177.271 224.919 178.181C225.718 178.678 226.518 179.175 227.318 179.671C227.496 179.754 227.674 179.92 227.851 180.085C228.118 180.251 228.296 180.251 228.562 180.334C229.007 180.499 229.362 180.83 229.807 180.996C230.162 181.079 230.429 181.162 230.784 181.244C231.584 181.493 232.562 181.907 233.717 181.989C235.228 182.072 236.739 181.658 237.894 181.079C237.983 181.079 238.072 180.996 238.072 180.913C238.516 180.665 239.405 180.251 239.761 179.837C240.027 179.671 240.294 179.34 240.472 179.009C241.183 178.264 241.805 177.271 242.249 176.194C243.405 173.38 243.671 169.654 244.116 166.426C244.204 165.763 244.293 165.018 244.382 164.356C244.471 163.694 244.827 163.031 245.093 162.286C245.715 160.382 246.337 158.478 247.048 156.574H204.122V156.822ZM262.69 120.976L262.424 121.307C262.602 121.224 262.69 121.141 262.69 120.976ZM261.979 122.052C262.068 121.886 262.246 121.638 262.424 121.307C262.424 121.307 262.335 121.307 262.246 121.39C262.246 121.224 262.335 120.727 262.69 120.893C262.69 120.976 262.69 120.976 262.69 121.059C262.868 120.81 263.135 120.562 263.224 120.479C263.757 120.148 264.379 120.231 265.09 120.231C265.357 120.231 265.623 120.231 265.89 120.148C266.423 120.065 266.69 119.568 267.223 119.486C267.579 119.403 268.201 119.651 268.645 119.734C269.267 119.817 269.889 119.817 269.978 118.989C269.978 118.823 269.8 118.658 269.889 118.575C270.067 118.409 270.778 118.823 270.956 118.906C271.311 119.072 271.934 119.237 272.111 119.237C272.378 119.154 272.467 118.658 272.556 118.327C272.733 117.995 273 117.664 273 117.416C273 116.919 272.022 116.257 271.489 115.926C269.978 114.932 268.912 114.518 267.312 113.773C266.601 113.442 265.712 113.111 265.001 112.863C263.49 112.532 261.713 112.532 260.38 112.697C260.024 112.78 259.135 113.277 258.78 113.525C258.513 113.691 258.336 113.939 258.158 114.104C257.536 114.601 256.914 115.263 256.38 115.843C254.958 117.416 253.27 118.989 251.581 120.313C251.403 120.479 250.426 121.224 250.159 121.141C249.892 121.059 249.981 120.313 250.159 119.734C250.426 118.823 250.781 117.995 251.137 117.168C251.759 115.595 252.559 113.773 253.27 112.2C253.714 111.207 254.158 110.296 254.603 109.386C254.869 108.889 254.781 108.889 254.247 108.641C253.981 108.558 253.714 108.475 253.536 108.475C253.359 108.558 253.27 109.303 253.181 109.468C253.092 109.8 252.825 110.213 252.648 110.627C251.581 113.028 250.159 115.76 248.915 118.078C247.582 120.479 246.693 121.969 245.093 123.708C244.827 123.956 244.56 124.287 244.382 124.536C244.027 124.949 243.582 125.363 243.76 126.026C243.76 126.109 243.938 126.191 243.849 126.357C243.849 126.605 243.582 126.854 243.493 127.102C242.96 128.923 244.027 129.999 244.915 130.993C245.36 131.49 245.893 132.069 246.604 132.566C246.693 132.649 247.315 132.897 247.315 132.98C247.404 133.145 246.96 134.056 246.782 134.47C246.337 135.463 245.893 136.374 245.449 137.285H255.314C255.669 136.622 256.114 136.043 256.469 135.298C256.736 134.801 257.002 133.725 257.447 133.311C257.891 132.98 258.424 133.311 258.78 132.814C259.047 132.483 259.047 131.241 258.958 130.827C260.646 130.662 259.491 128.592 260.202 127.764C260.291 127.681 260.38 127.599 260.38 127.516C260.469 127.185 260.113 126.854 260.202 126.522C260.291 126.191 260.646 126.026 260.646 125.529C260.646 125.446 260.557 125.281 260.557 125.281C260.646 124.949 261.268 124.867 261.357 124.536C261.535 124.204 261.268 123.873 261.357 123.542C261.446 123.377 261.713 123.211 261.891 122.963C261.979 122.549 261.891 122.218 261.979 122.052ZM234.073 136.954C233.984 135.215 233.984 133.394 234.073 131.324C234.073 130.827 234.162 130.413 234.162 129.751C234.162 129.254 233.806 128.509 234.162 128.095C234.517 127.681 235.139 128.013 235.317 127.268C235.317 127.019 235.139 126.605 235.139 126.357C235.139 126.109 235.317 125.695 235.317 125.446C235.406 124.949 235.495 124.122 235.228 123.542C235.05 123.045 234.517 122.714 234.162 122.218C233.806 121.638 233.184 120.313 233.184 119.651C233.184 119.403 233.451 119.154 233.451 118.989C233.451 118.658 233.095 118.327 233.095 118.078C233.095 117.913 233.184 117.913 233.273 117.747C233.273 117.664 233.273 117.416 233.273 117.333C233.273 117.168 233.184 117.085 233.184 117.002C233.184 116.919 233.095 116.836 233.095 116.671C233.095 116.505 233.184 116.091 233.184 115.76C233.184 115.512 233.184 115.098 233.184 115.015C233.451 114.27 235.05 113.442 235.761 112.945C236.472 112.366 237.183 112.2 238.072 111.952C238.605 111.786 239.139 111.621 239.227 111.207C239.316 110.71 238.961 110.627 238.783 110.213C239.227 110.131 239.494 110.131 239.938 110.131C240.294 110.131 240.916 110.048 241.005 109.882C241.183 109.634 241.005 109.137 241.005 108.806C241.005 108.309 241.005 108.061 240.827 107.895C240.561 107.647 239.583 107.399 239.139 107.316C237.272 106.902 235.85 106.985 233.984 107.068C232.74 107.068 231.495 106.985 230.429 107.233C230.251 107.233 230.073 107.399 229.984 107.399C229.54 107.482 229.185 107.564 228.829 107.813C228.74 107.813 228.651 107.978 228.562 107.978C228.118 108.227 227.585 108.806 227.318 109.303C226.429 110.545 225.807 112.118 225.274 113.773C224.919 114.85 224.563 115.926 224.119 117.085C223.763 118.078 223.408 119.403 222.786 120.065C222.608 120.313 222.163 120.645 221.808 120.562C221.097 120.396 220.919 118.823 220.83 117.995C220.564 115.926 220.475 113.939 220.297 111.952L220.119 109.634C220.119 109.386 220.03 109.137 220.03 108.889C220.03 108.475 220.208 108.061 220.03 107.895C219.853 107.73 218.875 107.895 218.786 107.978C218.608 108.227 218.875 108.641 218.875 108.806C218.964 109.137 218.875 109.468 218.875 109.717C218.964 111.29 219.053 113.525 219.142 114.932C219.231 117.416 219.231 120.313 219.053 122.218C218.964 122.88 218.875 123.377 218.786 123.873C218.608 124.701 218.075 125.777 218.075 126.605C218.075 126.771 218.164 127.268 218.342 127.35C218.431 127.433 218.608 127.35 218.608 127.433C218.697 127.599 218.608 127.93 218.608 128.095C218.697 128.758 219.053 129.503 219.675 129.999C220.564 130.745 222.341 131.572 223.852 131.904C223.941 131.904 224.652 131.904 224.652 131.986C225.007 132.152 224.919 133.311 224.919 133.973C224.919 134.801 225.096 135.463 225.096 136.043C225.096 136.457 225.096 136.788 225.096 137.202H234.073V136.954ZM214.609 136.954C212.032 132.483 209.188 128.178 203.855 126.109C202.611 125.612 201.278 125.115 199.856 124.867C197.101 124.453 194.79 124.784 192.923 125.529C191.946 125.943 190.879 126.44 189.991 127.102C189.457 127.516 188.835 127.93 188.302 128.427C187.769 128.923 187.147 129.42 186.791 129.917C185.102 131.986 183.769 134.387 182.703 137.036H214.609V136.954ZM107.248 136.954H153.907C153.463 136.54 152.93 136.126 152.308 135.712C151.33 135.132 150.086 134.636 148.841 134.387C147.597 134.139 146.175 134.222 144.931 134.553C143.953 134.801 143.064 135.132 142.176 135.546C140.843 135.049 139.421 134.801 137.91 134.718C138.532 134.056 139.065 133.228 139.421 132.4C138.976 133.228 138.354 134.056 137.643 134.636C137.021 134.636 136.399 134.636 135.777 134.636C134.888 134.636 133.91 134.636 132.933 134.636C133.288 134.139 133.466 133.642 133.644 133.063C133.733 133.063 133.821 133.063 133.999 133.063C135.155 133.145 136.31 133.477 137.288 134.139C136.399 133.394 135.332 132.897 134.088 132.566C133.999 132.566 133.821 132.483 133.733 132.483C133.733 131.986 133.733 131.572 133.644 131.076C133.466 129.834 132.844 128.675 132.222 127.599C132.666 128.758 133.022 129.917 133.11 131.076C133.11 131.49 133.11 131.904 133.022 132.318C132.222 132.4 131.422 132.4 130.533 132.4C129.378 132.318 128.133 132.4 126.978 132.483C126.8 132.4 126.534 132.4 126.356 132.318C125.556 132.152 124.667 132.069 123.867 132.069C123.245 131.821 122.623 131.572 122.001 131.407C121.023 131.158 119.957 130.993 118.979 130.993C116.935 130.91 114.802 131.241 112.847 131.986C110.892 132.731 109.025 134.056 107.781 135.96C107.603 136.291 107.426 136.622 107.248 136.954Z" fill="white"/>
<path fill-rule="evenodd" clip-rule="evenodd" d="M111.336 147.205C111.336 147.288 110.892 147.37 109.914 147.37C109.914 147.205 109.914 146.874 110.092 146.377C110.181 145.88 110.447 145.218 110.625 144.473C110.714 144.473 110.892 145.383 111.336 147.205ZM110.092 140.747C109.647 141.492 109.292 142.238 108.936 142.9C108.581 143.562 108.225 144.39 107.87 145.135C107.426 146.542 107.159 147.288 106.981 147.37C106.181 147.453 105.826 147.619 105.826 147.867V147.95C106.27 148.529 106.537 148.943 106.537 149.109L106.092 151.427C106.092 151.592 106.092 151.758 106.181 151.924C106.181 152.006 106.27 152.172 106.448 152.172C106.537 152.255 106.803 152.337 106.981 152.337C107.248 152.42 107.603 152.42 108.048 152.503L108.314 152.42C108.403 152.337 108.492 152.089 108.67 151.592C108.848 151.178 109.025 150.516 109.203 149.688L111.692 149.523C111.78 149.523 111.78 149.523 111.78 149.523C111.78 149.523 111.78 149.523 111.869 149.523L112.314 151.178C112.491 152.172 112.758 152.669 113.202 152.669H113.469C113.913 152.503 114.269 152.337 114.536 152.255C114.802 152.172 114.98 152.089 115.158 152.089C115.335 152.006 115.424 152.006 115.424 151.924C115.513 151.841 115.513 151.758 115.513 151.675V151.592C115.158 150.351 114.802 148.943 114.269 147.37C113.825 145.797 113.202 144.142 112.58 142.238C112.225 140.996 111.958 140.333 111.692 140.333C110.625 140.499 110.003 140.665 110.092 140.747Z" fill="white"/>
<path fill-rule="evenodd" clip-rule="evenodd" d="M119.601 142.817H120.046C120.49 142.817 120.934 142.9 121.29 143.065C121.645 143.231 122.001 143.479 122.267 143.728C122.534 143.976 122.712 144.307 122.89 144.638C123.067 144.969 123.067 145.301 123.156 145.715V145.797C123.156 146.046 123.156 146.377 123.156 146.708C122.534 148.364 121.112 149.192 118.89 149.192V148.943C118.801 147.122 118.801 145.135 118.89 142.817C118.979 142.817 119.246 142.817 119.601 142.817ZM118.89 140.333C118.268 140.333 117.646 140.416 117.113 140.499C116.579 140.582 116.224 140.665 115.868 140.83C115.513 140.913 115.246 141.079 115.069 141.244C114.891 141.41 114.802 141.575 114.802 141.658C114.802 141.824 114.802 141.906 114.802 141.989C114.802 142.072 114.802 142.155 114.891 142.238V143.231C114.98 143.562 115.069 143.728 115.246 143.728C115.868 143.562 116.313 143.479 116.402 143.479H116.491C116.224 145.549 116.224 147.288 116.224 148.695V149.44C116.224 149.688 116.224 149.937 116.313 150.268C116.313 150.516 116.402 150.847 116.402 151.178C116.579 151.344 116.757 151.592 116.846 151.675C116.935 151.841 117.113 151.924 117.202 152.006C117.29 152.089 117.468 152.172 117.646 152.172C117.824 152.255 118.09 152.255 118.535 152.255H118.89C120.668 152.255 122.267 151.675 123.778 150.516C125.2 149.274 125.822 147.867 125.822 146.377V145.963C125.822 145.135 125.645 144.39 125.289 143.728C125.023 143.065 124.578 142.403 123.956 141.906C123.423 141.41 122.712 140.996 122.001 140.747C121.201 140.499 120.401 140.333 119.512 140.333H118.89Z" fill="white"/>
<path fill-rule="evenodd" clip-rule="evenodd" d="M134.089 140.451C133.111 140.451 132.489 140.533 132.489 140.782C132.133 140.864 131.956 143.182 131.956 147.653C131.333 148.481 130.711 148.895 130.178 148.895H129.734C129.112 148.729 128.845 148.067 128.756 146.991V146.66C128.756 146.163 128.756 145.418 128.845 144.424C128.934 143.514 129.023 142.272 129.2 140.864C129.2 140.616 128.934 140.451 128.401 140.451H128.223C127.867 140.451 127.601 140.533 127.334 140.616C126.712 140.616 126.356 140.782 126.179 141.03C125.734 143.017 125.468 144.921 125.557 146.66V147.156C125.645 148.895 125.912 150.137 126.534 150.964C127.067 151.792 127.867 152.289 128.756 152.289H128.845C129.911 152.289 131.067 151.875 132.222 150.964H132.311C132.311 151.792 132.578 152.289 132.933 152.289L134.622 151.875C134.888 151.875 134.977 151.627 135.066 151.047V149.143C135.066 148.315 135.066 147.239 135.066 145.914C135.066 144.507 135.066 142.851 135.066 140.782C135.066 140.533 134.888 140.368 134.622 140.368C134.444 140.285 134.177 140.368 134.089 140.451Z" fill="white"/>
<path fill-rule="evenodd" clip-rule="evenodd" d="M138.087 140.416H136.843C136.576 140.499 136.487 140.582 136.31 140.747C135.954 142.486 135.776 144.142 135.865 145.715V146.625C135.865 147.453 135.954 148.198 136.043 148.943C136.132 149.688 136.221 150.351 136.31 151.013C136.665 151.51 137.021 151.758 137.465 151.758C138.265 151.758 139.954 151.675 142.353 151.344C143.775 151.261 144.397 150.93 144.397 150.351L144.131 149.44V149.357L144.308 148.778C144.308 148.529 144.131 148.364 143.864 148.364C142.709 148.529 141.82 148.612 141.109 148.695C140.398 148.778 139.865 148.778 139.509 148.778H139.065C138.976 148.778 138.976 148.529 138.976 148.115C138.976 147.288 138.887 146.294 138.976 145.052V140.665C138.887 140.499 138.62 140.333 138.176 140.333H138.087V140.416Z" fill="white"/>
<path fill-rule="evenodd" clip-rule="evenodd" d="M149.197 140.499C147.775 140.582 146.175 140.747 144.22 140.913C143.686 140.913 143.42 141.161 143.331 141.741C143.42 142.072 143.42 142.238 143.42 142.238L143.331 143.148C143.331 143.397 143.509 143.562 143.775 143.645C143.864 143.645 144.131 143.645 144.664 143.562L147.064 143.397C146.975 144.638 146.886 145.797 146.797 146.708C146.797 147.701 146.797 148.447 146.797 149.192C146.886 151.013 147.064 151.924 147.33 151.924C147.863 151.924 148.308 152.006 148.663 152.089C149.73 152.089 150.263 151.841 150.263 151.344C150.085 150.102 150.085 149.109 150.085 148.447L149.996 146.956C149.996 146.377 149.996 145.797 149.996 145.218C149.996 144.556 149.996 143.893 149.996 143.148C150.53 143.148 151.063 143.148 151.507 143.065C151.952 143.065 152.307 142.983 152.663 142.9C152.929 142.817 153.196 142.734 153.374 142.486C153.551 142.32 153.64 142.072 153.551 141.824C153.551 141.658 153.551 141.492 153.463 141.327L153.64 140.913C153.64 140.665 153.285 140.416 152.663 140.333C151.774 140.333 150.619 140.416 149.197 140.499Z" fill="white"/>
<path fill-rule="evenodd" clip-rule="evenodd" d="M161.106 140.83C160.928 141.161 160.661 141.575 160.484 142.072C160.306 142.569 160.039 143.231 159.773 143.976C159.506 144.721 159.239 145.466 158.973 146.294C158.617 145.052 158.262 143.976 157.995 143.065C157.64 142.155 157.462 141.492 157.195 140.996C157.195 140.665 156.929 140.416 156.395 140.416H156.04L154.885 140.499L153.996 140.416C153.64 140.416 153.374 140.582 153.196 140.747C152.929 142.403 152.663 143.976 152.574 145.466C152.485 146.956 152.396 148.529 152.485 150.019V150.268C152.485 150.93 152.663 151.344 152.929 151.592C154.085 151.924 154.973 152.089 155.507 152.089C155.507 152.089 155.596 152.006 155.684 151.924L155.773 145.135C155.951 145.632 156.218 146.377 156.484 147.288L157.729 151.013C157.729 151.178 157.729 151.261 157.817 151.344C157.906 151.427 157.995 151.51 158.084 151.592C158.262 151.675 158.351 151.758 158.617 151.758C158.795 151.841 159.062 151.924 159.417 152.006C159.595 152.006 159.773 151.924 159.95 151.758C160.039 151.592 160.484 150.433 161.195 148.447C161.995 145.963 162.439 144.638 162.528 144.556V151.427C162.528 151.51 162.528 151.675 162.528 151.758C162.528 151.924 162.617 152.006 162.706 152.089C162.794 152.172 162.883 152.255 163.061 152.255H164.927C165.372 152.255 165.638 152.089 165.727 151.841C165.638 149.937 165.55 148.364 165.461 146.956C165.372 145.632 165.283 144.473 165.194 143.645C165.194 143.148 165.194 142.651 165.194 142.32C165.194 141.906 165.194 141.575 165.105 141.244C165.105 140.996 165.016 140.747 164.927 140.582C164.839 140.416 164.661 140.333 164.483 140.333H161.639C161.461 140.333 161.284 140.499 161.106 140.83Z" fill="white"/>
<path fill-rule="evenodd" clip-rule="evenodd" d="M169.727 140.333C169.194 140.333 168.749 140.333 168.305 140.416C167.861 140.416 167.416 140.499 167.061 140.499C166.705 140.582 166.35 140.665 166.172 140.747C165.905 140.83 165.816 140.996 165.816 141.079C165.905 141.327 165.994 141.575 165.994 141.824L166.083 142.403C166.083 142.569 166.172 142.651 166.172 142.734C166.172 142.817 166.261 142.817 166.35 142.817C166.705 142.9 166.883 142.9 166.883 142.9C166.794 144.556 166.616 145.963 166.616 147.039C166.527 148.115 166.527 149.026 166.527 149.688C166.527 150.599 166.705 151.096 166.883 151.344C167.061 151.427 167.238 151.51 167.416 151.51C167.594 151.592 167.683 151.675 167.772 151.675C168.572 151.675 169.549 151.675 170.527 151.592C171.504 151.51 172.66 151.427 173.815 151.344C174.704 151.261 175.148 151.013 175.148 150.682C175.148 150.516 175.06 150.351 175.06 150.268C175.06 150.185 175.06 150.102 175.06 150.019C175.06 149.937 175.06 149.771 175.237 149.44C175.06 149.109 174.793 148.943 174.349 148.943H174.082C173.637 148.943 173.015 148.943 172.215 149.026C171.416 149.109 170.438 149.192 169.194 149.357V146.874C169.194 146.874 169.283 146.791 169.46 146.791C169.638 146.791 169.905 146.791 170.171 146.708L171.149 146.625C171.504 146.625 171.771 146.625 172.127 146.542C172.393 146.542 172.66 146.46 172.838 146.46C173.015 146.46 173.104 146.377 173.104 146.294C173.193 146.294 173.282 145.88 173.46 144.887C173.46 144.721 173.371 144.638 173.371 144.556C173.282 144.638 173.282 144.556 173.193 144.556C173.104 144.473 172.926 144.473 172.749 144.39C172.571 144.39 172.304 144.307 171.949 144.307H171.327C170.971 144.307 170.705 144.307 170.349 144.307L169.283 144.39C169.371 143.645 169.371 143.148 169.46 142.817C170.527 142.734 171.327 142.651 171.949 142.651C172.66 142.651 173.104 142.569 173.549 142.486C173.993 142.403 174.171 142.403 174.349 142.32C174.526 142.238 174.526 142.072 174.526 141.906L174.349 141.079C174.26 140.83 174.26 140.665 174.171 140.582C174.171 140.499 173.904 140.416 173.371 140.416C172.838 140.333 171.949 140.333 170.882 140.333H169.727Z" fill="white"/>
<path fill-rule="evenodd" clip-rule="evenodd" d="M183.414 140.83C183.236 141.161 183.058 141.575 182.792 142.072C182.614 142.569 182.347 143.231 182.081 143.976C181.814 144.721 181.547 145.466 181.281 146.294H181.192C180.836 145.052 180.481 143.976 180.214 143.065C179.859 142.155 179.681 141.492 179.414 140.996C179.414 140.665 179.148 140.416 178.703 140.416H178.348L177.192 140.499L176.304 140.416C175.948 140.416 175.681 140.582 175.504 140.747C175.237 142.403 174.97 143.976 174.882 145.466C174.793 146.956 174.704 148.529 174.793 150.019V150.268C174.793 150.93 174.97 151.344 175.237 151.592C176.393 151.924 177.281 152.089 177.814 152.089C177.814 152.089 177.903 152.006 177.992 151.924L178.081 145.135C178.259 145.632 178.526 146.377 178.792 147.288L180.036 151.013C180.036 151.178 180.036 151.261 180.125 151.344C180.214 151.427 180.303 151.51 180.392 151.592C180.57 151.675 180.659 151.758 180.925 151.758C181.103 151.841 181.369 151.924 181.725 152.006C181.903 152.006 182.081 151.924 182.258 151.758C182.347 151.592 182.792 150.433 183.503 148.447C184.302 145.963 184.747 144.638 184.836 144.556V151.427C184.836 151.51 184.836 151.675 184.836 151.758C184.836 151.924 184.925 152.006 185.013 152.089C185.102 152.172 185.191 152.255 185.369 152.255H187.235C187.68 152.255 187.946 152.089 188.035 151.841C187.946 149.937 187.857 148.364 187.769 146.956C187.68 145.632 187.591 144.473 187.502 143.645C187.502 143.148 187.502 142.651 187.502 142.32C187.502 141.906 187.502 141.575 187.413 141.244C187.324 140.996 187.324 140.747 187.235 140.582C187.146 140.416 186.969 140.333 186.791 140.333H183.947C183.769 140.333 183.68 140.499 183.414 140.83Z" fill="white"/>
<path fill-rule="evenodd" clip-rule="evenodd" d="M192.124 147.122C192.124 147.039 192.39 147.039 192.835 147.039H193.279C194.257 147.122 194.79 147.453 194.79 147.95V148.198C194.79 148.529 194.612 148.778 194.257 149.026C193.901 149.274 193.279 149.357 192.39 149.357H192.124V147.122ZM192.746 142.734H193.101C193.812 142.817 194.257 143.148 194.257 143.645V143.893C194.257 144.059 194.168 144.224 194.079 144.307C193.99 144.473 193.812 144.556 193.635 144.638C193.457 144.721 193.19 144.804 193.012 144.887C192.746 144.969 192.479 144.969 192.213 144.969H192.124V142.817C192.301 142.817 192.479 142.734 192.746 142.734ZM192.479 140.416C189.28 140.83 187.769 141.41 187.769 142.155C187.769 142.238 187.858 142.569 188.035 143.065C188.035 143.148 188.035 143.314 187.947 143.479C187.947 143.645 188.035 143.81 188.302 143.976C188.48 143.976 188.835 143.893 189.369 143.645C189.369 144.721 189.28 145.715 189.28 146.625C189.28 147.536 189.28 148.447 189.28 149.274L189.369 150.765C189.457 151.427 189.635 151.758 189.902 151.758H190.168L190.257 151.841C190.257 152.172 190.968 152.337 192.301 152.337H193.19C193.901 152.337 194.612 152.255 195.145 151.924C195.768 151.675 196.212 151.344 196.656 150.93C197.012 150.516 197.367 150.102 197.545 149.688C197.723 149.274 197.812 148.778 197.812 148.364V148.198C197.812 147.205 197.19 146.377 196.123 145.549V145.466C196.923 144.969 197.278 144.224 197.278 143.314C197.278 142.817 197.101 142.403 196.834 141.989C196.567 141.658 196.301 141.327 195.856 141.079C195.412 140.83 195.057 140.665 194.523 140.499C194.079 140.333 193.546 140.333 193.012 140.333H192.479V140.416Z" fill="white"/>
<path fill-rule="evenodd" clip-rule="evenodd" d="M201.366 140.582C200.833 140.582 200.389 140.582 199.944 140.665C199.5 140.665 199.056 140.747 198.7 140.747C198.345 140.83 197.989 140.913 197.811 140.996C197.545 141.079 197.456 141.244 197.456 141.327C197.545 141.575 197.634 141.824 197.634 142.072L197.723 142.651C197.723 142.817 197.811 142.9 197.811 142.983C197.811 143.065 197.9 143.065 197.989 143.065C198.345 143.148 198.522 143.148 198.522 143.148C198.345 144.804 198.256 146.211 198.256 147.288C198.167 148.364 198.167 149.274 198.167 149.937C198.167 150.847 198.345 151.344 198.522 151.592C198.7 151.675 198.878 151.758 199.056 151.758C199.233 151.841 199.322 151.924 199.411 151.924C200.3 151.924 201.189 151.924 202.166 151.841C203.144 151.758 204.299 151.675 205.455 151.592C206.343 151.51 206.788 151.261 206.788 150.93C206.788 150.765 206.788 150.599 206.699 150.516C206.699 150.433 206.699 150.351 206.699 150.268C206.699 150.185 206.699 150.019 206.877 149.688C206.699 149.357 206.432 149.192 205.988 149.192H205.721C205.277 149.192 204.655 149.192 203.855 149.274C203.055 149.357 202.077 149.44 200.833 149.606V147.122C200.833 147.122 200.922 147.039 201.1 147.039C201.278 147.039 201.544 147.039 201.811 146.956L202.788 146.874C203.144 146.874 203.411 146.874 203.766 146.791C204.033 146.791 204.299 146.708 204.477 146.708C204.655 146.708 204.744 146.625 204.744 146.542C204.833 146.542 204.921 146.128 205.099 145.135C205.099 144.969 205.01 144.887 205.01 144.804C205.01 144.721 204.921 144.638 204.833 144.556C204.744 144.473 204.566 144.473 204.388 144.39C204.21 144.307 203.944 144.307 203.588 144.307H202.966C202.611 144.307 202.344 144.307 201.989 144.307L200.922 144.39C200.922 143.645 201.011 143.148 201.1 142.817C202.166 142.734 202.966 142.651 203.677 142.651C204.299 142.651 204.833 142.569 205.277 142.486C205.721 142.403 205.899 142.403 206.077 142.32C206.255 142.238 206.255 142.072 206.255 141.906L206.077 141.079C205.988 140.83 205.988 140.665 205.899 140.582C205.899 140.499 205.632 140.416 205.099 140.416C204.566 140.333 203.677 140.333 202.611 140.333H201.366V140.582Z" fill="white"/>
<path fill-rule="evenodd" clip-rule="evenodd" d="M211.588 143.148H211.943C212.476 143.231 212.743 143.562 212.832 144.142V144.307C212.832 144.887 212.121 145.301 210.699 145.632C210.699 145.466 210.699 145.135 210.699 144.721C210.699 144.307 210.699 143.81 210.699 143.231C210.965 143.148 211.232 143.148 211.588 143.148ZM211.232 140.333C210.877 140.333 210.61 140.333 210.254 140.333C209.988 140.333 209.632 140.416 209.366 140.416C207.233 140.747 206.166 141.161 206.166 141.658V141.741C206.344 142.403 206.433 142.9 206.433 143.065V143.479C206.433 143.645 206.611 143.728 206.877 143.81C207.233 143.728 207.499 143.645 207.677 143.645C207.499 146.046 207.41 147.867 207.499 149.109C207.499 149.357 207.499 149.688 207.499 150.019C207.499 150.433 207.588 150.765 207.588 151.096C207.677 151.427 207.766 151.758 207.855 152.006C208.033 152.255 208.121 152.337 208.388 152.337L209.366 152.255C209.632 152.255 209.899 152.172 210.077 152.089C210.254 152.006 210.343 151.924 210.521 151.841C210.61 151.758 210.61 151.592 210.61 151.344V148.033C210.788 148.115 211.143 148.364 211.499 148.86C213.987 151.344 215.498 152.751 216.12 153.083C216.565 153.083 216.831 152.751 216.92 152.006C217.364 151.51 217.631 151.013 217.631 150.765C217.631 150.599 217.364 150.268 216.742 149.688C215.765 148.86 214.965 148.198 214.432 147.784C213.898 147.37 213.543 147.039 213.454 146.956C215.231 146.046 216.031 144.887 216.031 143.562C216.031 143.065 215.854 142.569 215.587 142.155C215.32 141.741 214.965 141.41 214.52 141.161C214.076 140.913 213.632 140.665 213.098 140.499C212.565 140.333 212.032 140.333 211.499 140.333H211.232Z" fill="white"/>
<path fill-rule="evenodd" clip-rule="evenodd" d="M219.942 140.416C219.319 140.416 218.786 140.499 218.342 140.747C217.897 140.996 217.542 141.244 217.186 141.575C216.92 141.906 216.653 142.32 216.475 142.734C216.298 143.148 216.298 143.645 216.298 144.059V144.224C216.298 144.556 216.387 144.887 216.475 145.135C216.564 145.383 216.742 145.715 217.009 145.963C217.275 146.211 217.631 146.46 218.075 146.708C218.52 146.956 219.142 147.122 219.853 147.37C221.275 147.784 221.986 148.281 221.986 148.943V149.026C221.897 149.606 221.541 149.854 220.919 149.854H220.83C220.297 149.854 219.764 149.688 219.142 149.274C218.52 148.778 218.164 148.447 218.075 148.447C217.897 148.447 217.631 148.778 217.275 149.357C216.653 149.688 216.298 150.019 216.387 150.351C216.387 150.682 216.564 151.096 216.831 151.344C217.098 151.675 217.453 151.924 217.897 152.089C218.342 152.337 218.697 152.503 219.142 152.586C219.586 152.669 219.942 152.751 220.208 152.751H220.564C221.008 152.751 221.541 152.669 222.252 152.42C224.03 151.592 224.83 150.433 224.83 148.943V148.695C224.741 147.122 223.852 145.963 221.986 145.383C220.297 144.969 219.497 144.473 219.497 143.893C219.497 143.562 219.764 143.397 220.386 143.314H220.741C221.275 143.314 221.986 143.562 222.697 143.976C223.497 142.983 223.941 142.32 223.941 141.989V141.906C222.874 140.83 221.541 140.333 220.119 140.333H219.942V140.416Z" fill="white"/>
<path fill-rule="evenodd" clip-rule="evenodd" d="M227.318 140.582C225.985 140.747 225.363 140.913 225.363 140.996C225.096 143.231 225.008 145.797 225.185 148.695L225.274 151.096C225.274 151.841 225.452 152.255 225.719 152.255H226.696C226.785 152.255 226.874 152.255 226.963 152.255C227.052 152.255 227.141 152.255 227.318 152.255C227.763 152.255 228.029 152.172 228.207 152.089C228.385 151.924 228.474 151.758 228.474 151.344V147.536C228.474 146.791 228.474 145.88 228.474 144.721C228.474 143.645 228.474 142.32 228.474 140.747C228.385 140.499 228.296 140.333 228.118 140.333C227.763 140.333 227.585 140.416 227.318 140.582Z" fill="white"/>
<path fill-rule="evenodd" clip-rule="evenodd" d="M233.717 140.499C232.295 140.582 230.696 140.747 228.74 140.913C228.207 140.913 227.94 141.161 227.852 141.741C227.94 142.072 227.94 142.238 227.94 142.238L227.852 143.148C227.852 143.397 227.94 143.562 228.207 143.645C228.296 143.645 228.563 143.645 229.096 143.562L231.495 143.397C231.407 144.638 231.318 145.797 231.229 146.708C231.229 147.701 231.14 148.447 231.229 149.192C231.318 151.013 231.495 151.924 231.762 151.924C232.295 151.924 232.74 152.006 233.095 152.089C234.162 152.089 234.695 151.841 234.695 151.344C234.517 150.102 234.517 149.109 234.517 148.447L234.428 146.956C234.428 146.377 234.428 145.797 234.428 145.218C234.428 144.556 234.428 143.893 234.428 143.148C234.962 143.148 235.495 143.148 235.939 143.065C236.384 143.065 236.739 142.983 237.095 142.9C237.361 142.817 237.628 142.734 237.806 142.486C237.983 142.32 238.072 142.072 237.983 141.824C237.983 141.658 237.983 141.492 237.894 141.327L238.072 140.913C238.072 140.665 237.717 140.416 237.095 140.333C236.206 140.333 235.05 140.416 233.717 140.499Z" fill="white"/>
<path fill-rule="evenodd" clip-rule="evenodd" d="M240.561 140.582C240.027 140.582 239.583 140.582 239.139 140.665C238.694 140.665 238.25 140.747 237.894 140.747C237.539 140.83 237.183 140.913 237.006 140.996C236.739 141.079 236.65 141.244 236.65 141.327C236.739 141.575 236.828 141.824 236.828 142.072L236.917 142.651C236.917 142.817 237.006 142.9 237.006 142.983C237.006 143.065 237.094 143.065 237.183 143.065C237.539 143.148 237.717 143.148 237.717 143.148C237.628 144.804 237.45 146.211 237.45 147.288C237.361 148.364 237.361 149.274 237.45 149.937C237.45 150.847 237.539 151.344 237.805 151.592C237.983 151.675 238.161 151.758 238.339 151.758C238.516 151.841 238.605 151.924 238.694 151.924C239.494 151.924 240.472 151.924 241.449 151.841C242.427 151.758 243.582 151.675 244.738 151.592C245.626 151.51 246.071 151.261 246.071 150.93C246.071 150.765 245.982 150.599 245.982 150.516C245.982 150.433 245.982 150.351 245.982 150.268C245.982 150.185 245.982 150.019 246.16 149.688C245.982 149.357 245.715 149.192 245.271 149.192H245.004C244.56 149.192 243.938 149.192 243.138 149.274C242.338 149.357 241.36 149.44 240.116 149.606V147.122C240.116 147.122 240.205 147.039 240.383 147.039C240.561 147.039 240.827 147.039 241.094 146.956L242.071 146.874C242.427 146.874 242.694 146.874 243.049 146.791C243.316 146.791 243.582 146.708 243.76 146.708C243.938 146.708 244.027 146.625 244.027 146.542C244.116 146.542 244.204 146.128 244.382 145.135C244.382 144.969 244.293 144.887 244.293 144.804C244.204 144.721 244.204 144.638 244.116 144.556C244.027 144.473 243.849 144.473 243.671 144.39C243.493 144.39 243.227 144.307 242.871 144.307H242.249C241.894 144.307 241.627 144.307 241.272 144.307L240.205 144.39C240.294 143.645 240.294 143.148 240.383 142.817C241.449 142.734 242.249 142.651 242.96 142.651C243.671 142.651 244.116 142.569 244.56 142.486C244.915 142.403 245.182 142.403 245.36 142.32C245.538 142.238 245.538 142.072 245.538 141.906L245.36 141.079C245.271 140.83 245.271 140.665 245.182 140.582C245.182 140.499 244.915 140.416 244.382 140.416C243.849 140.333 242.96 140.333 241.894 140.333H240.561V140.582Z" fill="white"/>
<path fill-rule="evenodd" clip-rule="evenodd" d="M249.27 140.416C248.648 140.416 248.115 140.499 247.671 140.747C247.226 140.996 246.871 141.244 246.515 141.575C246.249 141.906 245.982 142.32 245.804 142.734C245.626 143.148 245.626 143.645 245.626 144.059V144.224C245.626 144.556 245.715 144.887 245.804 145.135C245.893 145.383 246.071 145.715 246.337 145.963C246.604 146.211 246.96 146.46 247.404 146.708C247.848 146.956 248.47 147.122 249.181 147.37C250.603 147.784 251.314 148.281 251.314 148.943V149.026C251.225 149.606 250.87 149.854 250.248 149.854H250.159C249.626 149.854 249.093 149.688 248.47 149.274C247.848 148.778 247.493 148.447 247.404 148.447C247.226 148.447 246.96 148.778 246.604 149.357C245.982 149.688 245.626 150.019 245.715 150.351C245.715 150.682 245.893 151.096 246.16 151.344C246.426 151.675 246.782 151.924 247.226 152.089C247.671 152.337 248.026 152.503 248.47 152.586C248.915 152.669 249.27 152.751 249.537 152.751H249.892C250.337 152.751 250.87 152.669 251.581 152.42C253.359 151.592 254.158 150.433 254.158 148.943V148.695C254.07 147.122 253.181 145.963 251.314 145.383C249.626 144.969 248.826 144.473 248.826 143.893C248.826 143.562 249.092 143.397 249.803 143.314H250.159C250.781 143.314 251.403 143.562 252.114 143.976C252.914 142.983 253.359 142.32 253.359 141.989V141.906C252.292 140.83 250.959 140.333 249.537 140.333H249.27V140.416Z" fill="white"/>
</svg>
