<svg width="58" height="84" viewBox="0 0 58 84" fill="none" xmlns="http://www.w3.org/2000/svg">
<path fill-rule="evenodd" clip-rule="evenodd" d="M29 0C6.6 0 1 5.59978 1 28C1 50.4002 6.59978 56 29 56C51.4002 56 57 50.4002 57 28C57 5.59978 51.4002 0 29 0Z" fill="white"/>
<path d="M31.9069 26.9955L27.4697 24.4325L37.2044 9.9353L39.5945 11.3155L31.9069 26.9955Z" fill="#1A1A1C"/>
<path d="M31.7671 28.7295L29.2041 24.2923L44.8841 16.6047L46.2643 18.9948L31.7671 28.7295Z" fill="#1A1A1C"/>
<path d="M30.7783 30.1616V25.0383L48.2005 26.2198V28.9801L30.7783 30.1616Z" fill="#1A1A1C"/>
<path d="M29.2041 30.9072L31.7671 26.47L46.2643 36.2046L44.8841 38.5948L29.2041 30.9072Z" fill="#1A1A1C"/>
<path d="M27.4697 30.7673L31.9069 28.2043L39.5945 43.8843L37.2044 45.2645L27.4697 30.7673Z" fill="#1A1A1C"/>
<path d="M26.0381 29.7776H31.1613L29.9799 47.1998H27.2195L26.0381 29.7776Z" fill="#1A1A1C"/>
<path d="M25.292 28.2043L29.7293 30.7673L19.9946 45.2645L17.6045 43.8843L25.292 28.2043Z" fill="#1A1A1C"/>
<path d="M25.4327 26.47L27.9957 30.9072L12.3157 38.5948L10.9355 36.2046L25.4327 26.47Z" fill="#1A1A1C"/>
<path d="M26.4222 25.0383V30.1616L9 28.9801V26.2198L26.4222 25.0383Z" fill="#1A1A1C"/>
<path d="M27.9957 24.2923L25.4327 28.7295L10.9355 18.9948L12.3157 16.6047L27.9957 24.2923Z" fill="#1A1A1C"/>
<path d="M29.7293 24.4325L25.292 26.9955L17.6045 11.3155L19.9946 9.9353L29.7293 24.4325Z" fill="#1A1A1C"/>
<path d="M31.1613 25.4222H26.0381L27.2195 8H29.9799L31.1613 25.4222Z" fill="#1A1A1C"/>
<path d="M28.5996 40.6828C35.8251 40.6828 41.6826 34.8254 41.6826 27.5998C41.6826 20.3743 35.8251 14.5168 28.5996 14.5168C21.3741 14.5168 15.5166 20.3743 15.5166 27.5998C15.5166 34.8254 21.3741 40.6828 28.5996 40.6828Z" fill="white"/>
<path d="M28.5998 14.5334C31.1842 14.5334 33.7105 15.2997 35.8593 16.7355C38.0081 18.1713 39.6829 20.212 40.6718 22.5997C41.6608 24.9873 41.9196 27.6145 41.4154 30.1492C40.9112 32.6839 39.6667 35.0122 37.8393 36.8396C36.0119 38.667 33.6837 39.9115 31.149 40.4156C28.6143 40.9198 25.987 40.6611 23.5994 39.6721C21.2118 38.6831 19.1711 37.0083 17.7353 34.8595C16.2995 32.7107 15.5331 30.1844 15.5331 27.6C15.5371 24.1358 16.915 20.8145 19.3647 18.3649C21.8143 15.9153 25.1355 14.5373 28.5998 14.5334ZM28.5998 11.675C25.4501 11.675 22.3712 12.609 19.7524 14.3589C17.1335 16.1088 15.0924 18.5959 13.887 21.5058C12.6817 24.4157 12.3663 27.6177 12.9808 30.7069C13.5953 33.796 15.112 36.6336 17.3391 38.8607C19.5663 41.0879 22.4039 42.6046 25.493 43.2191C28.5821 43.8335 31.7841 43.5182 34.694 42.3128C37.604 41.1075 40.0911 39.0664 41.841 36.4475C43.5908 33.8287 44.5248 30.7497 44.5248 27.6C44.5248 23.3765 42.847 19.3259 39.8605 16.3394C36.874 13.3529 32.8234 11.675 28.5998 11.675Z" fill="#1A1A1C"/>
<path d="M44.4248 25.9692H30.7783V29.2318H44.4248V25.9692Z" fill="#1A1A1C"/>
<path d="M28.5997 31.0846C30.5241 31.0846 32.0841 29.5246 32.0841 27.6002C32.0841 25.6758 30.5241 24.1157 28.5997 24.1157C26.6753 24.1157 25.1152 25.6758 25.1152 27.6002C25.1152 29.5246 26.6753 31.0846 28.5997 31.0846Z" fill="#1A1A1C"/>
<path d="M28.6011 25.5446C29.0076 25.5446 29.405 25.6652 29.743 25.891C30.081 26.1168 30.3444 26.4378 30.4999 26.8134C30.6555 27.1889 30.6962 27.6022 30.6169 28.0009C30.5376 28.3995 30.3418 28.7658 30.0544 29.0532C29.767 29.3406 29.4008 29.5364 29.0021 29.6157C28.6034 29.695 28.1901 29.6543 27.8146 29.4987C27.439 29.3432 27.118 29.0797 26.8922 28.7417C26.6664 28.4038 26.5458 28.0064 26.5458 27.5999C26.5469 27.0551 26.7638 26.533 27.149 26.1478C27.5342 25.7626 28.0564 25.5457 28.6011 25.5446ZM28.6011 22.6863C27.6293 22.6863 26.6793 22.9745 25.8713 23.5144C25.0632 24.0543 24.4334 24.8217 24.0615 25.7195C23.6896 26.6174 23.5923 27.6053 23.7819 28.5585C23.9715 29.5116 24.4395 30.3872 25.1267 31.0743C25.8138 31.7615 26.6894 32.2295 27.6425 32.4191C28.5957 32.6087 29.5836 32.5114 30.4815 32.1395C31.3793 31.7676 32.1467 31.1378 32.6866 30.3297C33.2265 29.5217 33.5147 28.5717 33.5147 27.5999C33.5147 26.2967 32.997 25.0469 32.0756 24.1254C31.1541 23.204 29.9043 22.6863 28.6011 22.6863Z" fill="#1A1A1C"/>
<path d="M8.33974 69.9841H3.45574C3.16774 69.9841 2.93974 69.7441 2.93974 69.4561V66.1441C2.93974 65.8561 3.16774 65.6161 3.45574 65.6161H8.33974V63.6001H2.45974C1.45174 63.6001 0.635742 64.4641 0.635742 65.4241V70.1761C0.635742 71.1841 1.49974 72.0001 2.45974 72.0001H8.33974V69.9841Z" fill="white"/>
<path d="M9.39106 63.6001V72.0001H11.6951V69.2881H13.6631L15.1871 72.0001H17.6831L16.1471 69.2761C17.0351 69.1441 17.6951 68.3521 17.6951 67.4641V65.4241C17.6951 64.4161 16.8311 63.6001 15.8711 63.6001H9.39106ZM15.3911 66.7441C15.3911 67.0321 15.1631 67.2721 14.8751 67.2721H11.6951V65.6161H14.8751C15.1631 65.6161 15.3911 65.8561 15.3911 66.1441V66.7441Z" fill="white"/>
<path d="M26.1195 69.9841H21.1755V68.7361H25.1955V66.7201H21.1755V65.6161H26.1195V63.6001H18.8715V72.0001H26.1195V69.9841Z" fill="white"/>
<path d="M34.9854 63.6001H26.9214V65.6161H29.8134V72.0001H32.1174V65.6161H34.9854V63.6001Z" fill="white"/>
<path d="M35.8403 63.6001V72.0001H38.1443V69.2881H40.1123L41.6363 72.0001H44.1323L42.5963 69.2761C43.4843 69.1441 44.1443 68.3521 44.1443 67.4641V65.4241C44.1443 64.4161 43.2803 63.6001 42.3203 63.6001H35.8403ZM41.8403 66.7441C41.8403 67.0321 41.6123 67.2721 41.3243 67.2721H38.1443V65.6161H41.3243C41.6123 65.6161 41.8403 65.8561 41.8403 66.1441V66.7441Z" fill="white"/>
<path d="M45.3207 63.6001V72.0001H47.6247V63.6001H45.3207Z" fill="white"/>
<path d="M48.4839 72.0001H50.9919L52.8759 69.4801L54.7599 72.0001H57.2679L54.1239 67.8001L57.2679 63.6001H54.7599L52.8759 66.1201L50.9919 63.6001H48.4839L51.6159 67.8001L48.4839 72.0001Z" fill="white"/>
<path d="M21.8037 83.2783C22.1318 83.2783 22.4395 83.2158 22.7266 83.0908C23.0156 82.9658 23.2705 82.793 23.4912 82.5723C23.7119 82.3516 23.8848 82.0977 24.0098 81.8105C24.1348 81.5215 24.1973 81.2129 24.1973 80.8848C24.1973 80.5586 24.1348 80.251 24.0098 79.9619C23.8848 79.6729 23.7119 79.418 23.4912 79.1973C23.2705 78.9766 23.0156 78.8037 22.7266 78.6787C22.4375 78.5537 22.1289 78.4912 21.8008 78.4912C21.4746 78.4912 21.167 78.5537 20.8779 78.6787C20.5889 78.8037 20.334 78.9766 20.1133 79.1973C19.8945 79.418 19.7227 79.6729 19.5977 79.9619C19.4727 80.251 19.4102 80.5586 19.4102 80.8848C19.4102 81.2129 19.4727 81.5215 19.5977 81.8105C19.7227 82.0977 19.8955 82.3516 20.1162 82.5723C20.3369 82.793 20.5908 82.9658 20.8779 83.0908C21.167 83.2158 21.4756 83.2783 21.8037 83.2783ZM21.8037 82.7598C21.5439 82.7598 21.3008 82.7119 21.0742 82.6162C20.8496 82.5186 20.6514 82.3838 20.4795 82.2119C20.3096 82.04 20.1758 81.8408 20.0781 81.6143C19.9824 81.3877 19.9346 81.1445 19.9346 80.8848C19.9346 80.625 19.9824 80.3818 20.0781 80.1553C20.1738 79.9287 20.3066 79.7305 20.4766 79.5605C20.6484 79.3887 20.8467 79.2549 21.0713 79.1592C21.2979 79.0615 21.541 79.0127 21.8008 79.0127C22.0605 79.0127 22.3037 79.0615 22.5303 79.1592C22.7568 79.2549 22.9561 79.3887 23.1279 79.5605C23.2998 79.7305 23.4336 79.9287 23.5293 80.1553C23.627 80.3818 23.6758 80.625 23.6758 80.8848C23.6758 81.1445 23.627 81.3877 23.5293 81.6143C23.4336 81.8408 23.3008 82.04 23.1309 82.2119C22.9609 82.3838 22.7617 82.5186 22.5332 82.6162C22.3066 82.7119 22.0635 82.7598 21.8037 82.7598ZM21.7979 81.9629C22.0029 81.9629 22.1816 81.9199 22.334 81.834C22.4863 81.7461 22.5938 81.626 22.6562 81.4736C22.6641 81.4541 22.6699 81.4346 22.6738 81.415C22.6797 81.3936 22.6826 81.3711 22.6826 81.3477C22.6826 81.2871 22.6631 81.2393 22.624 81.2041C22.5869 81.1689 22.5361 81.1514 22.4717 81.1514C22.3857 81.1514 22.3184 81.1963 22.2695 81.2861C22.2227 81.3799 22.1602 81.4502 22.082 81.4971C22.0039 81.5439 21.9111 81.5674 21.8037 81.5674C21.6436 81.5674 21.5156 81.5039 21.4199 81.377C21.3262 81.25 21.2793 81.0801 21.2793 80.8672C21.2793 80.6523 21.3262 80.4814 21.4199 80.3545C21.5156 80.2256 21.6436 80.1611 21.8037 80.1611C21.9111 80.1611 22.0039 80.1846 22.082 80.2314C22.1602 80.2783 22.2236 80.3486 22.2725 80.4424C22.2979 80.4912 22.3252 80.5264 22.3545 80.5479C22.3857 80.5693 22.4248 80.5801 22.4717 80.5801C22.5361 80.5801 22.5869 80.5625 22.624 80.5273C22.6631 80.4922 22.6826 80.4434 22.6826 80.3809C22.6826 80.3574 22.6797 80.3369 22.6738 80.3193C22.6699 80.2998 22.6641 80.2783 22.6562 80.2549C22.5938 80.1025 22.4854 79.9834 22.3311 79.8975C22.1787 79.8096 22.001 79.7656 21.7979 79.7656C21.4893 79.7656 21.2441 79.8652 21.0625 80.0645C20.8828 80.2617 20.793 80.5293 20.793 80.8672C20.793 81.2012 20.8828 81.4678 21.0625 81.667C21.2441 81.8643 21.4893 81.9629 21.7979 81.9629Z" fill="white"/>
<path d="M25.3615 83H28.215V82.4375H26.0939L26.2609 82.5518V82.2559L26.091 82.5518L27.1574 81.4883C27.4133 81.2344 27.6125 81.0176 27.7551 80.8379C27.8996 80.6582 28.0012 80.4932 28.0598 80.3428C28.1184 80.1924 28.1477 80.0371 28.1477 79.877V79.8682C28.1477 79.6357 28.0881 79.4297 27.9689 79.25C27.8498 79.0684 27.6867 78.9268 27.4797 78.8252C27.2746 78.7217 27.0412 78.6699 26.7795 78.6699C26.4963 78.6699 26.2453 78.7266 26.0266 78.8398C25.8078 78.9512 25.6369 79.1064 25.5139 79.3057C25.3908 79.5029 25.3283 79.7305 25.3264 79.9883L25.3293 79.9941L25.9504 79.9971V79.9854C25.9504 79.8311 25.9836 79.6963 26.05 79.5811C26.1164 79.4658 26.2092 79.376 26.3283 79.3115C26.4475 79.2471 26.5852 79.2148 26.7414 79.2148C26.8957 79.2148 27.0285 79.2461 27.1398 79.3086C27.2512 79.3691 27.3361 79.4541 27.3947 79.5635C27.4553 79.6709 27.4855 79.7939 27.4855 79.9326V79.9385C27.4855 80.0537 27.4641 80.1611 27.4211 80.2607C27.3801 80.3604 27.3078 80.4736 27.2043 80.6006C27.1008 80.7256 26.9553 80.8857 26.7678 81.0811L25.3615 82.5518V83Z" fill="white"/>
<path d="M30.8646 83.1025C31.1908 83.1025 31.4701 83.0127 31.7025 82.833C31.935 82.6533 32.1137 82.3984 32.2387 82.0684C32.3656 81.7363 32.4291 81.3428 32.4291 80.8877V80.8818C32.4291 80.4268 32.3656 80.0342 32.2387 79.7041C32.1137 79.374 31.935 79.1191 31.7025 78.9395C31.4701 78.7598 31.1908 78.6699 30.8646 78.6699C30.5385 78.6699 30.2592 78.7598 30.0268 78.9395C29.7943 79.1191 29.6156 79.374 29.4906 79.7041C29.3656 80.0342 29.3031 80.4268 29.3031 80.8818V80.8877C29.3031 81.3428 29.3656 81.7363 29.4906 82.0684C29.6156 82.3984 29.7943 82.6533 30.0268 82.833C30.2592 83.0127 30.5385 83.1025 30.8646 83.1025ZM30.8646 82.5547C30.6771 82.5547 30.516 82.4873 30.3813 82.3525C30.2484 82.2178 30.1459 82.0264 30.0736 81.7783C30.0033 81.5283 29.9682 81.2314 29.9682 80.8877V80.8818C29.9682 80.5381 30.0033 80.2422 30.0736 79.9941C30.1459 79.7461 30.2484 79.5557 30.3813 79.4229C30.516 79.2881 30.6771 79.2207 30.8646 79.2207C31.0541 79.2207 31.2152 79.2881 31.348 79.4229C31.4828 79.5557 31.5854 79.7461 31.6557 79.9941C31.7279 80.2422 31.7641 80.5381 31.7641 80.8818V80.8877C31.7641 81.2314 31.7279 81.5283 31.6557 81.7783C31.5854 82.0264 31.4828 82.2178 31.348 82.3525C31.2152 82.4873 31.0541 82.5547 30.8646 82.5547Z" fill="white"/>
<path d="M34.607 83H35.2662V78.7725H34.61L33.4967 79.5635V80.208L34.5602 79.4492H34.607V83Z" fill="white"/>
<path d="M37.7957 83H38.4549V78.7725H37.7986L36.6854 79.5635V80.208L37.7488 79.4492H37.7957V83Z" fill="white"/>
</svg>
