<svg width="16" height="18" viewBox="0 0 16 18" fill="none" xmlns="http://www.w3.org/2000/svg">
<path fill-rule="evenodd" clip-rule="evenodd" d="M8 0.998047C1.6 0.998047 0 2.60066 0 9.01143C0 15.4222 1.59994 17.0248 8 17.0248C14.4001 17.0248 16 15.4222 16 9.01143C16 2.60066 14.4001 0.998047 8 0.998047Z" fill="#3CAEED"/>
<path d="M8.91782 8.70647L7.5332 7.90537L10.5709 3.37402L11.3167 3.80542L8.91782 8.70647Z" fill="#1A1A1C"/>
<path d="M8.87301 9.24879L8.07324 7.86186L12.9661 5.45898L13.3968 6.20606L8.87301 9.24879Z" fill="#1A1A1C"/>
<path d="M8.56348 9.69608V8.09473L14 8.46401V9.3268L8.56348 9.69608Z" fill="#1A1A1C"/>
<path d="M8.07324 9.92892L8.87301 8.54199L13.3968 11.5847L12.9661 12.3318L8.07324 9.92892Z" fill="#1A1A1C"/>
<path d="M7.5332 9.88557L8.91782 9.08447L11.3167 13.9855L10.5709 14.4169L7.5332 9.88557Z" fill="#1A1A1C"/>
<path d="M7.08496 9.57715H8.68364L8.31497 15.0228H7.45363L7.08496 9.57715Z" fill="#1A1A1C"/>
<path d="M6.85394 9.08447L8.23856 9.88557L5.2009 14.4169L4.45508 13.9855L6.85394 9.08447Z" fill="#1A1A1C"/>
<path d="M6.89683 8.54199L7.69659 9.92892L2.80372 12.3318L2.37305 11.5847L6.89683 8.54199Z" fill="#1A1A1C"/>
<path d="M7.20508 8.09473V9.69608L1.76855 9.3268V8.46401L7.20508 8.09473Z" fill="#1A1A1C"/>
<path d="M7.69659 7.86186L6.89683 9.24879L2.37305 6.20606L2.80372 5.45898L7.69659 7.86186Z" fill="#1A1A1C"/>
<path d="M8.23856 7.90537L6.85394 8.70647L4.45508 3.80542L5.2009 3.37402L8.23856 7.90537Z" fill="#1A1A1C"/>
<path d="M8.68364 8.21515H7.08496L7.45363 2.76953H8.31497L8.68364 8.21515Z" fill="#1A1A1C"/>
<path d="M7.88327 12.9858C10.138 12.9858 11.9658 11.1549 11.9658 8.89645C11.9658 6.63798 10.138 4.80713 7.88327 4.80713C5.62857 4.80713 3.80078 6.63798 3.80078 8.89645C3.80078 11.1549 5.62857 12.9858 7.88327 12.9858Z" fill="white"/>
<path d="M7.88436 4.81139C8.69079 4.81139 9.47912 5.05093 10.1496 5.4997C10.8202 5.94848 11.3428 6.58635 11.6514 7.33264C11.96 8.07894 12.0407 8.90013 11.8834 9.69239C11.7261 10.4847 11.3377 11.2124 10.7675 11.7836C10.1973 12.3548 9.47076 12.7438 8.67982 12.9013C7.88889 13.0589 7.06906 12.978 6.32401 12.6689C5.57897 12.3598 4.94216 11.8363 4.49414 11.1647C4.04611 10.493 3.80697 9.70339 3.80697 8.8956C3.80821 7.81278 4.23819 6.77467 5.00258 6.009C5.76697 5.24333 6.80335 4.81263 7.88436 4.81139ZM7.88436 3.91797C6.90152 3.91797 5.94076 4.2099 5.12356 4.75685C4.30635 5.3038 3.66942 6.0812 3.29331 6.99075C2.91719 7.90029 2.81878 8.90113 3.01053 9.86669C3.20227 10.8323 3.67555 11.7192 4.37052 12.4153C5.06549 13.1115 5.95094 13.5855 6.9149 13.7776C7.87885 13.9697 8.87801 13.8711 9.78604 13.4943C10.6941 13.1176 11.4702 12.4796 12.0162 11.661C12.5622 10.8425 12.8537 9.88009 12.8537 8.8956C12.8537 7.57545 12.3301 6.30937 11.3982 5.37588C10.4663 4.4424 9.20231 3.91797 7.88436 3.91797Z" fill="#1A1A1C"/>
<path d="M12.8218 8.38525H8.56348V9.40503H12.8218V8.38525Z" fill="#1A1A1C"/>
<path d="M7.8832 9.98538C8.4837 9.98538 8.97051 9.49776 8.97051 8.89625C8.97051 8.29475 8.4837 7.80713 7.8832 7.80713C7.2827 7.80713 6.7959 8.29475 6.7959 8.89625C6.7959 9.49776 7.2827 9.98538 7.8832 9.98538Z" fill="#1A1A1C"/>
<path d="M7.88483 8.25377C8.01168 8.25377 8.13567 8.29145 8.24114 8.36204C8.34661 8.43263 8.42881 8.53296 8.47735 8.65035C8.52589 8.76773 8.5386 8.8969 8.51385 9.02151C8.4891 9.14613 8.42802 9.2606 8.33833 9.35044C8.24863 9.44028 8.13436 9.50147 8.00995 9.52625C7.88554 9.55104 7.75659 9.53832 7.6394 9.4897C7.52221 9.44107 7.42205 9.35874 7.35158 9.25309C7.28111 9.14745 7.24349 9.02324 7.24349 8.89619C7.24383 8.72591 7.31151 8.56271 7.43171 8.4423C7.55191 8.3219 7.71484 8.25411 7.88483 8.25377ZM7.88483 7.36035C7.58158 7.36035 7.28514 7.45043 7.03299 7.61919C6.78085 7.78795 6.58433 8.02781 6.46828 8.30845C6.35223 8.58908 6.32186 8.89789 6.38102 9.19581C6.44019 9.49373 6.58622 9.76739 6.80065 9.98218C7.01508 10.197 7.28828 10.3432 7.58571 10.4025C7.88313 10.4618 8.19142 10.4314 8.47159 10.3151C8.75176 10.1989 8.99122 10.002 9.1597 9.74945C9.32818 9.49688 9.4181 9.19995 9.4181 8.89619C9.4181 8.48886 9.25656 8.09821 8.96902 7.81019C8.68147 7.52216 8.29148 7.36035 7.88483 7.36035Z" fill="#1A1A1C"/>
</svg>
