<svg width="186" height="224" viewBox="0 0 186 224" fill="none" xmlns="http://www.w3.org/2000/svg">
<rect width="186" height="224" fill="#8BF4CA"/>
<path d="M151.728 91.8131C151.725 91.7807 151.724 91.7501 151.718 91.7177C151.712 91.6728 151.694 91.6323 151.68 91.5873C151.663 91.5369 151.65 91.4893 151.624 91.4425C151.615 91.4254 151.616 91.4074 151.606 91.3912C151.6 91.3795 151.587 91.3732 151.579 91.3624C151.571 91.3498 151.57 91.3336 151.561 91.321L146.977 84.8228C146.962 84.8012 146.939 84.7904 146.922 84.7716C146.879 84.7203 146.833 84.6789 146.781 84.6375C146.734 84.5997 146.689 84.5629 146.636 84.5368C146.579 84.5071 146.521 84.4882 146.459 84.4684C146.4 84.4504 146.342 84.436 146.28 84.4306C146.253 84.4279 146.229 84.4126 146.2 84.4126L131.444 84.2138L123.518 79.6253L123.33 71.5538C123.33 71.5278 123.315 71.5062 123.313 71.4801C123.306 71.4171 123.289 71.3578 123.273 71.2966C123.253 71.2363 123.235 71.1796 123.206 71.1239C123.179 71.0708 123.143 71.0267 123.105 70.9808C123.066 70.9305 123.027 70.8855 122.977 70.8441C122.933 70.8063 122.885 70.7767 122.832 70.7488C122.774 70.7155 122.715 70.6867 122.649 70.6678C122.623 70.6588 122.605 70.6408 122.578 70.6354L111.244 68.016C111.191 68.0034 111.139 68.0133 111.085 68.0106C111.026 68.0052 110.969 67.9953 110.909 68.0025C110.826 68.0124 110.752 68.0421 110.674 68.0736C110.641 68.088 110.603 68.088 110.57 68.1042L99.8522 73.8323H87.9471L77.4361 68.1079C77.3758 68.0755 77.3083 68.0683 77.2463 68.0485C77.2022 68.0341 77.1626 68.0152 77.1149 68.0071C77.0367 67.9954 76.9602 68.0035 76.882 68.0125C76.8406 68.0152 76.801 68.0044 76.7578 68.0134L65.3231 70.6328C65.3105 70.6364 65.3015 70.6445 65.2881 70.6499C65.2017 70.6733 65.1252 70.7102 65.0479 70.7579C65.0155 70.7785 64.9795 70.7929 64.9498 70.8163C64.8905 70.864 64.8437 70.9198 64.7978 70.98C64.7645 71.0196 64.7294 71.0583 64.7034 71.1042C64.6737 71.1581 64.6566 71.2175 64.6359 71.2787C64.6143 71.3407 64.5945 71.4001 64.5873 71.4667C64.5846 71.4865 64.5729 71.5027 64.572 71.5225L64.0989 79.611L55.959 84.2147L41.2454 84.4135C41.2247 84.4135 41.2076 84.4234 41.1869 84.4261C41.1177 84.4315 41.0529 84.4495 40.9854 84.4684C40.9297 84.4863 40.8757 84.498 40.8253 84.525C40.7695 84.552 40.7237 84.5925 40.6742 84.6294C40.6229 84.6689 40.5734 84.7076 40.5312 84.7571C40.5168 84.7742 40.4979 84.7814 40.4844 84.7985L35.6009 91.2958C35.5892 91.3111 35.5883 91.3282 35.5775 91.3426C35.5685 91.3569 35.5532 91.3641 35.5451 91.3785C35.5325 91.4001 35.5325 91.4235 35.5208 91.4469C35.4992 91.4892 35.4812 91.5306 35.4651 91.5782C35.4525 91.6169 35.4381 91.6556 35.4318 91.697C35.4237 91.7365 35.4228 91.777 35.4201 91.8184C35.4174 91.8445 35.4057 91.8634 35.4057 91.8895L35.6 110.376L35.537 110.407C35.5127 110.419 35.4992 110.439 35.4776 110.454C35.4543 110.466 35.4291 110.469 35.4066 110.484C35.3832 110.501 35.3733 110.526 35.3526 110.544C35.3202 110.571 35.2869 110.591 35.2582 110.624C35.2321 110.651 35.2168 110.683 35.1952 110.711C35.1655 110.752 35.1394 110.792 35.1169 110.839C35.0998 110.871 35.081 110.902 35.0666 110.937C35.054 110.972 35.0486 111.006 35.0396 111.043C35.027 111.096 35.0198 111.146 35.0153 111.201C35.0144 111.228 35 111.253 35 111.281L35.2015 131.582C35.2015 131.615 35.2186 131.645 35.2222 131.677C35.2303 131.742 35.242 131.802 35.2609 131.864C35.2825 131.93 35.3085 131.988 35.3418 132.046C35.3589 132.075 35.3625 132.106 35.3805 132.133L40.0148 138.631C40.0274 138.649 40.0472 138.655 40.0598 138.67C40.0814 138.697 40.0922 138.727 40.1156 138.75C40.166 138.8 40.2289 138.83 40.2901 138.869C40.2937 138.872 40.2991 138.877 40.3045 138.879C40.3342 138.899 40.3585 138.924 40.3899 138.939C40.4016 138.944 40.4106 138.953 40.4205 138.957C40.4862 138.986 40.5582 138.989 40.631 139.002C40.6841 139.012 40.7327 139.037 40.7893 139.037L55.502 139.236L63.4224 143.727L63.6104 151.793C63.6104 151.817 63.623 151.837 63.6257 151.862C63.632 151.924 63.6491 151.984 63.6653 152.045C63.677 152.083 63.677 152.125 63.6923 152.16C63.7022 152.184 63.7193 152.198 63.731 152.219C63.758 152.272 63.793 152.316 63.829 152.362C63.856 152.394 63.8704 152.434 63.9001 152.462C63.9181 152.479 63.9415 152.488 63.9595 152.502C64.0035 152.538 64.0512 152.567 64.1016 152.595C64.1376 152.616 64.1673 152.648 64.2059 152.664C64.2302 152.674 64.2599 152.672 64.286 152.681C64.3103 152.689 64.3283 152.707 64.3544 152.712L75.7388 155.431C75.8135 155.449 75.8873 155.458 75.9619 155.458H75.9628H75.9754C75.9907 155.458 76.0024 155.45 76.0177 155.449C76.1211 155.443 76.2219 155.422 76.3154 155.384C76.3424 155.374 76.364 155.361 76.3901 155.349C76.4018 155.344 76.4135 155.346 76.4234 155.34L87.1394 149.513H98.9844L109.495 155.336C109.51 155.344 109.524 155.342 109.537 155.346C109.564 155.362 109.588 155.376 109.617 155.388C109.725 155.429 109.841 155.457 109.962 155.457H109.963H109.973C109.979 155.457 109.982 155.454 109.988 155.454C110.055 155.452 110.122 155.446 110.187 155.43L121.622 152.711C121.646 152.704 121.661 152.689 121.685 152.682C121.712 152.673 121.743 152.672 121.77 152.66C121.809 152.643 121.84 152.613 121.877 152.593C121.922 152.566 121.967 152.54 122.01 152.507C122.031 152.489 122.053 152.478 122.073 152.457C122.103 152.427 122.122 152.389 122.15 152.356C122.182 152.314 122.216 152.276 122.239 152.23C122.253 152.204 122.268 152.183 122.279 152.156C122.297 152.119 122.302 152.076 122.312 152.032C122.327 151.981 122.342 151.932 122.35 151.879C122.352 151.859 122.362 151.843 122.364 151.825L122.836 143.741L130.974 139.232L145.69 139.033C145.747 139.033 145.797 139.007 145.849 138.998C145.923 138.986 145.997 138.98 146.064 138.953C146.072 138.95 146.076 138.943 146.084 138.941C146.115 138.925 146.138 138.899 146.168 138.881C146.176 138.876 146.182 138.871 146.19 138.866C146.252 138.827 146.317 138.794 146.368 138.742C146.386 138.725 146.394 138.7 146.407 138.682C146.42 138.667 146.438 138.662 146.45 138.647L151.336 132.149C151.362 132.116 151.366 132.075 151.389 132.039C151.42 131.984 151.449 131.93 151.47 131.867C151.492 131.801 151.5 131.735 151.508 131.668C151.511 131.63 151.529 131.597 151.529 131.557L151.343 112.994C151.374 112.979 151.397 112.952 151.426 112.934C151.495 112.891 151.565 112.853 151.62 112.793C151.665 112.746 151.694 112.687 151.727 112.632C151.758 112.582 151.798 112.538 151.819 112.483C151.849 112.406 151.857 112.323 151.867 112.24C151.872 112.2 151.89 112.164 151.89 112.121V112.101L151.739 91.8702C151.74 91.8495 151.73 91.832 151.728 91.8131ZM145.042 116.807L130.508 117.002C130.493 117.002 130.481 117.01 130.467 117.011C130.398 117.014 130.334 117.035 130.27 117.053C130.225 117.065 130.175 117.065 130.134 117.082C130.124 117.087 130.117 117.096 130.107 117.1C130.101 117.103 130.097 117.11 130.09 117.112C130.075 117.121 130.059 117.121 130.045 117.128L121.23 122.115C121.21 122.124 121.201 122.143 121.183 122.154C121.13 122.189 121.078 122.22 121.034 122.265C121.014 122.286 121.001 122.307 120.981 122.328C120.952 122.363 120.927 122.402 120.901 122.44C120.875 122.48 120.847 122.518 120.827 122.562C120.815 122.589 120.808 122.617 120.799 122.645C120.781 122.696 120.773 122.746 120.765 122.799C120.759 122.832 120.741 122.864 120.738 122.898L120.278 130.788L109.906 133.163L99.4999 127.496C99.4855 127.488 99.4711 127.487 99.4576 127.481C99.4405 127.473 99.4306 127.46 99.4135 127.452C99.3713 127.434 99.3209 127.435 99.2759 127.425C99.2103 127.407 99.1473 127.389 99.0816 127.386C99.0672 127.386 99.0546 127.378 99.0402 127.378H99.0303H86.6996H86.6898C86.6772 127.378 86.6664 127.386 86.6547 127.386C86.5899 127.389 86.5305 127.412 86.4676 127.425C86.419 127.437 86.3641 127.437 86.3192 127.455C86.3048 127.461 86.2931 127.473 86.2805 127.481C86.2688 127.487 86.2562 127.485 86.2454 127.491L75.5824 133.164L65.3341 130.794L65.1497 122.931C65.1488 122.892 65.1299 122.859 65.1254 122.821C65.1164 122.759 65.1056 122.699 65.0858 122.64C65.0777 122.616 65.0777 122.589 65.0678 122.564C65.0507 122.528 65.0228 122.501 65.0021 122.467C64.9734 122.416 64.9428 122.369 64.905 122.326C64.887 122.305 64.878 122.281 64.86 122.261C64.8294 122.232 64.7863 122.215 64.7521 122.188C64.7224 122.164 64.7017 122.135 64.6693 122.114L56.105 117.127C56.088 117.118 56.0718 117.118 56.0547 117.109C56.0349 117.1 56.0214 117.083 56.0007 117.077C55.9557 117.056 55.9027 117.055 55.8541 117.044C55.8001 117.029 55.7479 117.015 55.694 117.009C55.6724 117.008 55.6544 116.997 55.6319 116.997L41.1092 116.808L37.3996 111.607L46.9912 105.959C47.0263 105.938 47.0469 105.906 47.0766 105.88C47.1297 105.842 47.1774 105.802 47.2197 105.752C47.261 105.704 47.2934 105.655 47.324 105.601C47.3537 105.547 47.3825 105.496 47.4023 105.437C47.4238 105.375 47.4346 105.313 47.4418 105.249C47.4472 105.211 47.4661 105.178 47.4661 105.139L47.5669 98.0364C47.5669 97.995 47.5489 97.9591 47.5453 97.9195C47.5372 97.852 47.5282 97.7881 47.5093 97.7261C47.4886 97.6667 47.4616 97.6154 47.4319 97.5606C47.4023 97.5066 47.3717 97.4562 47.3312 97.4067C47.2889 97.3555 47.2385 97.315 47.1855 97.2736C47.1549 97.2475 47.1342 97.2151 47.0991 97.1936L37.7927 91.6003L41.7488 86.3389L56.2338 86.1446C56.3885 86.1419 56.5288 86.0961 56.6593 86.0286C56.6719 86.0223 56.6854 86.0259 56.6971 86.0187L65.5123 81.0318C65.542 81.0138 65.5609 80.9868 65.5897 80.9661C65.6482 80.9239 65.7003 80.8807 65.748 80.8285C65.7858 80.7862 65.8164 80.7431 65.8451 80.6945C65.8802 80.6387 65.9099 80.5838 65.9315 80.52C65.9531 80.4642 65.9648 80.4093 65.9756 80.3509C65.9819 80.3149 65.9999 80.2825 66.0026 80.2465L66.4631 72.3567L76.8346 69.9812L87.2411 75.649C87.2528 75.6553 87.2672 75.6526 87.2771 75.6589C87.4057 75.7219 87.5443 75.7651 87.6963 75.766C87.699 75.766 87.6999 75.7669 87.7017 75.7669H100.093H100.094C100.094 75.7669 100.098 75.766 100.1 75.766C100.249 75.7651 100.388 75.7246 100.513 75.6616C100.525 75.6562 100.538 75.6589 100.549 75.6526L111.16 69.9811L121.409 72.3504L121.593 80.214C121.594 80.2526 121.613 80.2859 121.619 80.3237C121.628 80.3885 121.639 80.4487 121.66 80.509C121.681 80.5693 121.708 80.6223 121.74 80.6754C121.77 80.7285 121.803 80.7762 121.842 80.822C121.886 80.8706 121.935 80.9111 121.989 80.9525C122.018 80.9768 122.04 81.0091 122.074 81.0298L130.688 86.0167C130.702 86.0257 130.718 86.0203 130.732 86.0284C130.862 86.0968 131.004 86.1445 131.16 86.1472L145.678 86.3415L149.369 91.5757L139.751 97.1906C139.718 97.2103 139.698 97.2418 139.669 97.2652C139.631 97.2922 139.589 97.3129 139.554 97.3453C139.536 97.3633 139.527 97.3867 139.509 97.4055C139.473 97.4478 139.445 97.4946 139.418 97.5432C139.396 97.5792 139.366 97.6106 139.349 97.6502C139.339 97.6736 139.338 97.6988 139.33 97.7222C139.31 97.7807 139.303 97.8382 139.294 97.8976C139.289 97.9363 139.27 97.9713 139.27 98.0109L139.169 105.114C139.169 105.161 139.189 105.203 139.196 105.249C139.205 105.321 139.211 105.392 139.235 105.461C139.257 105.52 139.294 105.568 139.325 105.621C139.356 105.674 139.384 105.729 139.426 105.775C139.473 105.829 139.536 105.867 139.596 105.909C139.634 105.936 139.661 105.972 139.704 105.992L139.861 106.073L148.949 111.552L145.042 116.807Z" fill="white"/>
<path d="M56.7281 109.519C56.2864 108.636 62.912 103.777 64.6788 102.452C65.5621 101.863 67.5937 100.685 68.6538 100.685C69.9789 100.685 115.033 98.4767 120.333 99.3601C124.574 100.067 128.284 106.427 129.609 109.519L125.192 115.262L115.033 120.12L108.407 122.771L96.923 124.096L84.1135 123.654L74.396 121.445L64.6788 117.47L59.8197 113.495C58.9364 112.464 57.0815 110.226 56.7281 109.519Z" fill="#3CAEED"/>
<path d="M134.018 98.3794C134.006 98.3173 134 98.2544 133.977 98.1986C133.974 98.1905 133.976 98.1833 133.971 98.177L131.352 92.4362C131.326 92.3795 131.283 92.3417 131.25 92.2941C131.22 92.25 131.202 92.1996 131.163 92.16L126.075 86.9726C126.046 86.942 126.004 86.9276 125.971 86.9015C125.935 86.8718 125.908 86.8331 125.867 86.8097L118.562 82.6288C118.534 82.6117 118.5 82.6117 118.471 82.5991C118.442 82.5847 118.42 82.5631 118.391 82.5524L109.424 79.53C109.395 79.5201 109.366 79.5264 109.338 79.5201C109.311 79.512 109.289 79.494 109.259 79.4913L99.1857 77.9783C99.1614 77.9756 99.1389 77.9837 99.1146 77.9837C99.0885 77.981 99.0669 77.9684 99.0408 77.9684H88.6136C88.5866 77.9684 88.5659 77.981 88.5399 77.9837C88.5156 77.9846 88.4949 77.9756 88.4706 77.9783L78.3446 79.4895C78.3158 79.4949 78.2933 79.5129 78.2645 79.5183C78.2357 79.5237 78.2087 79.5192 78.1818 79.5282L69.0641 82.5506C69.0335 82.5605 69.0111 82.5838 68.9832 82.5973C68.9562 82.6099 68.9238 82.6099 68.8968 82.6243L61.4416 86.8052C61.4029 86.8286 61.3786 86.8637 61.3435 86.8889C61.3111 86.9132 61.2716 86.9249 61.2419 86.9564L55.9015 92.1429C55.8619 92.1816 55.843 92.2302 55.8115 92.276C55.7765 92.3237 55.7315 92.3615 55.7045 92.4164L52.9349 98.159C52.9322 98.1644 52.934 98.1689 52.9313 98.1743C52.9044 98.2346 52.8963 98.3048 52.881 98.3704C52.8684 98.4289 52.845 98.4865 52.8423 98.5449C52.8423 98.5485 52.8396 98.553 52.8396 98.553L52.6885 104.551C52.6885 104.56 52.6921 104.568 52.6921 104.575C52.6921 104.641 52.7137 104.704 52.7272 104.769C52.7397 104.832 52.7451 104.895 52.7685 104.95C52.7721 104.959 52.7712 104.968 52.7748 104.977L55.3942 110.72C55.4392 110.818 55.5013 110.904 55.5706 110.977C55.5759 110.98 55.5768 110.988 55.5804 110.992L57.2428 112.704L57.2437 112.705C57.2437 112.705 57.2446 112.705 57.2464 112.706L57.2473 112.709L60.6727 116.185C60.7023 116.215 60.7419 116.229 60.7761 116.254C60.8121 116.283 60.8391 116.322 60.8804 116.346L68.1846 120.527C68.2089 120.541 68.2332 120.536 68.2584 120.547C68.2935 120.565 68.3205 120.592 68.3573 120.605L77.3239 123.627C77.3572 123.639 77.3932 123.637 77.4283 123.645C77.4498 123.649 77.466 123.663 77.4885 123.667L87.5623 125.18C87.6099 125.186 87.6576 125.19 87.7053 125.19H98.1325H98.1334C98.1802 125.19 98.2279 125.186 98.2737 125.18L108.45 123.669C108.473 123.665 108.49 123.651 108.513 123.645C108.546 123.637 108.58 123.64 108.614 123.628L117.681 120.606C117.717 120.593 117.744 120.567 117.778 120.549C117.801 120.539 117.826 120.544 117.849 120.531L125.304 116.35C125.342 116.329 125.366 116.295 125.4 116.269C125.433 116.243 125.474 116.231 125.506 116.2L129.681 112.126L130.838 111.019C130.845 111.013 130.846 111.005 130.853 110.998C130.926 110.926 130.989 110.844 131.038 110.746L133.86 105.004C133.862 104.997 133.862 104.989 133.865 104.984C133.894 104.921 133.904 104.85 133.919 104.78C133.931 104.723 133.952 104.669 133.955 104.612C133.955 104.604 133.959 104.598 133.959 104.592L134.059 98.5983L134.056 98.5776C134.056 98.5101 134.032 98.4462 134.018 98.3797L134.018 98.3794ZM124.247 114.723L116.982 118.797L108.081 121.764L98.0588 123.252H87.7737L77.8575 121.764L69.0682 118.801L61.9547 114.73L59.3074 112.042L62.7031 108.729L69.9667 104.608L78.9135 101.64L88.8882 100.152H99.1734L109.09 101.64L117.878 104.603L124.99 108.722L127.64 111.412L124.247 114.723Z" fill="white"/>
</svg>
