<svg width="32" height="32" viewBox="0 0 32 32" fill="none" xmlns="http://www.w3.org/2000/svg">
<path fill-rule="evenodd" clip-rule="evenodd" d="M16 0C7.16344 0 0 7.16344 0 16C0 24.8366 7.16344 32 16 32C24.8366 32 32 24.8366 32 16C32 7.16344 24.8366 0 16 0ZM7.68066 13.252H11.3066V24.1464H7.68066V13.252ZM11.546 9.88225C11.5224 8.8138 10.7586 8 9.51815 8C8.27774 8 7.4668 8.8138 7.4668 9.88225C7.4668 10.9286 8.25377 11.7658 9.47108 11.7658H9.49426C10.7586 11.7658 11.546 10.9286 11.546 9.88225ZM20.2091 12.9961C22.5952 12.9961 24.384 14.5535 24.384 17.8998L24.3838 24.1464H20.758V18.3178C20.758 16.8538 20.2333 15.8548 18.9207 15.8548C17.919 15.8548 17.3223 16.5283 17.0602 17.1788C16.9644 17.4119 16.9408 17.7367 16.9408 18.0623V24.1467H13.3145C13.3145 24.1467 13.3622 14.2745 13.3145 13.2522H16.9408V14.7953C17.4221 14.0535 18.284 12.9961 20.2091 12.9961Z" fill="white"/>
</svg>
