<svg width="114" height="17" viewBox="0 0 114 17" fill="none" xmlns="http://www.w3.org/2000/svg">
<path d="M15.6805 12.968H5.91246C5.33646 12.968 4.88046 12.488 4.88046 11.912V5.28795C4.88046 4.71195 5.33646 4.23195 5.91246 4.23195H15.6805V0.199951H3.92046C1.90446 0.199951 0.272461 1.92795 0.272461 3.84795V13.352C0.272461 15.368 2.00046 17 3.92046 17H15.6805V12.968Z" fill="#1A1A1C"/>
<path d="M17.7831 0.199951V17H22.3911V11.576H26.3271L29.3751 17H34.3671L31.2951 11.552C33.0711 11.288 34.3911 9.70395 34.3911 7.92795V3.84795C34.3911 1.83195 32.6631 0.199951 30.7431 0.199951H17.7831ZM29.7831 6.48795C29.7831 7.06395 29.3271 7.54395 28.7511 7.54395H22.3911V4.23195H28.7511C29.3271 4.23195 29.7831 4.71195 29.7831 5.28795V6.48795Z" fill="#1A1A1C"/>
<path d="M51.24 12.968H41.352V10.472H49.392V6.43995H41.352V4.23195H51.24V0.199951H36.744V17H51.24V12.968Z" fill="#1A1A1C"/>
<path d="M68.9717 0.199951H52.8437V4.23195H58.6277V17H63.2357V4.23195H68.9717V0.199951Z" fill="#1A1A1C"/>
<path d="M70.6815 0.199951V17H75.2895V11.576H79.2255L82.2735 17H87.2655L84.1935 11.552C85.9695 11.288 87.2895 9.70395 87.2895 7.92795V3.84795C87.2895 1.83195 85.5615 0.199951 83.6415 0.199951H70.6815ZM82.6815 6.48795C82.6815 7.06395 82.2255 7.54395 81.6495 7.54395H75.2895V4.23195H81.6495C82.2255 4.23195 82.6815 4.71195 82.6815 5.28795V6.48795Z" fill="#1A1A1C"/>
<path d="M89.6425 0.199951V17H94.2505V0.199951H89.6425Z" fill="#1A1A1C"/>
<path d="M95.9687 17H100.985L104.753 11.96L108.521 17H113.537L107.249 8.59995L113.537 0.199951H108.521L104.753 5.23995L100.985 0.199951H95.9687L102.233 8.59995L95.9687 17Z" fill="#1A1A1C"/>
</svg>
