<svg width="376" height="288" viewBox="0 0 376 288" fill="none" xmlns="http://www.w3.org/2000/svg">
<rect width="376" height="288" fill="#8BF4CA"/>
<ellipse cx="194.211" cy="128.584" rx="14.396" ry="14.4666" fill="#8BF4CA"/>
<path d="M185.234 105.024C148.083 111.384 129 145.026 129 145.026C129 145.026 146.7 141.616 160.067 149.45C177.122 159.497 182.1 183 182.1 183C182.1 183 196.02 182.355 210.77 173.691C226.166 164.658 226.627 152.031 227.088 141.431C227.456 131.753 247 124.011 247 124.011C247 124.011 222.847 98.6641 185.234 105.024ZM194.545 135.809C189.383 135.809 185.234 132.122 185.234 127.606C185.234 123.089 189.383 119.402 194.545 119.402C199.708 119.402 203.856 123.089 203.856 127.606C203.856 132.122 199.708 135.809 194.545 135.809Z" fill="white"/>
<ellipse cx="190.436" cy="125.58" rx="2.43867" ry="2.45063" fill="white"/>
</svg>
