<svg width="376" height="288" viewBox="0 0 376 288" fill="none" xmlns="http://www.w3.org/2000/svg">
<rect width="376" height="288" fill="#1A1A1C"/>
<path d="M135 118.436C135 103.283 147.283 91 162.436 91H214.564C229.717 91 242 103.283 242 118.436V170.564C242 185.717 229.717 198 214.564 198H162.436C147.283 198 135 185.717 135 170.564V118.436Z" fill="white"/>
<path d="M162.436 91.5H214.564C229.44 91.5 241.5 103.56 241.5 118.436V170.564C241.5 185.44 229.44 197.5 214.564 197.5H162.436C147.56 197.5 135.5 185.44 135.5 170.564V118.436C135.5 103.56 147.56 91.5 162.436 91.5Z" stroke="black" stroke-opacity="0.03"/>
<path d="M171.686 115.075C164.721 115.075 159.075 120.721 159.075 127.686V139.596L192.704 150.105V159.913C192.704 160.687 192.076 161.314 191.303 161.314H185.698C184.924 161.314 184.297 160.687 184.297 159.913V155.709L159.075 148.003V161.314C159.075 168.279 164.721 173.925 171.686 173.925H205.314C212.271 173.925 217.913 168.292 217.925 161.338C217.925 161.33 217.925 161.322 217.925 161.314L217.925 149.404L184.297 138.895L184.297 129.087C184.297 128.313 184.924 127.686 185.698 127.686H191.303C192.076 127.686 192.704 128.313 192.704 129.087L192.704 133.29L217.925 140.997L217.925 127.686C217.925 127.678 217.925 127.67 217.925 127.662C217.913 120.708 212.271 115.075 205.314 115.075L171.686 115.075Z" fill="#212121"/>
</svg>
