<svg width="51" height="51" viewBox="0 0 51 51" fill="none" xmlns="http://www.w3.org/2000/svg">
<path d="M0 13.0769C0 5.85474 5.85474 0 13.0769 0H37.9231C45.1453 0 51 5.85474 51 13.0769V37.9231C51 45.1453 45.1453 51 37.9231 51H13.0769C5.85474 51 0 45.1453 0 37.9231V13.0769Z" fill="black"/>
<path d="M0.5 13.0769C0.5 6.13088 6.13088 0.5 13.0769 0.5H37.9231C44.8691 0.5 50.5 6.13088 50.5 13.0769V37.9231C50.5 44.8691 44.8691 50.5 37.9231 50.5H13.0769C6.13088 50.5 0.5 44.8691 0.5 37.9231V13.0769Z" stroke="black" stroke-opacity="0.03"/>
<path d="M17.4853 10.9999C14.1657 10.9999 11.4746 13.691 11.4746 17.0107V22.6874L27.5032 27.6964V32.3714C27.5032 32.7402 27.2042 33.0392 26.8354 33.0392H24.1639C23.7951 33.0392 23.4961 32.7402 23.4961 32.3714V30.3678L11.4746 26.6946V33.0392C11.4746 36.3589 14.1657 39.05 17.4853 39.05H33.5139C36.8298 39.05 39.5186 36.3649 39.5246 33.0504C39.5246 33.0467 39.5246 33.043 39.5246 33.0392L39.5246 27.3624L23.4961 22.3535L23.4961 17.6785C23.4961 17.3097 23.7951 17.0107 24.1639 17.0107H26.8353C27.2042 17.0107 27.5032 17.3097 27.5032 17.6785L27.5032 19.6821L39.5246 23.3553L39.5246 17.0107C39.5246 17.0069 39.5246 17.0032 39.5246 16.9995C39.5186 13.685 36.8298 10.9999 33.5139 10.9999L17.4853 10.9999Z" fill="white"/>
</svg>
