<svg width="1140" height="619" viewBox="0 0 1140 619" fill="none" xmlns="http://www.w3.org/2000/svg">
<rect width="1140" height="619" fill="#1A1A1C"/>
<g clip-path="url(#clip0_442_44558)">
<path d="M420.255 350.06V341.764C420.255 339.736 420.255 337.339 420.625 334.574C421.921 334.389 423.032 334.389 423.957 334.389C430.251 334.389 433.582 337.155 433.582 341.948C433.582 347.295 429.695 350.245 422.106 350.245C421.551 350.06 420.996 350.06 420.255 350.06ZM420.255 358.173V352.089H421.551C426.734 358.173 431.361 364.625 435.248 371.263C436.544 371.078 438.025 370.894 439.32 370.894C440.616 370.894 442.097 371.078 443.578 371.263C437.84 364.072 432.842 357.435 428.214 351.351C435.618 350.06 439.505 346.373 439.505 341.211C439.505 335.311 435.248 332.177 427.104 332.177C424.698 332.177 421.736 332.546 418.404 332.546C417.109 332.546 415.813 332.546 414.517 332.361C414.887 337.155 415.072 342.317 415.072 348.032C415.072 356.145 414.887 363.888 414.332 371.447C415.443 371.263 416.368 371.078 417.479 371.078C418.589 371.078 419.515 371.078 420.625 371.447C420.44 366.469 420.255 362.229 420.255 358.173Z" fill="white"/>
<path d="M462.457 371.078C466.344 370.893 470.046 370.893 473.563 370.893C477.079 370.893 480.596 370.893 483.743 371.078C483.558 370.525 483.558 369.787 483.558 369.05C483.558 368.312 483.558 367.759 483.743 367.022C480.596 367.575 477.45 367.944 474.303 367.944H469.12C468.935 363.334 468.935 359.832 468.935 357.804V351.719H474.488C476.154 351.719 478.93 351.904 482.632 352.088C482.632 351.351 482.447 350.613 482.447 350.06C482.447 349.507 482.447 348.77 482.632 348.401C479.671 348.77 477.079 348.954 474.673 348.954H468.935V343.054C468.935 341.948 468.935 339.367 468.935 335.127H473.933C477.45 335.127 480.596 335.495 483.373 336.048C483.188 335.311 483.188 334.573 483.188 334.02C483.188 333.283 483.188 332.73 483.373 331.992C480.226 332.177 476.709 332.177 473.192 332.177C469.675 332.177 466.159 332.177 462.271 331.992C462.827 337.708 463.012 344.345 463.012 351.535C463.012 358.725 463.012 365.363 462.457 371.078Z" fill="white"/>
<path d="M506.511 371.078C507.622 370.894 508.547 370.71 509.658 370.71C510.769 370.71 511.694 370.71 512.805 371.078C512.62 365.732 512.434 361.307 512.434 358.173V353.379C514.1 353.379 515.396 353.379 516.692 353.379C526.317 353.379 532.055 348.954 532.055 341.948C532.055 335.496 527.613 331.808 519.283 331.808C516.692 331.808 513.73 332.177 510.398 332.177C509.103 332.177 507.807 332.177 506.326 331.993C506.696 336.417 506.881 341.764 506.881 347.848C507.252 355.776 506.881 363.519 506.511 371.078ZM512.62 351.167V342.317C512.62 340.842 512.62 338.261 512.99 334.574C514.841 334.389 516.136 334.389 516.877 334.389C522.8 334.389 526.132 337.339 526.132 342.317C526.132 348.217 522.245 351.351 514.471 351.351C513.915 351.167 513.175 351.167 512.62 351.167Z" fill="white"/>
<path d="M571.482 371.815C584.994 371.815 592.768 364.256 592.768 351.535C592.768 338.814 584.994 331.255 571.482 331.255C558.155 331.255 550.195 338.998 550.195 351.535C550.195 364.072 558.155 371.815 571.482 371.815ZM571.482 333.836C581.107 333.836 586.475 340.104 586.475 351.535C586.475 362.966 581.107 369.234 571.482 369.234C561.857 369.234 556.489 362.966 556.489 351.166C556.674 340.289 562.042 333.836 571.482 333.836Z" fill="white"/>
<path d="M619.052 350.06V341.764C619.052 339.736 619.052 337.339 619.422 334.574C620.718 334.389 621.829 334.389 622.754 334.389C629.047 334.389 632.379 337.155 632.379 341.948C632.379 347.295 628.492 350.245 620.903 350.245C620.348 350.06 619.792 350.06 619.052 350.06ZM619.052 358.173V352.089H620.348C625.531 358.173 630.158 364.625 634.045 371.263C635.341 371.078 636.822 370.894 638.117 370.894C639.413 370.894 640.894 371.078 642.375 371.263C636.636 364.072 631.639 357.435 627.011 351.351C634.415 350.06 638.302 346.373 638.302 341.211C638.302 335.311 634.045 332.177 625.901 332.177C623.494 332.177 620.533 332.546 617.201 332.546C615.905 332.546 614.61 332.546 613.314 332.361C613.684 337.155 613.869 342.317 613.869 348.032C613.869 356.145 613.684 363.888 613.129 371.447C614.239 371.263 615.165 371.078 616.276 371.078C617.386 371.078 618.312 371.078 619.422 371.447C619.237 366.469 619.052 362.229 619.052 358.173Z" fill="white"/>
<path d="M669.028 335.311C669.213 339.551 669.213 343.054 669.213 346.188C669.213 357.25 669.028 365.547 668.472 371.078C669.583 370.893 670.693 370.709 671.804 370.709C672.915 370.709 674.025 370.709 675.136 371.078C674.581 366.284 674.395 356.513 674.395 341.764C674.395 339.92 674.581 337.708 674.766 335.127H677.912C679.763 335.127 682.54 335.495 686.612 336.048C686.427 335.311 686.427 334.758 686.427 334.02C686.427 333.283 686.612 332.73 686.612 331.992C680.874 332.361 675.876 332.361 671.804 332.361C668.472 332.361 663.475 332.177 656.996 331.992C657.181 332.545 657.366 333.283 657.366 334.02C657.366 334.758 657.181 335.311 656.996 336.048C660.883 335.495 663.845 335.311 665.326 335.311H669.028Z" fill="white"/>
<path d="M705.491 362.598C705.306 364.81 704.936 366.838 704.381 368.682C706.972 370.894 710.489 372 714.746 372C723.261 372 728.999 366.285 728.999 359.095C728.999 352.826 725.297 350.614 718.078 347.848C712.71 345.82 709.749 344.345 709.749 340.105C709.749 336.049 712.525 333.468 716.968 333.468C721.41 333.468 724.001 335.496 724.742 339.367H725.297C725.667 337.524 726.223 335.68 727.148 333.836C725.852 333.099 722.706 331.44 717.523 331.44C709.749 331.44 705.121 335.68 705.121 342.502C705.121 348.401 708.453 350.614 715.302 353.195C720.855 355.407 724.001 356.882 724.001 361.676C724.001 366.285 720.855 369.419 715.487 369.419C711.044 369.419 707.528 367.022 705.862 362.598H705.491Z" fill="white"/>
<path d="M442.097 305.813C461.532 305.813 473.008 294.935 473.008 276.499C473.008 258.062 461.717 247 442.097 247C422.661 247 411 258.431 411 276.499C411 294.382 422.661 305.813 442.097 305.813ZM441.912 250.687C455.794 250.687 463.568 259.906 463.568 276.499C463.568 293.091 455.794 302.31 441.912 302.31C428.029 302.125 420.255 293.091 420.255 275.945C420.255 259.906 428.214 250.687 441.912 250.687Z" fill="#74BA23"/>
<path d="M499.477 274.102V262.118C499.477 259.168 499.477 255.665 500.033 251.609C501.699 251.425 503.365 251.24 505.03 251.24C514.285 251.24 519.098 255.296 519.098 262.118C519.098 269.861 513.36 274.102 502.439 274.102C501.328 274.102 500.403 274.102 499.477 274.102ZM499.477 286.086V277.052H501.514C509.103 285.901 515.766 295.119 521.504 304.706C523.54 304.522 525.391 304.338 527.427 304.338C529.463 304.338 531.5 304.522 533.536 304.706C525.206 294.198 517.802 284.611 511.139 275.761C521.874 273.917 527.427 268.571 527.427 261.012C527.427 252.531 521.134 247.737 509.288 247.737C505.771 247.737 501.514 248.106 496.701 248.106C494.85 248.106 492.999 248.106 490.963 247.922C491.518 254.743 491.888 262.302 491.888 270.599C491.888 282.398 491.518 293.645 490.963 304.706C492.629 304.338 494.11 304.338 495.59 304.338C497.071 304.338 498.737 304.338 500.218 304.706C499.663 298.069 499.477 291.801 499.477 286.086Z" fill="#74BA23"/>
<path d="M546.678 304.706C548.344 304.338 550.01 304.338 551.675 304.338C553.341 304.338 555.007 304.338 556.673 304.706C555.933 296.41 555.748 287.007 555.748 276.498C555.748 265.99 555.933 256.587 556.673 248.106C555.007 248.29 553.341 248.475 551.675 248.475C550.01 248.475 548.344 248.29 546.678 248.106C547.603 256.403 547.788 265.99 547.788 276.498C547.788 287.007 547.418 296.41 546.678 304.706Z" fill="#74BA23"/>
<path d="M628.86 302.494C628.675 298.622 628.49 294.75 628.49 290.879C628.49 287.007 628.675 282.951 628.86 278.895C627.195 279.264 625.529 279.448 623.863 279.448C622.382 279.448 620.901 279.264 619.42 279.079C619.791 283.135 619.976 287.007 619.976 290.879C619.976 293.644 619.976 296.225 619.791 298.991C615.533 301.019 611.276 301.941 606.649 301.941C592.396 301.941 583.696 292.169 583.696 275.761C583.696 260.274 592.951 250.318 606.093 250.318C614.423 250.318 620.346 253.637 624.418 259.721H625.714C625.714 256.955 626.454 254.19 627.935 251.793C622.197 248.475 614.978 246.815 606.649 246.815C587.028 247 574.441 258.615 574.441 276.314C574.441 294.935 585.918 305.997 605.908 305.997C613.127 305.812 620.716 304.891 628.86 302.494Z" fill="#74BA23"/>
<path d="M647.188 304.706C648.853 304.338 650.519 304.338 652.185 304.338C653.851 304.338 655.517 304.338 657.183 304.706C656.442 296.41 656.257 287.007 656.257 276.498C656.257 265.99 656.442 256.587 657.183 248.106C655.517 248.29 653.851 248.475 652.185 248.475C650.519 248.475 648.853 248.29 647.188 248.106C648.113 256.403 648.298 265.99 648.298 276.498C648.298 287.007 647.928 296.41 647.188 304.706Z" fill="#74BA23"/>
<path d="M677.912 304.891C679.023 304.706 680.133 304.522 681.244 304.522C682.354 304.522 683.65 304.706 684.761 304.891C684.02 298.807 683.65 291.985 683.65 284.611V261.934L707.898 287.56C713.636 293.645 719.004 299.544 723.817 305.813H726.593C726.408 299.913 726.408 295.857 726.408 293.276C726.408 268.755 726.963 253.637 727.889 248.106C726.963 248.291 725.853 248.291 724.557 248.291C723.446 248.291 722.336 248.291 721.225 248.106C721.966 255.85 722.151 262.487 722.151 268.018V290.695C708.824 276.867 695.497 262.302 682.169 247H679.208C679.393 251.609 679.393 255.85 679.393 259.537C679.208 281.845 678.653 296.963 677.912 304.891Z" fill="#74BA23"/>
</g>
<defs>
<clipPath id="clip0_442_44558">
<rect width="318" height="125" fill="white" transform="translate(411 247)"/>
</clipPath>
</defs>
</svg>
