<svg width="1140" height="611" viewBox="0 0 1140 611" fill="none" xmlns="http://www.w3.org/2000/svg">
<rect width="1140" height="611" fill="black"/>
<g filter="url(#filter0_d_446_18063)">
<path d="M520.51 245.876C520.51 231.585 532.149 220 546.507 220H595.9C610.258 220 621.897 231.585 621.897 245.876V295.042C621.897 309.333 610.258 320.918 595.9 320.918H546.507C532.149 320.918 520.51 309.333 520.51 295.042V245.876Z" fill="url(#paint0_linear_446_18063)"/>
<path d="M546.507 220.5H595.9C609.984 220.5 621.397 231.864 621.397 245.876V295.042C621.397 309.054 609.984 320.418 595.9 320.418H546.507C532.423 320.418 521.01 309.054 521.01 295.042V245.876C521.01 231.864 532.423 220.5 546.507 220.5Z" stroke="black" stroke-opacity="0.03"/>
</g>
<g filter="url(#filter1_d_446_18063)">
<path d="M555.271 242.707C548.672 242.707 543.322 248.032 543.322 254.6V265.834L575.187 275.745V284.996C575.187 285.726 574.592 286.318 573.859 286.318H568.548C567.815 286.318 567.221 285.726 567.221 284.996V281.031L543.322 273.763V286.318C543.322 292.886 548.672 298.211 555.271 298.211H587.136C593.728 298.211 599.073 292.898 599.085 286.34C599.085 286.332 599.085 286.325 599.085 286.318L599.085 275.084L567.221 265.173L567.221 255.922C567.221 255.192 567.815 254.6 568.548 254.6H573.859C574.592 254.6 575.187 255.192 575.187 255.922L575.187 259.887L599.085 267.155L599.085 254.6C599.085 254.593 599.085 254.586 599.085 254.578C599.073 248.02 593.728 242.707 587.136 242.707L555.271 242.707Z" fill="#212121"/>
</g>
<path fill-rule="evenodd" clip-rule="evenodd" d="M640.674 368.588C640.357 368.027 639.834 367.747 639.106 367.747C638.546 367.747 638.08 367.887 637.744 368.167C637.408 368.448 637.147 368.938 636.979 369.638C636.811 370.339 636.68 371.301 636.643 372.492C636.587 373.7 636.568 375.206 636.568 377.027C636.568 378.848 636.587 380.353 636.643 381.562C636.699 382.77 636.811 383.715 636.979 384.415C637.147 385.116 637.408 385.624 637.744 385.886C638.08 386.166 638.528 386.306 639.106 386.306C639.573 386.306 639.946 386.201 640.245 385.991C640.543 385.781 640.767 385.413 640.935 384.906C641.103 384.398 641.215 383.733 641.271 382.875C641.346 382.034 641.364 380.966 641.364 379.671H648.642V381.719C648.642 383.61 648.38 385.168 647.839 386.376C647.298 387.585 646.589 388.548 645.693 389.23C644.798 389.931 643.79 390.386 642.652 390.631C641.513 390.876 640.319 390.999 639.125 390.999C637.016 390.999 635.3 390.754 633.956 390.281C632.612 389.808 631.549 389.003 630.802 387.865C630.056 386.744 629.534 385.291 629.254 383.505C628.974 381.719 628.787 379.583 628.787 377.044C628.787 374.471 628.955 372.282 629.291 370.479C629.627 368.693 630.205 367.239 631.008 366.119C631.81 364.998 632.874 364.21 634.199 363.703C635.523 363.212 637.147 362.967 639.088 362.967C640.786 362.967 642.223 363.177 643.417 363.58C644.611 363.983 645.563 364.561 646.309 365.314C647.056 366.066 647.597 366.959 647.933 368.01C648.269 369.06 648.436 370.233 648.436 371.547V373.245H641.159V371.739C641.159 370.198 640.991 369.148 640.674 368.588ZM479.129 370.688C479.129 369.883 478.961 369.183 478.607 368.622C478.252 368.062 477.711 367.764 476.983 367.764C476.181 367.764 475.584 368.01 475.211 368.5C474.837 368.99 474.651 369.55 474.651 370.146C474.651 371.039 474.949 371.739 475.565 372.247C476.162 372.772 476.927 373.21 477.842 373.595C478.756 373.98 479.745 374.365 480.79 374.75C481.835 375.136 482.824 375.661 483.738 376.291C484.653 376.922 485.418 377.744 486.015 378.777C486.612 379.793 486.929 381.141 486.929 382.769C486.929 385.658 486.052 387.742 484.298 389.037C482.544 390.333 480.006 390.998 476.703 390.998C475.136 390.998 473.755 390.876 472.561 390.631C471.367 390.386 470.359 389.965 469.538 389.388C468.717 388.792 468.082 388.022 467.653 387.059C467.224 386.096 467 384.905 467 383.487V382.542H474.278V383.19C474.278 384.345 474.501 385.168 474.968 385.641C475.434 386.114 476.013 386.341 476.741 386.341C477.524 386.341 478.122 386.096 478.532 385.588C478.943 385.081 479.167 384.468 479.167 383.732C479.167 382.839 478.868 382.139 478.29 381.631C477.711 381.106 476.983 380.668 476.106 380.301C475.229 379.933 474.278 379.565 473.251 379.18C472.225 378.795 471.273 378.305 470.396 377.709C469.519 377.097 468.791 376.309 468.213 375.328C467.634 374.348 467.336 373.052 467.336 371.459C467.336 368.71 468.12 366.609 469.687 365.173C471.273 363.702 473.643 362.985 476.815 362.985C480.1 362.985 482.488 363.65 483.944 364.981C485.418 366.311 486.146 368.43 486.146 371.336H479.129V370.688ZM500.571 363.51V390.579H493.051V363.51H500.571ZM507.193 363.51V369.498H512.773V390.579H520.293V369.498H525.947V363.51H507.193ZM548.378 363.51V369.271H538.805V373.893H547.781V379.443H538.805V384.818H548.733V390.579H531.285V363.51H548.378ZM565.845 368.624C566.2 369.184 566.368 369.884 566.368 370.69H566.349V371.337H573.384C573.384 368.431 572.656 366.312 571.182 364.982C569.708 363.651 567.338 362.986 564.054 362.986C560.881 362.986 558.512 363.704 556.925 365.174C555.358 366.61 554.574 368.711 554.574 371.46C554.574 373.053 554.873 374.349 555.451 375.329C556.03 376.31 556.757 377.098 557.634 377.711C558.512 378.306 559.463 378.796 560.49 379.181C561.516 379.567 562.467 379.934 563.345 380.302C564.222 380.67 564.949 381.107 565.528 381.633C566.106 382.14 566.405 382.841 566.405 383.734C566.405 384.469 566.181 385.082 565.77 385.59C565.36 386.097 564.763 386.342 563.979 386.342C563.251 386.342 562.673 386.115 562.206 385.642C561.74 385.169 561.516 384.346 561.516 383.191V382.543H554.238V383.488C554.238 384.907 554.462 386.097 554.891 387.06C555.321 388.023 555.955 388.794 556.776 389.389C557.597 389.967 558.605 390.387 559.799 390.632C560.993 390.877 562.374 391 563.942 391C567.245 391 569.782 390.334 571.536 389.039C573.291 387.743 574.168 385.66 574.168 382.771C574.168 381.142 573.85 379.794 573.253 378.779C572.656 377.746 571.891 376.923 570.977 376.292C570.062 375.662 569.073 375.137 568.028 374.752C566.983 374.366 565.994 373.981 565.08 373.596C564.166 373.211 563.401 372.773 562.803 372.248C562.188 371.74 561.889 371.04 561.889 370.147C561.889 369.552 562.076 368.991 562.449 368.501C562.822 368.011 563.419 367.766 564.222 367.766C564.949 367.766 565.49 368.063 565.845 368.624ZM591.446 363.51C592.864 363.51 594.114 363.72 595.159 364.158C596.204 364.596 597.081 365.173 597.772 365.926C598.462 366.679 598.966 367.555 599.283 368.553C599.6 369.568 599.768 370.671 599.768 371.844C599.768 374.646 598.966 376.747 597.361 378.165C595.756 379.566 593.405 380.266 590.307 380.266H587.676V390.579H580.156V363.51H591.446ZM589.113 375.188C590.065 375.188 590.774 374.926 591.278 374.401C591.782 373.875 592.024 373.035 592.024 371.897C592.024 369.691 591.054 368.605 589.113 368.605H587.695V375.206H589.113V375.188ZM622.887 369.271V363.51H605.812V390.579H623.26V384.818H613.314V379.443H622.29V373.893H613.314V369.271H622.887ZM665.677 368.624C666.032 369.185 666.2 369.885 666.2 370.69H666.162V371.373H673.197C673.197 368.467 672.469 366.348 670.995 365.017C669.521 363.687 667.151 363.021 663.867 363.021C660.695 363.021 658.325 363.739 656.757 365.175C655.19 366.611 654.406 368.712 654.406 371.461C654.406 373.054 654.705 374.35 655.283 375.33C655.862 376.311 656.589 377.098 657.467 377.711C658.344 378.307 659.295 378.797 660.322 379.182C661.348 379.567 662.3 379.935 663.177 380.303C664.054 380.67 664.781 381.108 665.36 381.633C665.938 382.141 666.237 382.841 666.237 383.734C666.237 384.47 666.013 385.082 665.602 385.59C665.192 386.098 664.595 386.343 663.811 386.343C663.083 386.343 662.505 386.115 662.038 385.643C661.572 385.17 661.348 384.347 661.348 383.191V382.544H654.07V383.489C654.07 384.907 654.294 386.098 654.723 387.061C655.153 388.024 655.787 388.794 656.608 389.389C657.429 389.967 658.437 390.387 659.631 390.633C660.825 390.878 662.206 391 663.774 391C667.077 391 669.614 390.335 671.368 389.039C673.123 387.744 674 385.66 674 382.771C674 381.143 673.682 379.795 673.085 378.779C672.488 377.746 671.723 376.923 670.809 376.293C669.894 375.663 668.905 375.137 667.86 374.752C666.815 374.367 665.826 373.982 664.912 373.597C663.998 373.211 663.233 372.774 662.635 372.249C662.02 371.741 661.721 371.04 661.721 370.147C661.721 369.552 661.908 368.992 662.281 368.502C662.654 368.011 663.251 367.766 664.054 367.766C664.781 367.766 665.322 368.064 665.677 368.624Z" fill="white"/>
<defs>
<filter id="filter0_d_446_18063" x="516.51" y="220" width="109.387" height="108.918" filterUnits="userSpaceOnUse" color-interpolation-filters="sRGB">
<feFlood flood-opacity="0" result="BackgroundImageFix"/>
<feColorMatrix in="SourceAlpha" type="matrix" values="0 0 0 0 0 0 0 0 0 0 0 0 0 0 0 0 0 0 127 0" result="hardAlpha"/>
<feOffset dy="4"/>
<feGaussianBlur stdDeviation="2"/>
<feColorMatrix type="matrix" values="0 0 0 0 0 0 0 0 0 0 0 0 0 0 0 0 0 0 0.25 0"/>
<feBlend mode="normal" in2="BackgroundImageFix" result="effect1_dropShadow_446_18063"/>
<feBlend mode="normal" in="SourceGraphic" in2="effect1_dropShadow_446_18063" result="shape"/>
</filter>
<filter id="filter1_d_446_18063" x="541.322" y="241.707" width="59.7637" height="59.5049" filterUnits="userSpaceOnUse" color-interpolation-filters="sRGB">
<feFlood flood-opacity="0" result="BackgroundImageFix"/>
<feColorMatrix in="SourceAlpha" type="matrix" values="0 0 0 0 0 0 0 0 0 0 0 0 0 0 0 0 0 0 127 0" result="hardAlpha"/>
<feOffset dy="1"/>
<feGaussianBlur stdDeviation="1"/>
<feColorMatrix type="matrix" values="0 0 0 0 0.546094 0 0 0 0 0 0 0 0 0 0.176935 0 0 0 0.32 0"/>
<feBlend mode="normal" in2="BackgroundImageFix" result="effect1_dropShadow_446_18063"/>
<feBlend mode="normal" in="SourceGraphic" in2="effect1_dropShadow_446_18063" result="shape"/>
</filter>
<linearGradient id="paint0_linear_446_18063" x1="679.74" y1="379.14" x2="529.008" y2="228.357" gradientUnits="userSpaceOnUse">
<stop stop-color="#F87408"/>
<stop offset="1" stop-color="#FFF007"/>
</linearGradient>
</defs>
</svg>
